{
.appVersion = "998";
copyright = "Copyright 2017 Google Inc. All Rights Reserved.";
customParameters = (
{
name = glyphOrder;
value = (
.notdef,
NULL,
CR,
space,
"koKai-lao",
"khoKhai-lao",
"khoKhuay-lao",
"ngoNgu-lao",
"coCok-lao",
"soSang-lao",
"nyoNyung-lao",
"doDek-lao",
"toTa-lao",
"thoThong-lao",
"thoThung-lao",
"noNok-lao",
"boBae-lao",
"poPa-lao",
"phoPhueng-lao",
"foFon-lao",
"phoPhu-lao",
"foFai-lao",
"moMa-lao",
"yoYa-lao",
"roRot-lao",
"loLing-lao",
"woWi-lao",
"soSeua-lao",
"hoHaan-lao",
"oO-lao",
"hoHeuan-lao",
"khmuGo-lao",
"khmuNyo-lao",
"aVowel-lao",
"aaVowel-lao",
"amVowel-lao",
"nyoVowel-lao",
"eVowel-lao",
"aeVowel-lao",
"oVowel-lao",
"ayMaiMuanVowel-lao",
"aiMaiMayVowel-lao",
"amVowel-lao.narrow",
"hoNo-lao",
"hoMo-lao",
"zero-lao",
"one-lao",
"two-lao",
"three-lao",
"four-lao",
"five-lao",
"six-lao",
"seven-lao",
"eight-lao",
"nine-lao",
"koLa-lao",
"ellipsis-lao",
kip,
"maiKanVowel-lao",
"iVowel-lao",
"iiVowel-lao",
"euVowel-lao",
"euuVowel-lao",
"maiKonVowel-lao",
"uVowel-lao",
"uuVowel-lao",
"loVowel-lao",
"maiEk-lao",
"maiTho-lao",
"maiTi-lao",
"maiCatawa-lao",
"karan-lao",
"niggahita-lao",
"niggahita_maiEk-lao",
"niggahita_maiTho-lao",
"niggahita_maiTi-lao",
"niggahita_maiCatawa-lao",
"maiEk-lao.small",
"maiTho-lao.small",
"maiTi-lao.small",
"maiCatawa-lao.small",
"karan-lao.small",
"maiKanVowel-lao.narrow",
"iVowel-lao.narrow",
"iiVowel-lao.narrow",
"euVowel-lao.narrow",
"euuVowel-lao.narrow",
"maiKonVowel-lao.narrow",
"uVowel-lao.narrow",
"uuVowel-lao.narrow",
"loVowel-lao.narrow",
"maiEk-lao.narrow",
"maiTho-lao.narrow",
"maiTi-lao.narrow",
"maiCatawa-lao.narrow",
"karan-lao.narrow",
"niggahita_maiEk-lao.right",
"niggahita_maiTho-lao.right",
"niggahita_maiTi-lao.right",
"niggahita_maiCatawa-lao.right",
"uVowel-lao.small",
"uuVowel-lao.small",
"maiKanVowel-lao.center",
"maiKonVowel-lao.center",
"niggahita-lao.narrow",
"niggahita-lao.right",
"loVowel-lao.small",
"niggahita_maiEk-lao.narrow",
"niggahita_maiTho-lao.narrow",

glyphs = (
{
glyphname = .notdef;
lastChange = "2017-06-02 13:33:53 +0000";
layers = (
{
layerId = "64BC062E-13E4-450B-B24E-D8A474022433";
paths = (
{
closed = 1;
nodes = (
"450 0 LINE",
"450 714 LINE",
"50 714 LINE",
"50 0 LINE"
);
},
{
closed = 1;
nodes = (
"98 666 LINE",
"402 666 LINE",
"402 48 LINE",
"98 48 LINE"
);
}
);
width = 500;
},
{
layerId = "6449CA81-A7C3-4005-93E5-765657812F1B";
paths = (
{
closed = 1;
nodes = (
"450 0 LINE",
"450 714 LINE",
"50 714 LINE",
"50 0 LINE"
);
},
{
closed = 1;
nodes = (
"98 666 LINE",
"402 666 LINE",
"402 48 LINE",
"98 48 LINE"
);
}
);
width = 500;
},
{
layerId = "E5D3352E-10FF-4C03-AD9F-F95B1FD01257";
paths = (
{
closed = 1;
nodes = (
"450 0 LINE",
"450 714 LINE",
"50 714 LINE",
"50 0 LINE"
);
},
{
closed = 1;
nodes = (
"98 666 LINE",
"402 666 LINE",
"402 48 LINE",
"98 48 LINE"
);
}
);
width = 500;
},
{
layerId = "DDDB2E70-9881-4210-B3C5-A030831183E9";
paths = (
{
closed = 1;
nodes = (
"450 0 LINE",
"450 714 LINE",
"50 714 LINE",
"50 0 LINE"
);
},
{
closed = 1;
nodes = (
"98 666 LINE",
"402 666 LINE",
"402 48 LINE",
"98 48 LINE"
);
}
);
width = 500;
},
{
layerId = "3A4E24C5-56F7-4F8A-8FFD-B2AF7CE4A726";
paths = (
{
closed = 1;
nodes = (
"450 0 LINE",
"450 714 LINE",
"50 714 LINE",
"50 0 LINE"
);
},
{
closed = 1;
nodes = (
"98 666 LINE",
"402 666 LINE",
"402 48 LINE",
"98 48 LINE"
);
}
);
width = 500;
},
{
layerId = "A6C8CBD9-95C8-4E45-A197-88A1149E2980";
paths = (
{
closed = 1;
nodes = (
"450 0 LINE",
"450 714 LINE",
"50 714 LINE",
"50 0 LINE"
);
},
{
closed = 1;
nodes = (
"98 666 LINE",
"402 666 LINE",
"402 48 LINE",
"98 48 LINE"
);
}
);
width = 500;
}
);
note = .notdef;
},
{
glyphname = "koKai-lao";
lastChange = "2017-06-02 13:33:53 +0000";
layers = (
{
anchors = (
{
name = bottom;
position = "{540, 0}";
},
{
name = top;
position = "{530, 504}";
},
{
name = top2;
position = "{369, 504}";
}
);
layerId = "64BC062E-13E4-450B-B24E-D8A474022433";
paths = (
{
closed = 1;
nodes = (
"158 -10 OFFCURVE",
"186 17 OFFCURVE",
"186 83 CURVE SMOOTH",
"186 338 LINE SMOOTH",
"186 401 OFFCURVE",
"258 498 OFFCURVE",
"385 498 CURVE SMOOTH",
"494 498 OFFCURVE",
"514 426 OFFCURVE",
"514 344 CURVE SMOOTH",
"514 0 LINE",
"540 0 LINE",
"540 343 LINE SMOOTH",
"540 464 OFFCURVE",
"493 523 OFFCURVE",
"384 523 CURVE SMOOTH",
"275 523 OFFCURVE",
"214 465 OFFCURVE",
"182 403 CURVE",
"181 403 LINE",
"171 452 OFFCURVE",
"157 489 OFFCURVE",
"132 523 CURVE",
"112 510 LINE",
"138 474 OFFCURVE",
"160 422 OFFCURVE",
"160 367 CURVE SMOOTH",
"160 79 LINE SMOOTH",
"160 28 OFFCURVE",
"142 14 OFFCURVE",
"109 14 CURVE SMOOTH",
"93 14 OFFCURVE",
"83 17 OFFCURVE",
"70 21 CURVE",
"65 -3 LINE",
"78 -7 OFFCURVE",
"94 -10 OFFCURVE",
"110 -10 CURVE SMOOTH"
);
}
);
width = 625;
},
{
anchors = (
{
name = bottom;
position = "{526, 0}";
},
{
name = top;
position = "{516, 504}";
},
{
name = top2;
position = "{334, 504}";
}
);
layerId = "6449CA81-A7C3-4005-93E5-765657812F1B";
paths = (
{
closed = 1;
nodes = (
"156 -10 OFFCURVE",
"194 31 OFFCURVE",
"194 101 CURVE SMOOTH",
"194 337 LINE SMOOTH",
"194 430 OFFCURVE",
"262 454 OFFCURVE",
"322 454 CURVE SMOOTH",
"406 454 OFFCURVE",
"438 407 OFFCURVE",
"438 328 CURVE SMOOTH",
"438 0 LINE",
"526 0 LINE",
"526 334 LINE SMOOTH",
"526 461 OFFCURVE",
"459 526 OFFCURVE",
"340 526 CURVE SMOOTH",
"275 526 OFFCURVE",
"216 507 OFFCURVE",
"171 450 CURVE",
"168 450 LINE",
"156 479 OFFCURVE",
"133 511 OFFCURVE",
"115 526 CURVE",
"51 477 LINE",
"79 451 OFFCURVE",
"106 411 OFFCURVE",
"106 343 CURVE SMOOTH",
"106 98 LINE SMOOTH",
"106 70 OFFCURVE",
"89 60 OFFCURVE",
"67 60 CURVE SMOOTH",
"57 60 OFFCURVE",
"45 62 OFFCURVE",
"33 65 CURVE",
"20 4 LINE",
"44 -5 OFFCURVE",
"70 -10 OFFCURVE",
"92 -10 CURVE SMOOTH"
);
}
);
width = 608;
},
{
anchors = (
{
name = bottom;
position = "{595, 0}";
},
{
name = top;
position = "{585, 505}";
},
{
name = top2;
position = "{354, 505}";
}
);
layerId = "E5D3352E-10FF-4C03-AD9F-F95B1FD01257";
paths = (
{
closed = 1;
nodes = (
"248 -10 OFFCURVE",
"304 41 OFFCURVE",
"304 134 CURVE SMOOTH",
"304 330 LINE SMOOTH",
"304 369 OFFCURVE",
"324 387 OFFCURVE",
"356 387 CURVE SMOOTH",
"390 387 OFFCURVE",
"403 368 OFFCURVE",
"403 329 CURVE SMOOTH",
"403 0 LINE",
"595 0 LINE",
"595 351 LINE SMOOTH",
"595 450 OFFCURVE",
"542 531 OFFCURVE",
"412 531 CURVE SMOOTH",
"333 531 OFFCURVE",
"277 501 OFFCURVE",
"240 461 CURVE",
"237 461 LINE",
"227 486 OFFCURVE",
"207 508 OFFCURVE",
"182 531 CURVE",
"43 427 LINE",
"96 382 OFFCURVE",
"112 350 OFFCURVE",
"112 285 CURVE SMOOTH",
"112 157 LINE SMOOTH",
"112 141 OFFCURVE",
"105 134 OFFCURVE",
"87 134 CURVE SMOOTH",
"74 134 OFFCURVE",
"62 138 OFFCURVE",
"52 142 CURVE",
"25 20 LINE",
"63 0 OFFCURVE",
"120 -10 OFFCURVE",
"159 -10 CURVE SMOOTH"
);
}
);
width = 640;
},
{
anchors = (
{
name = bottom;
position = "{376, 0}";
},
{
name = top;
position = "{369, 504}";
},
{
name = top2;
position = "{254, 504}";
}
);
layerId = "DDDB2E70-9881-4210-B3C5-A030831183E9";
paths = (
{
closed = 1;
nodes = (
"111 -10 OFFCURVE",
"131 17 OFFCURVE",
"131 83 CURVE SMOOTH",
"131 338 LINE SMOOTH",
"131 400 OFFCURVE",
"180 498 OFFCURVE",
"263 498 CURVE SMOOTH",
"335 498 OFFCURVE",
"350 425 OFFCURVE",
"350 344 CURVE SMOOTH",
"350 0 LINE",
"376 0 LINE",
"376 343 LINE SMOOTH",
"376 462 OFFCURVE",
"341 523 OFFCURVE",
"265 523 CURVE SMOOTH",
"196 523 OFFCURVE",
"153 472 OFFCURVE",
"126 403 CURVE",
"125 403 LINE",
"118 452 OFFCURVE",
"107 489 OFFCURVE",
"90 523 CURVE",
"71 510 LINE",
"89 474 OFFCURVE",
"105 422 OFFCURVE",
"105 367 CURVE SMOOTH",
"105 79 LINE SMOOTH",
"105 28 OFFCURVE",
"93 14 OFFCURVE",
"71 14 CURVE SMOOTH",
"61 14 OFFCURVE",
"53 17 OFFCURVE",
"45 21 CURVE",
"40 -3 LINE",
"50 -7 OFFCURVE",
"63 -10 OFFCURVE",
"75 -10 CURVE SMOOTH"
);
}
);
width = 435;
},
{
anchors = (
{
name = bottom;
position = "{387, 0}";
},
{
name = top;
position = "{380, 504}";
},
{
name = top2;
position = "{243, 504}";
}
);
layerId = "3A4E24C5-56F7-4F8A-8FFD-B2AF7CE4A726";
paths = (
{
closed = 1;
nodes = (
"134 -10 OFFCURVE",
"163 31 OFFCURVE",
"163 99 CURVE SMOOTH",
"163 337 LINE SMOOTH",
"163 427 OFFCURVE",
"200 458 OFFCURVE",
"240 458 CURVE SMOOTH",
"289 458 OFFCURVE",
"305 411 OFFCURVE",
"305 330 CURVE SMOOTH",
"305 0 LINE",
"387 0 LINE",
"387 335 LINE SMOOTH",
"387 462 OFFCURVE",
"346 526 OFFCURVE",
"260 526 CURVE SMOOTH",
"208 526 OFFCURVE",
"167 503 OFFCURVE",
"139 445 CURVE",
"137 445 LINE",
"129 476 OFFCURVE",
"115 509 OFFCURVE",
"100 526 CURVE",
"40 480 LINE",
"66 453 OFFCURVE",
"81 412 OFFCURVE",
"81 345 CURVE SMOOTH",
"81 96 LINE SMOOTH",
"81 66 OFFCURVE",
"72 56 OFFCURVE",
"56 56 CURVE SMOOTH",
"48 56 OFFCURVE",
"40 58 OFFCURVE",
"32 61 CURVE",
"20 3 LINE",
"39 -5 OFFCURVE",
"65 -10 OFFCURVE",
"83 -10 CURVE SMOOTH"
);
}
);
width = 435;
},
{
anchors = (
{
name = bottom;
position = "{494, 0}";
},
{
name = top;
position = "{486, 505}";
},
{
name = top2;
position = "{297, 505}";
}
);
layerId = "A6C8CBD9-95C8-4E45-A197-88A1149E2980";
paths = (
{
closed = 1;
nodes = (
"218 -10 OFFCURVE",
"265 38 OFFCURVE",
"265 124 CURVE SMOOTH",
"265 332 LINE SMOOTH",
"265 386 OFFCURVE",
"277 406 OFFCURVE",
"299 406 CURVE SMOOTH",
"323 406 OFFCURVE",
"332 381 OFFCURVE",
"332 329 CURVE SMOOTH",
"332 0 LINE",
"494 0 LINE",
"494 346 LINE SMOOTH",
"494 454 OFFCURVE",
"453 530 OFFCURVE",
"347 530 CURVE SMOOTH",
"284 530 OFFCURVE",
"239 503 OFFCURVE",
"210 458 CURVE",
"208 458 LINE",
"200 484 OFFCURVE",
"184 509 OFFCURVE",
"164 530 CURVE",
"46 441 LINE",
"91 402 OFFCURVE",
"103 368 OFFCURVE",
"103 302 CURVE SMOOTH",
"103 140 LINE SMOOTH",
"103 120 OFFCURVE",
"98 113 OFFCURVE",
"83 113 CURVE SMOOTH",
"73 113 OFFCURVE",
"64 116 OFFCURVE",
"56 120 CURVE",
"33 15 LINE",
"65 -1 OFFCURVE",
"113 -10 OFFCURVE",
"145 -10 CURVE SMOOTH"
);
}
);
width = 540;
}
);
note = uni0E81;
unicode = 0E81;
},
{
glyphname = "khoKhai-lao";
lastChange = "2017-06-02 13:33:53 +0000";
layers = (
{
anchors = (
{
name = bottom;
position = "{478, 0}";
},
{
name = top;
position = "{465, 504}";
},
{
name = top2;
position = "{288, 504}";
}
);
layerId = "64BC062E-13E4-450B-B24E-D8A474022433";
paths = (
{
closed = 1;
nodes = (
"271 -10 OFFCURVE",
"315 65 OFFCURVE",
"393 65 CURVE SMOOTH",
"433 65 OFFCURVE",
"453 45 OFFCURVE",
"453 7 CURVE SMOOTH",
"453 0 LINE",
"479 0 LINE",
"479 8 LINE SMOOTH",
"479 68 OFFCURVE",
"437 88 OFFCURVE",
"393 88 CURVE SMOOTH",
"309 88 OFFCURVE",
"260 14 OFFCURVE",
"173 14 CURVE SMOOTH",
"121 14 OFFCURVE",
"93 41 OFFCURVE",
"93 92 CURVE SMOOTH",
"93 168 OFFCURVE",
"158 188 OFFCURVE",
"269 220 CURVE SMOOTH",
"386 254 OFFCURVE",
"472 280 OFFCURVE",
"472 377 CURVE SMOOTH",
"472 458 OFFCURVE",
"413 523 OFFCURVE",
"268 523 CURVE SMOOTH",
"119 523 OFFCURVE",
"65 454 OFFCURVE",
"65 385 CURVE SMOOTH",
"65 369 OFFCURVE",
"68 345 OFFCURVE",
"75 333 CURVE",
"100 343 LINE",
"95 354 OFFCURVE",
"93 372 OFFCURVE",
"93 385 CURVE SMOOTH",
"93 463 OFFCURVE",
"167 498 OFFCURVE",
"269 498 CURVE SMOOTH",
"373 498 OFFCURVE",
"444 461 OFFCURVE",
"444 377 CURVE SMOOTH",
"444 298 OFFCURVE",
"383 280 OFFCURVE",
"262 243 CURVE SMOOTH",
"136 205 OFFCURVE",
"65 182 OFFCURVE",
"65 93 CURVE SMOOTH",
"65 19 OFFCURVE",
"115 -10 OFFCURVE",
"175 -10 CURVE SMOOTH"
);
}
);
width = 538;
},
{
anchors = (
{
name = bottom;
position = "{536, 0}";
},
{
name = top;
position = "{517, 504}";
},
{
name = top2;
position = "{317, 504}";
}
);
layerId = "6449CA81-A7C3-4005-93E5-765657812F1B";
paths = (
{
closed = 1;
nodes = (
"299 -10 OFFCURVE",
"365 54 OFFCURVE",
"416 54 CURVE SMOOTH",
"437 54 OFFCURVE",
"449 44 OFFCURVE",
"449 20 CURVE SMOOTH",
"449 0 LINE",
"536 0 LINE",
"536 24 LINE SMOOTH",
"536 100 OFFCURVE",
"487 127 OFFCURVE",
"434 127 CURVE SMOOTH",
"351 127 OFFCURVE",
"270 59 OFFCURVE",
"208 59 CURVE SMOOTH",
"173 59 OFFCURVE",
"153 81 OFFCURVE",
"153 106 CURVE SMOOTH",
"153 158 OFFCURVE",
"235 177 OFFCURVE",
"312 200 CURVE SMOOTH",
"434 236 OFFCURVE",
"535 273 OFFCURVE",
"535 370 CURVE SMOOTH",
"535 453 OFFCURVE",
"462 526 OFFCURVE",
"303 526 CURVE SMOOTH",
"141 526 OFFCURVE",
"73 451 OFFCURVE",
"73 371 CURVE SMOOTH",
"73 341 OFFCURVE",
"82 311 OFFCURVE",
"104 293 CURVE",
"174 328 LINE",
"164 339 OFFCURVE",
"157 350 OFFCURVE",
"157 369 CURVE SMOOTH",
"157 428 OFFCURVE",
"223 455 OFFCURVE",
"304 455 CURVE SMOOTH",
"384 455 OFFCURVE",
"450 429 OFFCURVE",
"450 371 CURVE SMOOTH",
"450 312 OFFCURVE",
"381 295 OFFCURVE",
"288 268 CURVE SMOOTH",
"184 238 OFFCURVE",
"68 206 OFFCURVE",
"68 103 CURVE SMOOTH",
"68 25 OFFCURVE",
"133 -10 OFFCURVE",
"203 -10 CURVE SMOOTH"
);
}
);
width = 609;
},
{
anchors = (
{
name = bottom;
position = "{549, 0}";
},
{
name = top;
position = "{539, 505}";
},
{
name = top2;
position = "{313, 505}";
}
);
layerId = "E5D3352E-10FF-4C03-AD9F-F95B1FD01257";
paths = (
{
closed = 1;
nodes = (
"273 -10 OFFCURVE",
"332 30 OFFCURVE",
"372 30 CURVE SMOOTH",
"388 30 OFFCURVE",
"392 24 OFFCURVE",
"392 12 CURVE SMOOTH",
"392 0 LINE",
"549 0 LINE",
"549 57 LINE SMOOTH",
"549 135 OFFCURVE",
"523 186 OFFCURVE",
"434 186 CURVE SMOOTH",
"343 186 OFFCURVE",
"264 134 OFFCURVE",
"223 134 CURVE SMOOTH",
"215 134 OFFCURVE",
"213 136 OFFCURVE",
"213 138 CURVE SMOOTH",
"213 150 OFFCURVE",
"266 169 OFFCURVE",
"346 202 CURVE SMOOTH",
"490 262 OFFCURVE",
"549 297 OFFCURVE",
"549 380 CURVE SMOOTH",
"549 467 OFFCURVE",
"483 531 OFFCURVE",
"300 531 CURVE SMOOTH",
"122 531 OFFCURVE",
"35 471 OFFCURVE",
"35 380 CURVE SMOOTH",
"35 327 OFFCURVE",
"65 282 OFFCURVE",
"97 265 CURVE",
"235 335 LINE",
"226 344 OFFCURVE",
"221 354 OFFCURVE",
"221 364 CURVE SMOOTH",
"221 386 OFFCURVE",
"246 400 OFFCURVE",
"297 400 CURVE SMOOTH",
"346 400 OFFCURVE",
"361 387 OFFCURVE",
"361 370 CURVE SMOOTH",
"361 350 OFFCURVE",
"339 345 OFFCURVE",
"217 290 CURVE SMOOTH",
"94 234 OFFCURVE",
"25 197 OFFCURVE",
"25 110 CURVE SMOOTH",
"25 22 OFFCURVE",
"95 -10 OFFCURVE",
"179 -10 CURVE SMOOTH"
);
}
);
width = 589;
},
{
anchors = (
{
name = bottom;
position = "{342, 0}";
},
{
name = top;
position = "{332, 504}";
},
{
name = top2;
position = "{205, 504}";
}
);
layerId = "DDDB2E70-9881-4210-B3C5-A030831183E9";
paths = (
{
closed = 1;
nodes = (
"193 -10 OFFCURVE",
"227 65 OFFCURVE",
"278 65 CURVE SMOOTH",
"304 65 OFFCURVE",
"317 45 OFFCURVE",
"317 7 CURVE SMOOTH",
"317 0 LINE",
"343 0 LINE",
"343 8 LINE SMOOTH",
"343 68 OFFCURVE",
"312 88 OFFCURVE",
"281 88 CURVE SMOOTH",
"221 88 OFFCURVE",
"183 14 OFFCURVE",
"126 14 CURVE SMOOTH",
"91 14 OFFCURVE",
"73 42 OFFCURVE",
"73 91 CURVE SMOOTH",
"73 168 OFFCURVE",
"118 187 OFFCURVE",
"194 220 CURVE SMOOTH",
"276 255 OFFCURVE",
"338 280 OFFCURVE",
"338 377 CURVE SMOOTH",
"338 458 OFFCURVE",
"295 523 OFFCURVE",
"192 523 CURVE SMOOTH",
"86 523 OFFCURVE",
"47 454 OFFCURVE",
"47 385 CURVE SMOOTH",
"47 369 OFFCURVE",
"49 345 OFFCURVE",
"56 333 CURVE",
"79 343 LINE",
"75 354 OFFCURVE",
"73 371 OFFCURVE",
"73 386 CURVE SMOOTH",
"73 462 OFFCURVE",
"124 498 OFFCURVE",
"193 498 CURVE SMOOTH",
"263 498 OFFCURVE",
"312 461 OFFCURVE",
"312 377 CURVE SMOOTH",
"312 298 OFFCURVE",
"268 280 OFFCURVE",
"187 243 CURVE SMOOTH",
"102 204 OFFCURVE",
"46 182 OFFCURVE",
"46 92 CURVE SMOOTH",
"46 19 OFFCURVE",
"83 -10 OFFCURVE",
"125 -10 CURVE SMOOTH"
);
}
);
width = 386;
},
{
anchors = (
{
name = bottom;
position = "{372, 0}";
},
{
name = top;
position = "{362, 504}";
},
{
name = top2;
position = "{218, 504}";
}
);
layerId = "3A4E24C5-56F7-4F8A-8FFD-B2AF7CE4A726";
paths = (
{
closed = 1;
nodes = (
"202 -10 OFFCURVE",
"241 55 OFFCURVE",
"278 55 CURVE SMOOTH",
"293 55 OFFCURVE",
"300 44 OFFCURVE",
"300 19 CURVE SMOOTH",
"300 0 LINE",
"373 0 LINE",
"373 22 LINE SMOOTH",
"373 95 OFFCURVE",
"345 123 OFFCURVE",
"302 123 CURVE SMOOTH",
"236 123 OFFCURVE",
"186 55 OFFCURVE",
"148 55 CURVE SMOOTH",
"126 55 OFFCURVE",
"116 77 OFFCURVE",
"116 103 CURVE SMOOTH",
"116 159 OFFCURVE",
"160 176 OFFCURVE",
"223 202 CURVE SMOOTH",
"310 238 OFFCURVE",
"372 272 OFFCURVE",
"372 369 CURVE SMOOTH",
"372 454 OFFCURVE",
"324 526 OFFCURVE",
"209 526 CURVE SMOOTH",
"91 526 OFFCURVE",
"40 450 OFFCURVE",
"40 376 CURVE SMOOTH",
"40 342 OFFCURVE",
"51 314 OFFCURVE",
"68 297 CURVE",
"130 329 LINE",
"123 340 OFFCURVE",
"120 352 OFFCURVE",
"120 370 CURVE SMOOTH",
"120 432 OFFCURVE",
"157 459 OFFCURVE",
"207 459 CURVE SMOOTH",
"258 459 OFFCURVE",
"291 432 OFFCURVE",
"291 371 CURVE SMOOTH",
"291 310 OFFCURVE",
"259 296 OFFCURVE",
"181 265 CURVE SMOOTH",
"100 233 OFFCURVE",
"36 204 OFFCURVE",
"36 106 CURVE SMOOTH",
"36 23 OFFCURVE",
"81 -10 OFFCURVE",
"131 -10 CURVE SMOOTH"
);
}
);
width = 414;
},
{
anchors = (
{
name = bottom;
position = "{454, 0}";
},
{
name = top;
position = "{446, 505}";
},
{
name = top2;
position = "{264, 505}";
}
);
layerId = "A6C8CBD9-95C8-4E45-A197-88A1149E2980";
paths = (
{
closed = 1;
nodes = (
"233 -10 OFFCURVE",
"275 37 OFFCURVE",
"308 37 CURVE SMOOTH",
"320 37 OFFCURVE",
"322 30 OFFCURVE",
"322 14 CURVE SMOOTH",
"322 0 LINE",
"454 0 LINE",
"454 47 LINE SMOOTH",
"454 123 OFFCURVE",
"435 169 OFFCURVE",
"364 169 CURVE SMOOTH",
"284 169 OFFCURVE",
"248 112 OFFCURVE",
"212 112 CURVE SMOOTH",
"200 112 OFFCURVE",
"189 118 OFFCURVE",
"189 130 CURVE SMOOTH",
"189 152 OFFCURVE",
"227 170 OFFCURVE",
"293 201 CURVE SMOOTH",
"410 256 OFFCURVE",
"454 289 OFFCURVE",
"454 373 CURVE SMOOTH",
"454 463 OFFCURVE",
"402 530 OFFCURVE",
"255 530 CURVE SMOOTH",
"111 530 OFFCURVE",
"38 465 OFFCURVE",
"38 380 CURVE SMOOTH",
"38 331 OFFCURVE",
"62 292 OFFCURVE",
"91 273 CURVE",
"206 333 LINE",
"199 343 OFFCURVE",
"195 355 OFFCURVE",
"195 368 CURVE SMOOTH",
"195 397 OFFCURVE",
"215 416 OFFCURVE",
"248 416 CURVE SMOOTH",
"277 416 OFFCURVE",
"295 401 OFFCURVE",
"295 373 CURVE SMOOTH",
"295 344 OFFCURVE",
"276 334 OFFCURVE",
"181 283 CURVE SMOOTH",
"75 226 OFFCURVE",
"30 196 OFFCURVE",
"30 113 CURVE SMOOTH",
"30 22 OFFCURVE",
"86 -10 OFFCURVE",
"152 -10 CURVE SMOOTH"
);
}
);
width = 496;
}
);
note = uni0E82;
unicode = 0E82;
},
{
glyphname = "khoKhuay-lao";
lastChange = "2017-06-02 13:33:53 +0000";
layers = (
{
anchors = (
{
name = bottom;
position = "{478, 0}";
},
{
name = top;
position = "{468, 504}";
},
{
name = top2;
position = "{290, 504}";
}
);
layerId = "64BC062E-13E4-450B-B24E-D8A474022433";
paths = (
{
closed = 1;
nodes = (
"230 -10 OFFCURVE",
"261 -6 OFFCURVE",
"281 1 CURVE",
"276 26 LINE",
"262 21 OFFCURVE",
"234 14 OFFCURVE",
"205 14 CURVE SMOOTH",
"140 14 OFFCURVE",
"92 50 OFFCURVE",
"92 121 CURVE SMOOTH",
"92 210 OFFCURVE",
"167 238 OFFCURVE",
"226 238 CURVE SMOOTH",
"264 238 LINE",
"264 259 LINE",
"226 259 LINE SMOOTH",
"144 259 OFFCURVE",
"95 303 OFFCURVE",
"95 374 CURVE SMOOTH",
"95 469 OFFCURVE",
"183 498 OFFCURVE",
"271 498 CURVE SMOOTH",
"368 498 OFFCURVE",
"452 463 OFFCURVE",
"452 354 CURVE SMOOTH",
"452 0 LINE",
"478 0 LINE",
"478 349 LINE SMOOTH",
"478 471 OFFCURVE",
"393 523 OFFCURVE",
"270 523 CURVE SMOOTH",
"149 523 OFFCURVE",
"68 472 OFFCURVE",
"68 374 CURVE SMOOTH",
"68 294 OFFCURVE",
"121 265 OFFCURVE",
"155 251 CURVE",
"155 248 LINE",
"123 236 OFFCURVE",
"65 206 OFFCURVE",
"65 121 CURVE SMOOTH",
"65 37 OFFCURVE",
"122 -10 OFFCURVE",
"206 -10 CURVE SMOOTH"
);
}
);
width = 563;
},
{
anchors = (
{
name = bottom;
position = "{526, 0}";
},
{
name = top;
position = "{516, 504}";
},
{
name = top2;
position = "{313, 504}";
}
);
layerId = "6449CA81-A7C3-4005-93E5-765657812F1B";
paths = (
{
closed = 1;
nodes = (
"262 -10 OFFCURVE",
"299 -4 OFFCURVE",
"318 4 CURVE",
"303 72 LINE",
"288 67 OFFCURVE",
"266 62 OFFCURVE",
"243 62 CURVE SMOOTH",
"185 62 OFFCURVE",
"156 94 OFFCURVE",
"156 142 CURVE SMOOTH",
"156 203 OFFCURVE",
"202 225 OFFCURVE",
"272 225 CURVE SMOOTH",
"292 225 LINE",
"292 288 LINE",
"272 288 LINE SMOOTH",
"204 288 OFFCURVE",
"156 317 OFFCURVE",
"156 371 CURVE SMOOTH",
"156 425 OFFCURVE",
"204 454 OFFCURVE",
"296 454 CURVE SMOOTH",
"400 454 OFFCURVE",
"438 416 OFFCURVE",
"438 348 CURVE SMOOTH",
"438 0 LINE",
"526 0 LINE",
"526 340 LINE SMOOTH",
"526 471 OFFCURVE",
"449 526 OFFCURVE",
"302 526 CURVE SMOOTH",
"150 526 OFFCURVE",
"68 468 OFFCURVE",
"68 375 CURVE SMOOTH",
"68 314 OFFCURVE",
"103 275 OFFCURVE",
"161 257 CURVE",
"161 254 LINE",
"97 238 OFFCURVE",
"68 191 OFFCURVE",
"68 133 CURVE SMOOTH",
"68 62 OFFCURVE",
"112 -10 OFFCURVE",
"228 -10 CURVE SMOOTH"
);
}
);
width = 608;
},
{
anchors = (
{
name = bottom;
position = "{554, 0}";
},
{
name = top;
position = "{544, 505}";
},
{
name = top2;
position = "{305, 505}";
}
);
layerId = "E5D3352E-10FF-4C03-AD9F-F95B1FD01257";
paths = (
{
closed = 1;
nodes = (
"251 -10 OFFCURVE",
"294 -3 OFFCURVE",
"329 9 CURVE",
"298 140 LINE",
"285 136 OFFCURVE",
"268 134 OFFCURVE",
"256 134 CURVE SMOOTH",
"230 134 OFFCURVE",
"218 145 OFFCURVE",
"218 165 CURVE SMOOTH",
"218 189 OFFCURVE",
"235 202 OFFCURVE",
"263 202 CURVE SMOOTH",
"315 202 LINE",
"315 311 LINE",
"263 311 LINE SMOOTH",
"231 311 OFFCURVE",
"218 330 OFFCURVE",
"218 347 CURVE SMOOTH",
"218 376 OFFCURVE",
"253 387 OFFCURVE",
"286 387 CURVE SMOOTH",
"332 387 OFFCURVE",
"362 366 OFFCURVE",
"362 336 CURVE SMOOTH",
"362 0 LINE",
"554 0 LINE",
"554 325 LINE SMOOTH",
"554 471 OFFCURVE",
"460 531 OFFCURVE",
"293 531 CURVE SMOOTH",
"121 531 OFFCURVE",
"30 467 OFFCURVE",
"30 374 CURVE SMOOTH",
"30 318 OFFCURVE",
"62 278 OFFCURVE",
"116 259 CURVE",
"116 257 LINE",
"53 231 OFFCURVE",
"30 182 OFFCURVE",
"30 133 CURVE SMOOTH",
"30 60 OFFCURVE",
"80 -10 OFFCURVE",
"210 -10 CURVE SMOOTH"
);
}
);
width = 599;
},
{
anchors = (
{
name = bottom;
position = "{341, 0}";
},
{
name = top;
position = "{334, 504}";
},
{
name = top2;
position = "{206, 504}";
}
);
layerId = "DDDB2E70-9881-4210-B3C5-A030831183E9";
paths = (
{
closed = 1;
nodes = (
"165 -10 OFFCURVE",
"188 -6 OFFCURVE",
"201 1 CURVE",
"197 26 LINE",
"187 21 OFFCURVE",
"168 14 OFFCURVE",
"148 14 CURVE SMOOTH",
"104 14 OFFCURVE",
"73 50 OFFCURVE",
"73 121 CURVE SMOOTH",
"73 210 OFFCURVE",
"121 238 OFFCURVE",
"164 238 CURVE SMOOTH",
"188 238 LINE",
"188 259 LINE",
"164 259 LINE SMOOTH",
"108 259 OFFCURVE",
"74 303 OFFCURVE",
"74 375 CURVE SMOOTH",
"74 469 OFFCURVE",
"131 498 OFFCURVE",
"193 498 CURVE SMOOTH",
"262 498 OFFCURVE",
"315 463 OFFCURVE",
"315 354 CURVE SMOOTH",
"315 0 LINE",
"341 0 LINE",
"341 349 LINE SMOOTH",
"341 471 OFFCURVE",
"282 523 OFFCURVE",
"193 523 CURVE SMOOTH",
"104 523 OFFCURVE",
"48 472 OFFCURVE",
"48 373 CURVE SMOOTH",
"48 295 OFFCURVE",
"83 265 OFFCURVE",
"109 251 CURVE",
"109 248 LINE",
"83 236 OFFCURVE",
"46 206 OFFCURVE",
"46 122 CURVE SMOOTH",
"46 37 OFFCURVE",
"84 -10 OFFCURVE",
"147 -10 CURVE SMOOTH"
);
}
);
width = 400;
},
{
anchors = (
{
name = bottom;
position = "{371, 0}";
},
{
name = top;
position = "{364, 504}";
},
{
name = top2;
position = "{215, 504}";
}
);
layerId = "3A4E24C5-56F7-4F8A-8FFD-B2AF7CE4A726";
paths = (
{
closed = 1;
nodes = (
"178 -10 OFFCURVE",
"205 -4 OFFCURVE",
"222 4 CURVE",
"209 68 LINE",
"199 63 OFFCURVE",
"184 57 OFFCURVE",
"170 57 CURVE SMOOTH",
"137 57 OFFCURVE",
"119 90 OFFCURVE",
"119 140 CURVE SMOOTH",
"119 204 OFFCURVE",
"147 226 OFFCURVE",
"184 226 CURVE SMOOTH",
"208 226 LINE",
"208 285 LINE",
"184 285 LINE SMOOTH",
"144 285 OFFCURVE",
"119 317 OFFCURVE",
"119 369 CURVE SMOOTH",
"119 430 OFFCURVE",
"154 458 OFFCURVE",
"203 458 CURVE SMOOTH",
"260 458 OFFCURVE",
"289 421 OFFCURVE",
"289 349 CURVE SMOOTH",
"289 0 LINE",
"371 0 LINE",
"371 341 LINE SMOOTH",
"371 471 OFFCURVE",
"312 526 OFFCURVE",
"206 526 CURVE SMOOTH",
"98 526 OFFCURVE",
"38 468 OFFCURVE",
"38 374 CURVE SMOOTH",
"38 312 OFFCURVE",
"64 274 OFFCURVE",
"101 256 CURVE",
"101 253 LINE",
"60 238 OFFCURVE",
"38 192 OFFCURVE",
"38 133 CURVE SMOOTH",
"38 61 OFFCURVE",
"71 -10 OFFCURVE",
"154 -10 CURVE SMOOTH"
);
}
);
width = 419;
},
{
anchors = (
{
name = bottom;
position = "{459, 0}";
},
{
name = top;
position = "{451, 505}";
},
{
name = top2;
position = "{256, 505}";
}
);
layerId = "A6C8CBD9-95C8-4E45-A197-88A1149E2980";
paths = (
{
closed = 1;
nodes = (
"213 -10 OFFCURVE",
"248 -3 OFFCURVE",
"277 8 CURVE",
"251 120 LINE",
"241 116 OFFCURVE",
"228 113 OFFCURVE",
"220 113 CURVE SMOOTH",
"201 113 OFFCURVE",
"192 129 OFFCURVE",
"192 159 CURVE SMOOTH",
"192 193 OFFCURVE",
"204 209 OFFCURVE",
"223 209 CURVE SMOOTH",
"267 209 LINE",
"267 304 LINE",
"223 304 LINE SMOOTH",
"200 304 OFFCURVE",
"192 328 OFFCURVE",
"192 350 CURVE SMOOTH",
"192 392 OFFCURVE",
"221 406 OFFCURVE",
"244 406 CURVE SMOOTH",
"275 406 OFFCURVE",
"297 381 OFFCURVE",
"297 339 CURVE SMOOTH",
"297 0 LINE",
"459 0 LINE",
"459 329 LINE SMOOTH",
"459 471 OFFCURVE",
"382 530 OFFCURVE",
"247 530 CURVE SMOOTH",
"109 530 OFFCURVE",
"34 468 OFFCURVE",
"34 373 CURVE SMOOTH",
"34 318 OFFCURVE",
"59 277 OFFCURVE",
"102 258 CURVE",
"102 256 LINE",
"52 233 OFFCURVE",
"34 184 OFFCURVE",
"34 134 CURVE SMOOTH",
"34 60 OFFCURVE",
"74 -10 OFFCURVE",
"180 -10 CURVE SMOOTH"
);
}
);
width = 505;
}
);
note = uni0E84;
unicode = 0E84;
},
{
glyphname = "ngoNgu-lao";
lastChange = "2017-06-02 13:33:53 +0000";
layers = (
{
anchors = (
{
name = bottom;
position = "{277, -103}";
},
{
name = top;
position = "{287, 504}";
},
{
name = top2;
position = "{169, 504}";
}
);
layerId = "64BC062E-13E4-450B-B24E-D8A474022433";
paths = (
{
closed = 1;
nodes = (
"231 -99 OFFCURVE",
"287 -54 OFFCURVE",
"287 47 CURVE SMOOTH",
"287 428 LINE SMOOTH",
"287 487 OFFCURVE",
"242 523 OFFCURVE",
"169 523 CURVE SMOOTH",
"133 523 OFFCURVE",
"92 514 OFFCURVE",
"56 494 CURVE",
"65 471 LINE",
"96 490 OFFCURVE",
"133 498 OFFCURVE",
"166 498 CURVE SMOOTH",
"226 498 OFFCURVE",
"261 472 OFFCURVE",
"261 428 CURVE SMOOTH",
"261 54 LINE SMOOTH",
"261 -31 OFFCURVE",
"230 -74 OFFCURVE",
"137 -74 CURVE SMOOTH",
"102 -74 OFFCURVE",
"59 -68 OFFCURVE",
"25 -55 CURVE",
"25 -81 LINE",
"52 -91 OFFCURVE",
"102 -99 OFFCURVE",
"140 -99 CURVE SMOOTH"
);
}
);
width = 372;
},
{
anchors = (
{
name = bottom;
position = "{271, -103}";
},
{
name = top;
position = "{281, 504}";
},
{
name = top2;
position = "{153, 504}";
}
);
layerId = "6449CA81-A7C3-4005-93E5-765657812F1B";
paths = (
{
closed = 1;
nodes = (
"218 -103 OFFCURVE",
"281 -52 OFFCURVE",
"281 55 CURVE SMOOTH",
"281 422 LINE SMOOTH",
"281 488 OFFCURVE",
"228 526 OFFCURVE",
"143 526 CURVE SMOOTH",
"103 526 OFFCURVE",
"62 518 OFFCURVE",
"26 502 CURVE",
"45 439 LINE",
"66 448 OFFCURVE",
"94 454 OFFCURVE",
"119 454 CURVE SMOOTH",
"166 454 OFFCURVE",
"193 434 OFFCURVE",
"193 398 CURVE SMOOTH",
"193 62 LINE SMOOTH",
"193 2 OFFCURVE",
"166 -30 OFFCURVE",
"96 -30 CURVE SMOOTH",
"51 -30 OFFCURVE",
"10 -17 OFFCURVE",
"-28 2 CURVE",
"-28 -74 LINE",
"0 -87 OFFCURVE",
"50 -103 OFFCURVE",
"110 -103 CURVE SMOOTH"
);
}
);
width = 363;
},
{
anchors = (
{
name = bottom;
position = "{353, -103}";
},
{
name = top;
position = "{363, 505}";
},
{
name = top2;
position = "{194, 505}";
}
);
layerId = "E5D3352E-10FF-4C03-AD9F-F95B1FD01257";
paths = (
{
closed = 1;
nodes = (
"290 -103 OFFCURVE",
"363 -47 OFFCURVE",
"363 61 CURVE SMOOTH",
"363 383 LINE SMOOTH",
"363 484 OFFCURVE",
"274 531 OFFCURVE",
"173 531 CURVE SMOOTH",
"120 531 OFFCURVE",
"63 518 OFFCURVE",
"14 489 CURVE",
"43 374 LINE",
"59 381 OFFCURVE",
"82 387 OFFCURVE",
"104 387 CURVE SMOOTH",
"139 387 OFFCURVE",
"171 373 OFFCURVE",
"171 341 CURVE SMOOTH",
"171 74 LINE SMOOTH",
"171 29 OFFCURVE",
"137 12 OFFCURVE",
"90 12 CURVE SMOOTH",
"57 12 OFFCURVE",
"14 20 OFFCURVE",
"-18 32 CURVE",
"-18 -74 LINE",
"36 -97 OFFCURVE",
"100 -103 OFFCURVE",
"147 -103 CURVE SMOOTH"
);
}
);
width = 408;
},
{
anchors = (
{
name = bottom;
position = "{193, -103}";
},
{
name = top;
position = "{200, 504}";
},
{
name = top2;
position = "{116, 504}";
}
);
layerId = "DDDB2E70-9881-4210-B3C5-A030831183E9";
paths = (
{
closed = 1;
nodes = (
"160 -99 OFFCURVE",
"200 -54 OFFCURVE",
"200 47 CURVE SMOOTH",
"200 428 LINE SMOOTH",
"200 487 OFFCURVE",
"168 523 OFFCURVE",
"115 523 CURVE SMOOTH",
"89 523 OFFCURVE",
"61 514 OFFCURVE",
"36 494 CURVE",
"43 471 LINE",
"64 490 OFFCURVE",
"88 498 OFFCURVE",
"110 498 CURVE SMOOTH",
"151 498 OFFCURVE",
"174 472 OFFCURVE",
"174 428 CURVE SMOOTH",
"174 54 LINE SMOOTH",
"174 -32 OFFCURVE",
"153 -74 OFFCURVE",
"90 -74 CURVE SMOOTH",
"66 -74 OFFCURVE",
"35 -68 OFFCURVE",
"11 -55 CURVE",
"11 -81 LINE",
"30 -91 OFFCURVE",
"65 -99 OFFCURVE",
"93 -99 CURVE SMOOTH"
);
}
);
width = 259;
},
{
anchors = (
{
name = bottom;
position = "{211, -103}";
},
{
name = top;
position = "{218, 504}";
},
{
name = top2;
position = "{119, 504}";
}
);
layerId = "3A4E24C5-56F7-4F8A-8FFD-B2AF7CE4A726";
paths = (
{
closed = 1;
nodes = (
"173 -103 OFFCURVE",
"218 -51 OFFCURVE",
"218 54 CURVE SMOOTH",
"218 423 LINE SMOOTH",
"218 488 OFFCURVE",
"173 526 OFFCURVE",
"109 526 CURVE SMOOTH",
"79 526 OFFCURVE",
"45 518 OFFCURVE",
"17 502 CURVE",
"33 445 LINE",
"45 451 OFFCURVE",
"66 458 OFFCURVE",
"84 458 CURVE SMOOTH",
"115 458 OFFCURVE",
"136 438 OFFCURVE",
"136 401 CURVE SMOOTH",
"136 61 LINE SMOOTH",
"136 -2 OFFCURVE",
"115 -34 OFFCURVE",
"69 -34 CURVE SMOOTH",
"43 -34 OFFCURVE",
"13 -24 OFFCURVE",
"-12 -10 CURVE",
"-12 -78 LINE",
"23 -97 OFFCURVE",
"56 -103 OFFCURVE",
"86 -103 CURVE SMOOTH"
);
}
);
width = 266;
},
{
anchors = (
{
name = bottom;
position = "{302, -103}";
},
{
name = top;
position = "{310, 505}";
},
{
name = top2;
position = "{171, 505}";
}
);
layerId = "A6C8CBD9-95C8-4E45-A197-88A1149E2980";
paths = (
{
closed = 1;
nodes = (
"248 -103 OFFCURVE",
"310 -52 OFFCURVE",
"310 52 CURVE SMOOTH",
"310 394 LINE SMOOTH",
"310 485 OFFCURVE",
"236 530 OFFCURVE",
"153 530 CURVE SMOOTH",
"110 530 OFFCURVE",
"63 518 OFFCURVE",
"23 493 CURVE",
"47 393 LINE",
"59 400 OFFCURVE",
"77 406 OFFCURVE",
"95 406 CURVE SMOOTH",
"122 406 OFFCURVE",
"148 391 OFFCURVE",
"148 357 CURVE SMOOTH",
"148 58 LINE SMOOTH",
"148 18 OFFCURVE",
"120 0 OFFCURVE",
"84 0 CURVE SMOOTH",
"59 0 OFFCURVE",
"24 9 OFFCURVE",
"-1 23 CURVE",
"-1 -74 LINE",
"44 -94 OFFCURVE",
"94 -103 OFFCURVE",
"140 -103 CURVE SMOOTH"
);
}
);
width = 356;
}
);
note = uni0E87;
unicode = 0E87;
},
{
glyphname = "coCok-lao";
lastChange = "2017-06-02 13:33:53 +0000";
layers = (
{
anchors = (
{
name = bottom;
position = "{445, 0}";
},
{
name = top;
position = "{445, 504}";
},
{
name = top2;
position = "{269, 504}";
}
);
layerId = "64BC062E-13E4-450B-B24E-D8A474022433";
paths = (
{
closed = 1;
nodes = (
"256 0 LINE SMOOTH",
"420 0 OFFCURVE",
"474 86 OFFCURVE",
"474 251 CURVE SMOOTH",
"474 437 OFFCURVE",
"406 523 OFFCURVE",
"235 523 CURVE SMOOTH",
"166 523 OFFCURVE",
"104 509 OFFCURVE",
"65 492 CURVE",
"65 466 LINE",
"113 486 OFFCURVE",
"169 498 OFFCURVE",
"234 498 CURVE SMOOTH",
"392 498 OFFCURVE",
"447 425 OFFCURVE",
"447 256 CURVE SMOOTH",
"447 87 OFFCURVE",
"392 22 OFFCURVE",
"246 22 CURVE",
"214 215 LINE SMOOTH",
"206 264 OFFCURVE",
"180 286 OFFCURVE",
"137 286 CURVE SMOOTH",
"118 286 OFFCURVE",
"100 282 OFFCURVE",
"89 277 CURVE",
"93 255 LINE",
"102 259 OFFCURVE",
"119 262 OFFCURVE",
"135 262 CURVE SMOOTH",
"176 262 OFFCURVE",
"184 241 OFFCURVE",
"190 206 CURVE SMOOTH",
"224 0 LINE"
);
}
);
width = 539;
},
{
anchors = (
{
name = bottom;
position = "{465, 0}";
},
{
name = top;
position = "{465, 504}";
},
{
name = top2;
position = "{254, 504}";
}
);
layerId = "6449CA81-A7C3-4005-93E5-765657812F1B";
paths = (
{
closed = 1;
nodes = (
"251 0 LINE SMOOTH",
"424 0 OFFCURVE",
"485 96 OFFCURVE",
"485 257 CURVE SMOOTH",
"485 431 OFFCURVE",
"413 526 OFFCURVE",
"234 526 CURVE SMOOTH",
"154 526 OFFCURVE",
"85 507 OFFCURVE",
"47 488 CURVE",
"47 411 LINE",
"101 441 OFFCURVE",
"162 454 OFFCURVE",
"223 454 CURVE SMOOTH",
"347 454 OFFCURVE",
"397 399 OFFCURVE",
"397 260 CURVE SMOOTH",
"397 128 OFFCURVE",
"352 73 OFFCURVE",
"266 72 CURVE",
"244 207 LINE SMOOTH",
"231 286 OFFCURVE",
"194 306 OFFCURVE",
"140 306 CURVE SMOOTH",
"117 306 OFFCURVE",
"91 302 OFFCURVE",
"68 292 CURVE",
"82 229 LINE",
"91 232 OFFCURVE",
"105 234 OFFCURVE",
"117 234 CURVE SMOOTH",
"143 234 OFFCURVE",
"158 225 OFFCURVE",
"163 195 CURVE SMOOTH",
"195 0 LINE"
);
}
);
width = 557;
},
{
anchors = (
{
name = bottom;
position = "{516, 0}";
},
{
name = top;
position = "{516, 505}";
},
{
name = top2;
position = "{275, 505}";
}
);
layerId = "E5D3352E-10FF-4C03-AD9F-F95B1FD01257";
paths = (
{
closed = 1;
nodes = (
"260 0 LINE SMOOTH",
"439 0 OFFCURVE",
"532 88 OFFCURVE",
"532 264 CURVE SMOOTH",
"532 441 OFFCURVE",
"438 531 OFFCURVE",
"241 531 CURVE SMOOTH",
"166 531 OFFCURVE",
"90 518 OFFCURVE",
"25 491 CURVE",
"25 355 LINE",
"86 378 OFFCURVE",
"158 387 OFFCURVE",
"203 387 CURVE SMOOTH",
"298 387 OFFCURVE",
"340 346 OFFCURVE",
"340 266 CURVE SMOOTH",
"340 225 OFFCURVE",
"329 167 OFFCURVE",
"308 132 CURVE",
"297 197 LINE SMOOTH",
"284 275 OFFCURVE",
"238 319 OFFCURVE",
"161 319 CURVE SMOOTH",
"123 319 OFFCURVE",
"76 308 OFFCURVE",
"39 283 CURVE",
"65 171 LINE",
"76 176 OFFCURVE",
"90 177 OFFCURVE",
"97 177 CURVE SMOOTH",
"120 177 OFFCURVE",
"130 167 OFFCURVE",
"135 144 CURVE SMOOTH",
"165 0 LINE"
);
}
);
width = 571;
},
{
anchors = (
{
name = bottom;
position = "{314, 0}";
},
{
name = top;
position = "{314, 504}";
},
{
name = top2;
position = "{186, 504}";
}
);
layerId = "DDDB2E70-9881-4210-B3C5-A030831183E9";
paths = (
{
closed = 1;
nodes = (
"178 0 LINE SMOOTH",
"294 0 OFFCURVE",
"333 86 OFFCURVE",
"333 252 CURVE SMOOTH",
"333 437 OFFCURVE",
"285 523 OFFCURVE",
"163 523 CURVE SMOOTH",
"114 523 OFFCURVE",
"70 509 OFFCURVE",
"43 492 CURVE",
"43 466 LINE",
"77 486 OFFCURVE",
"117 498 OFFCURVE",
"161 498 CURVE SMOOTH",
"269 498 OFFCURVE",
"306 425 OFFCURVE",
"306 256 CURVE SMOOTH",
"306 87 OFFCURVE",
"269 22 OFFCURVE",
"175 22 CURVE",
"153 215 LINE SMOOTH",
"147 264 OFFCURVE",
"128 286 OFFCURVE",
"96 286 CURVE SMOOTH",
"82 286 OFFCURVE",
"69 282 OFFCURVE",
"59 277 CURVE",
"63 255 LINE",
"70 259 OFFCURVE",
"81 262 OFFCURVE",
"92 262 CURVE SMOOTH",
"119 262 OFFCURVE",
"126 241 OFFCURVE",
"130 206 CURVE SMOOTH",
"154 0 LINE"
);
}
);
width = 379;
},
{
anchors = (
{
name = bottom;
position = "{336, 0}";
},
{
name = top;
position = "{336, 504}";
},
{
name = top2;
position = "{185, 504}";
}
);
layerId = "3A4E24C5-56F7-4F8A-8FFD-B2AF7CE4A726";
paths = (
{
closed = 1;
nodes = (
"178 0 LINE SMOOTH",
"301 0 OFFCURVE",
"350 96 OFFCURVE",
"350 259 CURVE SMOOTH",
"350 431 OFFCURVE",
"295 526 OFFCURVE",
"165 526 CURVE SMOOTH",
"112 526 OFFCURVE",
"63 510 OFFCURVE",
"29 491 CURVE",
"29 422 LINE",
"67 446 OFFCURVE",
"114 458 OFFCURVE",
"152 458 CURVE SMOOTH",
"236 458 OFFCURVE",
"268 403 OFFCURVE",
"268 255 CURVE SMOOTH",
"268 128 OFFCURVE",
"244 67 OFFCURVE",
"195 67 CURVE",
"181 208 LINE SMOOTH",
"173 284 OFFCURVE",
"146 304 OFFCURVE",
"103 304 CURVE SMOOTH",
"83 304 OFFCURVE",
"61 300 OFFCURVE",
"42 291 CURVE",
"54 232 LINE",
"61 235 OFFCURVE",
"71 237 OFFCURVE",
"79 237 CURVE SMOOTH",
"97 237 OFFCURVE",
"107 225 OFFCURVE",
"110 196 CURVE SMOOTH",
"132 0 LINE"
);
}
);
width = 391;
},
{
anchors = (
{
name = bottom;
position = "{430, 0}";
},
{
name = top;
position = "{430, 505}";
},
{
name = top2;
position = "{234, 505}";
}
);
layerId = "A6C8CBD9-95C8-4E45-A197-88A1149E2980";
paths = (
{
closed = 1;
nodes = (
"222 0 LINE SMOOTH",
"365 0 OFFCURVE",
"442 90 OFFCURVE",
"442 263 CURVE SMOOTH",
"442 437 OFFCURVE",
"364 530 OFFCURVE",
"208 530 CURVE SMOOTH",
"146 530 OFFCURVE",
"85 515 OFFCURVE",
"31 490 CURVE",
"31 371 LINE",
"80 396 OFFCURVE",
"139 406 OFFCURVE",
"174 406 CURVE SMOOTH",
"253 406 OFFCURVE",
"280 357 OFFCURVE",
"280 254 CURVE SMOOTH",
"280 205 OFFCURVE",
"274 138 OFFCURVE",
"263 115 CURVE",
"254 200 LINE SMOOTH",
"246 278 OFFCURVE",
"207 315 OFFCURVE",
"143 315 CURVE SMOOTH",
"112 315 OFFCURVE",
"72 306 OFFCURVE",
"42 286 CURVE",
"63 188 LINE",
"72 192 OFFCURVE",
"84 193 OFFCURVE",
"89 193 CURVE SMOOTH",
"107 193 OFFCURVE",
"115 184 OFFCURVE",
"119 159 CURVE SMOOTH",
"143 0 LINE"
);
}
);
width = 484;
}
);
note = uni0E88;
unicode = 0E88;
},
{
glyphname = "soSang-lao";
lastChange = "2017-06-02 13:33:53 +0000";
layers = (
{
anchors = (
{
name = bottom;
position = "{356, 0}";
},
{
name = top;
position = "{465, 504}";
},
{
name = top2;
position = "{288, 504}";
}
);
layerId = "64BC062E-13E4-450B-B24E-D8A474022433";
paths = (
{
closed = 1;
nodes = (
"473 -139 LINE",
"473 21 LINE SMOOTH",
"473 69 OFFCURVE",
"446 88 OFFCURVE",
"406 88 CURVE SMOOTH",
"327 88 OFFCURVE",
"259 14 OFFCURVE",
"173 14 CURVE SMOOTH",
"121 14 OFFCURVE",
"93 41 OFFCURVE",
"93 92 CURVE SMOOTH",
"93 168 OFFCURVE",
"158 187 OFFCURVE",
"269 219 CURVE SMOOTH",
"388 253 OFFCURVE",
"472 281 OFFCURVE",
"472 377 CURVE SMOOTH",
"472 458 OFFCURVE",
"413 523 OFFCURVE",
"268 523 CURVE SMOOTH",
"119 523 OFFCURVE",
"65 454 OFFCURVE",
"65 385 CURVE SMOOTH",
"65 369 OFFCURVE",
"68 345 OFFCURVE",
"75 333 CURVE",
"100 343 LINE",
"95 354 OFFCURVE",
"93 372 OFFCURVE",
"93 385 CURVE SMOOTH",
"93 463 OFFCURVE",
"167 498 OFFCURVE",
"269 498 CURVE SMOOTH",
"374 498 OFFCURVE",
"444 461 OFFCURVE",
"444 376 CURVE SMOOTH",
"444 299 OFFCURVE",
"386 280 OFFCURVE",
"262 243 CURVE SMOOTH",
"139 206 OFFCURVE",
"65 183 OFFCURVE",
"65 93 CURVE SMOOTH",
"65 19 OFFCURVE",
"115 -10 OFFCURVE",
"174 -10 CURVE SMOOTH",
"268 -10 OFFCURVE",
"333 63 OFFCURVE",
"406 63 CURVE SMOOTH",
"437 63 OFFCURVE",
"447 50 OFFCURVE",
"447 20 CURVE SMOOTH",
"447 -139 LINE"
);
}
);
width = 538;
},
{
anchors = (
{
name = bottom;
position = "{405, 0}";
},
{
name = top;
position = "{517, 504}";
},
{
name = top2;
position = "{317, 504}";
}
);
layerId = "6449CA81-A7C3-4005-93E5-765657812F1B";
paths = (
{
closed = 1;
nodes = (
"536 -165 LINE",
"536 24 LINE SMOOTH",
"536 100 OFFCURVE",
"487 127 OFFCURVE",
"434 127 CURVE SMOOTH",
"351 127 OFFCURVE",
"270 59 OFFCURVE",
"208 59 CURVE SMOOTH",
"173 59 OFFCURVE",
"153 81 OFFCURVE",
"153 106 CURVE SMOOTH",
"153 158 OFFCURVE",
"235 177 OFFCURVE",
"312 200 CURVE SMOOTH",
"431 235 OFFCURVE",
"535 271 OFFCURVE",
"535 369 CURVE SMOOTH",
"535 452 OFFCURVE",
"462 526 OFFCURVE",
"303 526 CURVE SMOOTH",
"141 526 OFFCURVE",
"73 450 OFFCURVE",
"73 370 CURVE SMOOTH",
"73 340 OFFCURVE",
"82 310 OFFCURVE",
"104 292 CURVE",
"174 327 LINE",
"164 338 OFFCURVE",
"157 349 OFFCURVE",
"157 368 CURVE SMOOTH",
"157 427 OFFCURVE",
"223 455 OFFCURVE",
"304 455 CURVE SMOOTH",
"384 455 OFFCURVE",
"450 428 OFFCURVE",
"450 370 CURVE SMOOTH",
"450 312 OFFCURVE",
"381 295 OFFCURVE",
"288 268 CURVE SMOOTH",
"184 238 OFFCURVE",
"68 206 OFFCURVE",
"68 103 CURVE SMOOTH",
"68 25 OFFCURVE",
"133 -10 OFFCURVE",
"203 -10 CURVE SMOOTH",
"299 -10 OFFCURVE",
"365 54 OFFCURVE",
"416 54 CURVE SMOOTH",
"437 54 OFFCURVE",
"449 44 OFFCURVE",
"449 20 CURVE SMOOTH",
"449 -165 LINE"
);
}
);
width = 609;
},
{
anchors = (
{
name = bottom;
position = "{334, 0}";
},
{
name = top;
position = "{539, 505}";
},
{
name = top2;
position = "{313, 505}";
}
);
layerId = "E5D3352E-10FF-4C03-AD9F-F95B1FD01257";
paths = (
{
closed = 1;
nodes = (
"549 -182 LINE",
"549 57 LINE SMOOTH",
"549 135 OFFCURVE",
"523 186 OFFCURVE",
"434 186 CURVE SMOOTH",
"344 186 OFFCURVE",
"261 134 OFFCURVE",
"226 134 CURVE SMOOTH",
"217 134 OFFCURVE",
"213 137 OFFCURVE",
"213 141 CURVE SMOOTH",
"213 154 OFFCURVE",
"259 165 OFFCURVE",
"346 201 CURVE SMOOTH",
"487 259 OFFCURVE",
"549 297 OFFCURVE",
"549 381 CURVE SMOOTH",
"549 467 OFFCURVE",
"483 531 OFFCURVE",
"300 531 CURVE SMOOTH",
"122 531 OFFCURVE",
"35 471 OFFCURVE",
"35 380 CURVE SMOOTH",
"35 327 OFFCURVE",
"65 282 OFFCURVE",
"97 265 CURVE",
"235 335 LINE",
"226 344 OFFCURVE",
"221 354 OFFCURVE",
"221 364 CURVE SMOOTH",
"221 386 OFFCURVE",
"246 400 OFFCURVE",
"296 400 CURVE SMOOTH",
"345 400 OFFCURVE",
"361 387 OFFCURVE",
"361 372 CURVE SMOOTH",
"361 352 OFFCURVE",
"333 345 OFFCURVE",
"217 292 CURVE SMOOTH",
"97 237 OFFCURVE",
"25 200 OFFCURVE",
"25 110 CURVE SMOOTH",
"25 22 OFFCURVE",
"94 -10 OFFCURVE",
"179 -10 CURVE SMOOTH",
"272 -10 OFFCURVE",
"334 28 OFFCURVE",
"371 28 CURVE SMOOTH",
"386 28 OFFCURVE",
"392 22 OFFCURVE",
"392 10 CURVE SMOOTH",
"392 -182 LINE"
);
}
);
width = 589;
},
{
anchors = (
{
name = bottom;
position = "{255, 0}";
},
{
name = top;
position = "{332, 504}";
},
{
name = top2;
position = "{205, 504}";
}
);
layerId = "DDDB2E70-9881-4210-B3C5-A030831183E9";
paths = (
{
closed = 1;
nodes = (
"339 -139 LINE",
"339 21 LINE SMOOTH",
"339 69 OFFCURVE",
"317 88 OFFCURVE",
"288 88 CURVE SMOOTH",
"232 88 OFFCURVE",
"183 14 OFFCURVE",
"126 14 CURVE SMOOTH",
"91 14 OFFCURVE",
"73 42 OFFCURVE",
"73 91 CURVE SMOOTH",
"73 168 OFFCURVE",
"118 186 OFFCURVE",
"194 219 CURVE SMOOTH",
"279 256 OFFCURVE",
"338 282 OFFCURVE",
"338 377 CURVE SMOOTH",
"338 458 OFFCURVE",
"295 523 OFFCURVE",
"192 523 CURVE SMOOTH",
"86 523 OFFCURVE",
"47 454 OFFCURVE",
"47 385 CURVE SMOOTH",
"47 369 OFFCURVE",
"49 345 OFFCURVE",
"56 333 CURVE",
"79 343 LINE",
"75 354 OFFCURVE",
"73 371 OFFCURVE",
"73 386 CURVE SMOOTH",
"73 462 OFFCURVE",
"124 498 OFFCURVE",
"193 498 CURVE SMOOTH",
"263 498 OFFCURVE",
"312 461 OFFCURVE",
"312 377 CURVE SMOOTH",
"312 299 OFFCURVE",
"269 280 OFFCURVE",
"187 243 CURVE SMOOTH",
"104 206 OFFCURVE",
"46 183 OFFCURVE",
"46 92 CURVE SMOOTH",
"46 20 OFFCURVE",
"83 -10 OFFCURVE",
"126 -10 CURVE SMOOTH",
"192 -10 OFFCURVE",
"237 63 OFFCURVE",
"286 63 CURVE SMOOTH",
"306 63 OFFCURVE",
"313 50 OFFCURVE",
"313 20 CURVE SMOOTH",
"313 -139 LINE"
);
}
);
width = 386;
},
{
anchors = (
{
name = bottom;
position = "{260, 0}";
},
{
name = top;
position = "{362, 504}";
},
{
name = top2;
position = "{218, 504}";
}
);
layerId = "3A4E24C5-56F7-4F8A-8FFD-B2AF7CE4A726";
paths = (
{
closed = 1;
nodes = (
"372 -162 LINE",
"372 22 LINE SMOOTH",
"372 95 OFFCURVE",
"345 123 OFFCURVE",
"302 123 CURVE SMOOTH",
"236 123 OFFCURVE",
"186 55 OFFCURVE",
"148 55 CURVE SMOOTH",
"126 55 OFFCURVE",
"116 77 OFFCURVE",
"116 103 CURVE SMOOTH",
"116 159 OFFCURVE",
"160 176 OFFCURVE",
"223 202 CURVE SMOOTH",
"310 238 OFFCURVE",
"372 272 OFFCURVE",
"372 369 CURVE SMOOTH",
"372 454 OFFCURVE",
"324 526 OFFCURVE",
"209 526 CURVE SMOOTH",
"91 526 OFFCURVE",
"40 450 OFFCURVE",
"40 376 CURVE SMOOTH",
"40 342 OFFCURVE",
"51 314 OFFCURVE",
"68 297 CURVE",
"130 329 LINE",
"123 340 OFFCURVE",
"120 352 OFFCURVE",
"120 370 CURVE SMOOTH",
"120 432 OFFCURVE",
"157 459 OFFCURVE",
"207 459 CURVE SMOOTH",
"258 459 OFFCURVE",
"291 432 OFFCURVE",
"291 371 CURVE SMOOTH",
"291 310 OFFCURVE",
"259 296 OFFCURVE",
"181 265 CURVE SMOOTH",
"100 233 OFFCURVE",
"36 204 OFFCURVE",
"36 106 CURVE SMOOTH",
"36 23 OFFCURVE",
"81 -10 OFFCURVE",
"131 -10 CURVE SMOOTH",
"202 -10 OFFCURVE",
"241 55 OFFCURVE",
"278 55 CURVE SMOOTH",
"293 55 OFFCURVE",
"299 44 OFFCURVE",
"299 19 CURVE SMOOTH",
"299 -162 LINE"
);
}
);
width = 414;
},
{
anchors = (
{
name = bottom;
position = "{275, 0}";
},
{
name = top;
position = "{446, 505}";
},
{
name = top2;
position = "{264, 505}";
}
);
layerId = "A6C8CBD9-95C8-4E45-A197-88A1149E2980";
paths = (
{
closed = 1;
nodes = (
"454 -178 LINE",
"454 47 LINE SMOOTH",
"454 123 OFFCURVE",
"435 169 OFFCURVE",
"364 169 CURVE SMOOTH",
"284 169 OFFCURVE",
"248 112 OFFCURVE",
"212 112 CURVE SMOOTH",
"200 112 OFFCURVE",
"189 118 OFFCURVE",
"189 130 CURVE SMOOTH",
"189 152 OFFCURVE",
"227 170 OFFCURVE",
"293 201 CURVE SMOOTH",
"410 256 OFFCURVE",
"454 289 OFFCURVE",
"454 373 CURVE SMOOTH",
"454 463 OFFCURVE",
"402 530 OFFCURVE",
"255 530 CURVE SMOOTH",
"111 530 OFFCURVE",
"38 465 OFFCURVE",
"38 380 CURVE SMOOTH",
"38 331 OFFCURVE",
"62 292 OFFCURVE",
"91 273 CURVE",
"206 333 LINE",
"199 343 OFFCURVE",
"195 355 OFFCURVE",
"195 368 CURVE SMOOTH",
"195 397 OFFCURVE",
"215 416 OFFCURVE",
"248 416 CURVE SMOOTH",
"277 416 OFFCURVE",
"295 401 OFFCURVE",
"295 373 CURVE SMOOTH",
"295 344 OFFCURVE",
"276 334 OFFCURVE",
"181 283 CURVE SMOOTH",
"74 225 OFFCURVE",
"30 196 OFFCURVE",
"30 114 CURVE SMOOTH",
"30 22 OFFCURVE",
"85 -10 OFFCURVE",
"152 -10 CURVE SMOOTH",
"233 -10 OFFCURVE",
"275 37 OFFCURVE",
"308 37 CURVE SMOOTH",
"320 37 OFFCURVE",
"322 30 OFFCURVE",
"322 14 CURVE SMOOTH",
"322 -178 LINE"
);
}
);
width = 496;
}
);
note = uni0E8A;
unicode = 0E8A;
},
{
glyphname = "nyoNyung-lao";
lastChange = "2017-06-02 13:33:53 +0000";
layers = (
{
anchors = (
{
name = bottom;
position = "{460, 0}";
},
{
name = top;
position = "{470, 504}";
},
{
name = top2;
position = "{307, 504}";
}
);
layerId = "64BC062E-13E4-450B-B24E-D8A474022433";
paths = (
{
closed = 1;
nodes = (
"385 -10 OFFCURVE",
"470 41 OFFCURVE",
"470 164 CURVE SMOOTH",
"470 515 LINE",
"444 515 LINE",
"444 158 LINE SMOOTH",
"444 49 OFFCURVE",
"360 14 OFFCURVE",
"269 14 CURVE SMOOTH",
"176 14 OFFCURVE",
"95 51 OFFCURVE",
"95 145 CURVE SMOOTH",
"95 220 OFFCURVE",
"145 262 OFFCURVE",
"226 262 CURVE SMOOTH",
"264 262 LINE",
"264 284 LINE",
"226 284 LINE SMOOTH",
"166 284 OFFCURVE",
"92 313 OFFCURVE",
"92 397 CURVE SMOOTH",
"92 465 OFFCURVE",
"140 498 OFFCURVE",
"204 498 CURVE SMOOTH",
"234 498 OFFCURVE",
"262 491 OFFCURVE",
"276 488 CURVE",
"281 512 LINE",
"261 518 OFFCURVE",
"231 523 OFFCURVE",
"204 523 CURVE SMOOTH",
"122 523 OFFCURVE",
"65 477 OFFCURVE",
"65 397 CURVE SMOOTH",
"65 318 OFFCURVE",
"119 287 OFFCURVE",
"155 274 CURVE",
"155 270 LINE",
"121 257 OFFCURVE",
"68 229 OFFCURVE",
"68 146 CURVE SMOOTH",
"68 47 OFFCURVE",
"144 -10 OFFCURVE",
"268 -10 CURVE SMOOTH"
);
}
);
width = 555;
},
{
anchors = (
{
name = bottom;
position = "{516, 0}";
},
{
name = top;
position = "{526, 504}";
},
{
name = top2;
position = "{323, 504}";
}
);
layerId = "6449CA81-A7C3-4005-93E5-765657812F1B";
paths = (
{
closed = 1;
nodes = (
"447 -10 OFFCURVE",
"526 46 OFFCURVE",
"526 179 CURVE SMOOTH",
"526 516 LINE",
"438 516 LINE",
"438 169 LINE SMOOTH",
"438 93 OFFCURVE",
"396 62 OFFCURVE",
"300 62 CURVE SMOOTH",
"198 62 OFFCURVE",
"156 97 OFFCURVE",
"156 159 CURVE SMOOTH",
"156 219 OFFCURVE",
"195 246 OFFCURVE",
"272 246 CURVE SMOOTH",
"321 246 LINE",
"321 309 LINE",
"272 309 LINE SMOOTH",
"215 309 OFFCURVE",
"156 324 OFFCURVE",
"156 386 CURVE SMOOTH",
"156 428 OFFCURVE",
"184 454 OFFCURVE",
"239 454 CURVE SMOOTH",
"263 454 OFFCURVE",
"288 449 OFFCURVE",
"303 444 CURVE",
"318 511 LINE",
"298 520 OFFCURVE",
"262 526 OFFCURVE",
"227 526 CURVE SMOOTH",
"112 526 OFFCURVE",
"68 461 OFFCURVE",
"68 395 CURVE SMOOTH",
"68 324 OFFCURVE",
"120 290 OFFCURVE",
"161 278 CURVE",
"161 274 LINE",
"115 267 OFFCURVE",
"68 232 OFFCURVE",
"68 153 CURVE SMOOTH",
"68 50 OFFCURVE",
"146 -10 OFFCURVE",
"299 -10 CURVE SMOOTH"
);
}
);
width = 608;
},
{
anchors = (
{
name = bottom;
position = "{539, 0}";
},
{
name = top;
position = "{549, 505}";
},
{
name = top2;
position = "{320, 505}";
}
);
layerId = "E5D3352E-10FF-4C03-AD9F-F95B1FD01257";
paths = (
{
closed = 1;
nodes = (
"455 -10 OFFCURVE",
"549 50 OFFCURVE",
"549 196 CURVE SMOOTH",
"549 521 LINE",
"357 521 LINE",
"357 185 LINE SMOOTH",
"357 156 OFFCURVE",
"328 134 OFFCURVE",
"281 134 CURVE SMOOTH",
"247 134 OFFCURVE",
"213 145 OFFCURVE",
"213 172 CURVE SMOOTH",
"213 189 OFFCURVE",
"226 208 OFFCURVE",
"258 208 CURVE SMOOTH",
"310 208 LINE",
"310 317 LINE",
"258 317 LINE SMOOTH",
"231 317 OFFCURVE",
"213 330 OFFCURVE",
"213 355 CURVE SMOOTH",
"213 376 OFFCURVE",
"225 387 OFFCURVE",
"251 387 CURVE SMOOTH",
"263 387 OFFCURVE",
"280 385 OFFCURVE",
"293 381 CURVE",
"324 512 LINE",
"289 524 OFFCURVE",
"246 531 OFFCURVE",
"206 531 CURVE SMOOTH",
"75 531 OFFCURVE",
"25 459 OFFCURVE",
"25 388 CURVE SMOOTH",
"25 344 OFFCURVE",
"44 291 OFFCURVE",
"111 262 CURVE",
"111 260 LINE",
"57 240 OFFCURVE",
"25 200 OFFCURVE",
"25 146 CURVE SMOOTH",
"25 54 OFFCURVE",
"116 -10 OFFCURVE",
"288 -10 CURVE SMOOTH"
);
}
);
width = 594;
},
{
anchors = (
{
name = bottom;
position = "{329, 0}";
},
{
name = top;
position = "{336, 504}";
},
{
name = top2;
position = "{217, 504}";
}
);
layerId = "DDDB2E70-9881-4210-B3C5-A030831183E9";
paths = (
{
closed = 1;
nodes = (
"277 -10 OFFCURVE",
"336 41 OFFCURVE",
"336 164 CURVE SMOOTH",
"336 515 LINE",
"310 515 LINE",
"310 158 LINE SMOOTH",
"310 49 OFFCURVE",
"257 14 OFFCURVE",
"192 14 CURVE SMOOTH",
"126 14 OFFCURVE",
"74 51 OFFCURVE",
"74 145 CURVE SMOOTH",
"74 220 OFFCURVE",
"108 262 OFFCURVE",
"164 262 CURVE SMOOTH",
"192 262 LINE",
"192 284 LINE",
"164 284 LINE SMOOTH",
"122 284 OFFCURVE",
"73 313 OFFCURVE",
"73 398 CURVE SMOOTH",
"73 465 OFFCURVE",
"104 498 OFFCURVE",
"148 498 CURVE SMOOTH",
"168 498 OFFCURVE",
"187 491 OFFCURVE",
"197 488 CURVE",
"201 512 LINE",
"187 518 OFFCURVE",
"166 523 OFFCURVE",
"146 523 CURVE SMOOTH",
"84 523 OFFCURVE",
"46 477 OFFCURVE",
"46 397 CURVE SMOOTH",
"46 318 OFFCURVE",
"84 287 OFFCURVE",
"109 274 CURVE",
"109 270 LINE",
"84 257 OFFCURVE",
"48 229 OFFCURVE",
"48 147 CURVE SMOOTH",
"48 47 OFFCURVE",
"101 -10 OFFCURVE",
"192 -10 CURVE SMOOTH"
);
}
);
width = 395;
},
{
anchors = (
{
name = bottom;
position = "{361, 0}";
},
{
name = top;
position = "{368, 504}";
},
{
name = top2;
position = "{223, 504}";
}
);
layerId = "3A4E24C5-56F7-4F8A-8FFD-B2AF7CE4A726";
paths = (
{
closed = 1;
nodes = (
"309 -10 OFFCURVE",
"368 46 OFFCURVE",
"368 178 CURVE SMOOTH",
"368 516 LINE",
"286 516 LINE",
"286 168 LINE SMOOTH",
"286 90 OFFCURVE",
"256 57 OFFCURVE",
"203 57 CURVE SMOOTH",
"149 57 OFFCURVE",
"117 91 OFFCURVE",
"117 160 CURVE SMOOTH",
"117 218 OFFCURVE",
"139 248 OFFCURVE",
"182 248 CURVE SMOOTH",
"216 248 LINE",
"216 307 LINE",
"182 307 LINE SMOOTH",
"149 307 OFFCURVE",
"117 324 OFFCURVE",
"117 386 CURVE SMOOTH",
"117 433 OFFCURVE",
"135 458 OFFCURVE",
"167 458 CURVE SMOOTH",
"181 458 OFFCURVE",
"197 453 OFFCURVE",
"207 448 CURVE",
"220 511 LINE",
"202 520 OFFCURVE",
"176 526 OFFCURVE",
"151 526 CURVE SMOOTH",
"70 526 OFFCURVE",
"36 464 OFFCURVE",
"36 392 CURVE SMOOTH",
"36 326 OFFCURVE",
"64 289 OFFCURVE",
"99 278 CURVE",
"99 274 LINE",
"65 266 OFFCURVE",
"36 229 OFFCURVE",
"36 154 CURVE SMOOTH",
"36 49 OFFCURVE",
"94 -10 OFFCURVE",
"203 -10 CURVE SMOOTH"
);
}
);
width = 416;
},
{
anchors = (
{
name = bottom;
position = "{447, 0}";
},
{
name = top;
position = "{455, 505}";
},
{
name = top2;
position = "{269, 505}";
}
);
layerId = "A6C8CBD9-95C8-4E45-A197-88A1149E2980";
paths = (
{
closed = 1;
nodes = (
"378 -10 OFFCURVE",
"455 49 OFFCURVE",
"455 191 CURVE SMOOTH",
"455 520 LINE",
"293 520 LINE",
"293 180 LINE SMOOTH",
"293 138 OFFCURVE",
"270 113 OFFCURVE",
"240 113 CURVE SMOOTH",
"216 113 OFFCURVE",
"188 128 OFFCURVE",
"188 171 CURVE SMOOTH",
"188 196 OFFCURVE",
"197 219 OFFCURVE",
"219 219 CURVE SMOOTH",
"261 219 LINE",
"261 315 LINE",
"219 315 LINE SMOOTH",
"201 315 OFFCURVE",
"188 327 OFFCURVE",
"188 362 CURVE SMOOTH",
"188 390 OFFCURVE",
"196 406 OFFCURVE",
"215 406 CURVE SMOOTH",
"224 406 OFFCURVE",
"237 403 OFFCURVE",
"247 399 CURVE",
"273 512 LINE",
"244 523 OFFCURVE",
"210 530 OFFCURVE",
"176 530 CURVE SMOOTH",
"70 530 OFFCURVE",
"30 462 OFFCURVE",
"30 385 CURVE SMOOTH",
"30 334 OFFCURVE",
"48 288 OFFCURVE",
"98 267 CURVE",
"98 264 LINE",
"55 249 OFFCURVE",
"30 208 OFFCURVE",
"30 151 CURVE SMOOTH",
"30 52 OFFCURVE",
"104 -10 OFFCURVE",
"243 -10 CURVE SMOOTH"
);
}
);
width = 501;
}
);
note = uni0E8D;
unicode = 0E8D;
},
{
glyphname = "doDek-lao";
lastChange = "2017-06-02 13:33:53 +0000";
layers = (
{
anchors = (
{
name = bottom;
position = "{501, 0}";
},
{
name = top;
position = "{491, 504}";
},
{
name = top2;
position = "{314, 504}";
}
);
layerId = "64BC062E-13E4-450B-B24E-D8A474022433";
paths = (
{
closed = 1;
nodes = (
"278 -10 OFFCURVE",
"298 -8 OFFCURVE",
"313 -2 CURVE",
"307 21 LINE",
"297 17 OFFCURVE",
"279 14 OFFCURVE",
"257 14 CURVE SMOOTH",
"125 14 OFFCURVE",
"93 119 OFFCURVE",
"93 252 CURVE SMOOTH",
"93 429 OFFCURVE",
"149 498 OFFCURVE",
"293 498 CURVE SMOOTH",
"421 498 OFFCURVE",
"475 443 OFFCURVE",
"475 356 CURVE SMOOTH",
"475 0 LINE",
"501 0 LINE",
"501 359 LINE SMOOTH",
"501 468 OFFCURVE",
"423 523 OFFCURVE",
"293 523 CURVE SMOOTH",
"134 523 OFFCURVE",
"65 442 OFFCURVE",
"65 251 CURVE SMOOTH",
"65 86 OFFCURVE",
"116 -10 OFFCURVE",
"258 -10 CURVE SMOOTH"
);
}
);
width = 586;
},
{
anchors = (
{
name = bottom;
position = "{551, 0}";
},
{
name = top;
position = "{541, 504}";
},
{
name = top2;
position = "{332, 504}";
}
);
layerId = "6449CA81-A7C3-4005-93E5-765657812F1B";
paths = (
{
closed = 1;
nodes = (
"296 -10 OFFCURVE",
"324 -7 OFFCURVE",
"345 1 CURVE",
"334 67 LINE",
"318 62 OFFCURVE",
"301 59 OFFCURVE",
"282 59 CURVE SMOOTH",
"192 59 OFFCURVE",
"151 123 OFFCURVE",
"151 248 CURVE SMOOTH",
"151 385 OFFCURVE",
"200 454 OFFCURVE",
"318 454 CURVE SMOOTH",
"417 454 OFFCURVE",
"463 406 OFFCURVE",
"463 326 CURVE SMOOTH",
"463 0 LINE",
"551 0 LINE",
"551 328 LINE SMOOTH",
"551 456 OFFCURVE",
"460 526 OFFCURVE",
"319 526 CURVE SMOOTH",
"163 526 OFFCURVE",
"63 441 OFFCURVE",
"63 246 CURVE SMOOTH",
"63 95 OFFCURVE",
"123 -10 OFFCURVE",
"271 -10 CURVE SMOOTH"
);
}
);
width = 633;
},
{
anchors = (
{
name = bottom;
position = "{567, 0}";
},
{
name = top;
position = "{557, 505}";
},
{
name = top2;
position = "{310, 505}";
}
);
layerId = "E5D3352E-10FF-4C03-AD9F-F95B1FD01257";
paths = (
{
closed = 1;
nodes = (
"278 -10 OFFCURVE",
"311 -3 OFFCURVE",
"344 9 CURVE",
"321 141 LINE",
"307 136 OFFCURVE",
"289 134 OFFCURVE",
"279 134 CURVE SMOOTH",
"239 134 OFFCURVE",
"217 168 OFFCURVE",
"217 255 CURVE SMOOTH",
"217 373 OFFCURVE",
"258 387 OFFCURVE",
"300 387 CURVE SMOOTH",
"354 387 OFFCURVE",
"375 364 OFFCURVE",
"375 321 CURVE SMOOTH",
"375 0 LINE",
"567 0 LINE",
"567 314 LINE SMOOTH",
"567 456 OFFCURVE",
"475 531 OFFCURVE",
"306 531 CURVE SMOOTH",
"145 531 OFFCURVE",
"25 463 OFFCURVE",
"25 248 CURVE SMOOTH",
"25 103 OFFCURVE",
"80 -10 OFFCURVE",
"239 -10 CURVE SMOOTH"
);
}
);
width = 612;
},
{
anchors = (
{
name = bottom;
position = "{357, 0}";
},
{
name = top;
position = "{350, 504}";
},
{
name = top2;
position = "{222, 504}";
}
);
layerId = "DDDB2E70-9881-4210-B3C5-A030831183E9";
paths = (
{
closed = 1;
nodes = (
"197 -10 OFFCURVE",
"212 -8 OFFCURVE",
"223 -2 CURVE",
"218 21 LINE",
"210 17 OFFCURVE",
"198 14 OFFCURVE",
"183 14 CURVE SMOOTH",
"95 14 OFFCURVE",
"71 120 OFFCURVE",
"71 254 CURVE SMOOTH",
"71 429 OFFCURVE",
"111 498 OFFCURVE",
"208 498 CURVE SMOOTH",
"294 498 OFFCURVE",
"331 443 OFFCURVE",
"331 356 CURVE SMOOTH",
"331 0 LINE",
"357 0 LINE",
"357 359 LINE SMOOTH",
"357 468 OFFCURVE",
"301 523 OFFCURVE",
"208 523 CURVE SMOOTH",
"96 523 OFFCURVE",
"44 441 OFFCURVE",
"44 249 CURVE SMOOTH",
"44 86 OFFCURVE",
"82 -10 OFFCURVE",
"182 -10 CURVE SMOOTH"
);
}
);
width = 416;
},
{
anchors = (
{
name = bottom;
position = "{385, 0}";
},
{
name = top;
position = "{378, 504}";
},
{
name = top2;
position = "{225, 504}";
}
);
layerId = "3A4E24C5-56F7-4F8A-8FFD-B2AF7CE4A726";
paths = (
{
closed = 1;
nodes = (
"200 -10 OFFCURVE",
"221 -7 OFFCURVE",
"239 1 CURVE",
"228 63 LINE",
"218 58 OFFCURVE",
"206 55 OFFCURVE",
"195 55 CURVE SMOOTH",
"140 55 OFFCURVE",
"117 124 OFFCURVE",
"117 246 CURVE SMOOTH",
"117 392 OFFCURVE",
"150 458 OFFCURVE",
"218 458 CURVE SMOOTH",
"276 458 OFFCURVE",
"303 410 OFFCURVE",
"303 329 CURVE SMOOTH",
"303 0 LINE",
"385 0 LINE",
"385 331 LINE SMOOTH",
"385 457 OFFCURVE",
"322 526 OFFCURVE",
"219 526 CURVE SMOOTH",
"107 526 OFFCURVE",
"35 443 OFFCURVE",
"35 243 CURVE SMOOTH",
"35 94 OFFCURVE",
"75 -10 OFFCURVE",
"182 -10 CURVE SMOOTH"
);
}
);
width = 433;
},
{
anchors = (
{
name = bottom;
position = "{468, 0}";
},
{
name = top;
position = "{460, 505}";
},
{
name = top2;
position = "{259, 505}";
}
);
layerId = "A6C8CBD9-95C8-4E45-A197-88A1149E2980";
paths = (
{
closed = 1;
nodes = (
"233 -10 OFFCURVE",
"261 -4 OFFCURVE",
"288 7 CURVE",
"269 120 LINE",
"258 115 OFFCURVE",
"243 112 OFFCURVE",
"236 112 CURVE SMOOTH",
"208 112 OFFCURVE",
"192 159 OFFCURVE",
"192 246 CURVE SMOOTH",
"192 353 OFFCURVE",
"216 406 OFFCURVE",
"257 406 CURVE SMOOTH",
"288 406 OFFCURVE",
"306 375 OFFCURVE",
"306 322 CURVE SMOOTH",
"306 0 LINE",
"468 0 LINE",
"468 318 LINE SMOOTH",
"468 456 OFFCURVE",
"393 530 OFFCURVE",
"259 530 CURVE SMOOTH",
"128 530 OFFCURVE",
"30 459 OFFCURVE",
"30 245 CURVE SMOOTH",
"30 101 OFFCURVE",
"74 -10 OFFCURVE",
"203 -10 CURVE SMOOTH"
);
}
);
width = 514;
}
);
note = uni0E94;
unicode = 0E94;
},
{
glyphname = "toTa-lao";
lastChange = "2017-06-02 13:33:53 +0000";
layers = (
{
anchors = (
{
name = bottom;
position = "{515, 0}";
},
{
name = top;
position = "{505, 504}";
},
{
name = top2;
position = "{308, 504}";
}
);
layerId = "64BC062E-13E4-450B-B24E-D8A474022433";
paths = (
{
closed = 1;
nodes = (
"285 -10 OFFCURVE",
"310 -6 OFFCURVE",
"323 0 CURVE",
"319 22 LINE",
"304 18 OFFCURVE",
"286 14 OFFCURVE",
"259 14 CURVE SMOOTH",
"129 14 OFFCURVE",
"91 101 OFFCURVE",
"91 265 CURVE SMOOTH",
"91 433 OFFCURVE",
"131 500 OFFCURVE",
"206 500 CURVE SMOOTH",
"251 500 OFFCURVE",
"282 476 OFFCURVE",
"290 431 CURVE",
"312 431 LINE",
"323 473 OFFCURVE",
"343 500 OFFCURVE",
"399 500 CURVE SMOOTH",
"459 500 OFFCURVE",
"489 470 OFFCURVE",
"489 402 CURVE SMOOTH",
"489 0 LINE",
"515 0 LINE",
"515 401 LINE SMOOTH",
"515 480 OFFCURVE",
"477 523 OFFCURVE",
"404 523 CURVE SMOOTH",
"344 523 OFFCURVE",
"315 495 OFFCURVE",
"302 463 CURVE",
"300 463 LINE",
"289 497 OFFCURVE",
"258 523 OFFCURVE",
"204 523 CURVE SMOOTH",
"123 523 OFFCURVE",
"65 463 OFFCURVE",
"65 264 CURVE SMOOTH",
"65 89 OFFCURVE",
"110 -10 OFFCURVE",
"256 -10 CURVE SMOOTH"
);
}
);
width = 600;
},
{
anchors = (
{
name = bottom;
position = "{561, 0}";
},
{
name = top;
position = "{551, 504}";
},
{
name = top2;
position = "{339, 504}";
}
);
layerId = "6449CA81-A7C3-4005-93E5-765657812F1B";
paths = (
{
closed = 1;
nodes = (
"296 -10 OFFCURVE",
"324 -7 OFFCURVE",
"345 1 CURVE",
"334 67 LINE",
"318 62 OFFCURVE",
"301 59 OFFCURVE",
"282 59 CURVE SMOOTH",
"190 59 OFFCURVE",
"151 127 OFFCURVE",
"151 259 CURVE SMOOTH",
"151 395 OFFCURVE",
"192 454 OFFCURVE",
"241 454 CURVE SMOOTH",
"275 454 OFFCURVE",
"292 425 OFFCURVE",
"297 383 CURVE",
"354 383 LINE",
"359 422 OFFCURVE",
"378 454 OFFCURVE",
"416 454 CURVE SMOOTH",
"456 454 OFFCURVE",
"473 419 OFFCURVE",
"473 361 CURVE SMOOTH",
"473 0 LINE",
"561 0 LINE",
"561 368 LINE SMOOTH",
"561 466 OFFCURVE",
"518 526 OFFCURVE",
"433 526 CURVE SMOOTH",
"377 526 OFFCURVE",
"343 500 OFFCURVE",
"328 464 CURVE",
"324 464 LINE",
"310 499 OFFCURVE",
"283 526 OFFCURVE",
"228 526 CURVE SMOOTH",
"136 526 OFFCURVE",
"63 447 OFFCURVE",
"63 262 CURVE SMOOTH",
"63 93 OFFCURVE",
"123 -10 OFFCURVE",
"271 -10 CURVE SMOOTH"
);
}
);
width = 643;
},
{
anchors = (
{
name = bottom;
position = "{586, 0}";
},
{
name = top;
position = "{576, 505}";
},
{
name = top2;
position = "{320, 505}";
}
);
layerId = "E5D3352E-10FF-4C03-AD9F-F95B1FD01257";
paths = (
{
closed = 1;
nodes = (
"279 -10 OFFCURVE",
"311 -3 OFFCURVE",
"344 9 CURVE",
"321 141 LINE",
"307 136 OFFCURVE",
"290 134 OFFCURVE",
"278 134 CURVE SMOOTH",
"234 134 OFFCURVE",
"217 159 OFFCURVE",
"217 270 CURVE SMOOTH",
"217 354 OFFCURVE",
"227 387 OFFCURVE",
"254 387 CURVE SMOOTH",
"268 387 OFFCURVE",
"279 378 OFFCURVE",
"281 356 CURVE",
"345 356 LINE",
"348 379 OFFCURVE",
"357 387 OFFCURVE",
"372 387 CURVE SMOOTH",
"387 387 OFFCURVE",
"394 380 OFFCURVE",
"394 357 CURVE SMOOTH",
"394 0 LINE",
"586 0 LINE",
"586 359 LINE SMOOTH",
"586 466 OFFCURVE",
"548 531 OFFCURVE",
"442 531 CURVE SMOOTH",
"391 531 OFFCURVE",
"342 516 OFFCURVE",
"315 482 CURVE",
"313 482 LINE",
"295 516 OFFCURVE",
"249 531 OFFCURVE",
"206 531 CURVE SMOOTH",
"99 531 OFFCURVE",
"25 439 OFFCURVE",
"25 251 CURVE SMOOTH",
"25 92 OFFCURVE",
"78 -10 OFFCURVE",
"237 -10 CURVE SMOOTH"
);
}
);
width = 631;
},
{
anchors = (
{
name = bottom;
position = "{366, 0}";
},
{
name = top;
position = "{359, 504}";
},
{
name = top2;
position = "{219, 504}";
}
);
layerId = "DDDB2E70-9881-4210-B3C5-A030831183E9";
paths = (
{
closed = 1;
nodes = (
"201 -10 OFFCURVE",
"219 -6 OFFCURVE",
"229 0 CURVE",
"225 22 LINE",
"214 18 OFFCURVE",
"202 14 OFFCURVE",
"184 14 CURVE SMOOTH",
"98 14 OFFCURVE",
"71 101 OFFCURVE",
"71 265 CURVE SMOOTH",
"71 433 OFFCURVE",
"99 500 OFFCURVE",
"148 500 CURVE SMOOTH",
"178 500 OFFCURVE",
"198 476 OFFCURVE",
"204 431 CURVE",
"223 431 LINE",
"230 473 OFFCURVE",
"244 500 OFFCURVE",
"281 500 CURVE SMOOTH",
"321 500 OFFCURVE",
"340 470 OFFCURVE",
"340 402 CURVE SMOOTH",
"340 0 LINE",
"366 0 LINE",
"366 401 LINE SMOOTH",
"366 480 OFFCURVE",
"339 523 OFFCURVE",
"287 523 CURVE SMOOTH",
"247 523 OFFCURVE",
"225 498 OFFCURVE",
"214 463 CURVE",
"213 463 LINE",
"205 497 OFFCURVE",
"183 523 OFFCURVE",
"145 523 CURVE SMOOTH",
"87 523 OFFCURVE",
"44 462 OFFCURVE",
"44 264 CURVE SMOOTH",
"44 89 OFFCURVE",
"78 -10 OFFCURVE",
"181 -10 CURVE SMOOTH"
);
}
);
width = 425;
},
{
anchors = (
{
name = bottom;
position = "{395, 0}";
},
{
name = top;
position = "{388, 504}";
},
{
name = top2;
position = "{230, 504}";
}
);
layerId = "3A4E24C5-56F7-4F8A-8FFD-B2AF7CE4A726";
paths = (
{
closed = 1;
nodes = (
"201 -10 OFFCURVE",
"222 -7 OFFCURVE",
"239 1 CURVE",
"229 63 LINE",
"219 58 OFFCURVE",
"207 55 OFFCURVE",
"195 55 CURVE SMOOTH",
"139 55 OFFCURVE",
"117 123 OFFCURVE",
"117 262 CURVE SMOOTH",
"117 397 OFFCURVE",
"138 458 OFFCURVE",
"169 458 CURVE SMOOTH",
"189 458 OFFCURVE",
"200 430 OFFCURVE",
"204 388 CURVE",
"242 388 LINE",
"245 427 OFFCURVE",
"256 458 OFFCURVE",
"279 458 CURVE SMOOTH",
"302 458 OFFCURVE",
"313 424 OFFCURVE",
"313 365 CURVE SMOOTH",
"313 0 LINE",
"395 0 LINE",
"395 371 LINE SMOOTH",
"395 467 OFFCURVE",
"366 526 OFFCURVE",
"305 526 CURVE SMOOTH",
"264 526 OFFCURVE",
"237 500 OFFCURVE",
"224 464 CURVE",
"222 464 LINE",
"211 501 OFFCURVE",
"187 526 OFFCURVE",
"150 526 CURVE SMOOTH",
"85 526 OFFCURVE",
"35 449 OFFCURVE",
"35 259 CURVE SMOOTH",
"35 92 OFFCURVE",
"74 -10 OFFCURVE",
"182 -10 CURVE SMOOTH"
);
}
);
width = 443;
},
{
anchors = (
{
name = bottom;
position = "{484, 0}";
},
{
name = top;
position = "{476, 505}";
},
{
name = top2;
position = "{268, 505}";
}
);
layerId = "A6C8CBD9-95C8-4E45-A197-88A1149E2980";
paths = (
{
closed = 1;
nodes = (
"234 -10 OFFCURVE",
"261 -4 OFFCURVE",
"288 7 CURVE",
"269 120 LINE",
"258 115 OFFCURVE",
"244 112 OFFCURVE",
"235 112 CURVE SMOOTH",
"203 112 OFFCURVE",
"192 150 OFFCURVE",
"192 275 CURVE SMOOTH",
"192 367 OFFCURVE",
"198 406 OFFCURVE",
"216 406 CURVE SMOOTH",
"227 406 OFFCURVE",
"235 392 OFFCURVE",
"237 364 CURVE",
"288 364 LINE",
"291 391 OFFCURVE",
"297 406 OFFCURVE",
"307 406 CURVE SMOOTH",
"317 406 OFFCURVE",
"322 391 OFFCURVE",
"322 358 CURVE SMOOTH",
"322 0 LINE",
"484 0 LINE",
"484 362 LINE SMOOTH",
"484 464 OFFCURVE",
"454 530 OFFCURVE",
"370 530 CURVE SMOOTH",
"327 530 OFFCURVE",
"289 513 OFFCURVE",
"264 477 CURVE",
"263 477 LINE",
"247 512 OFFCURVE",
"211 530 OFFCURVE",
"173 530 CURVE SMOOTH",
"89 530 OFFCURVE",
"30 440 OFFCURVE",
"30 251 CURVE SMOOTH",
"30 92 OFFCURVE",
"72 -10 OFFCURVE",
"202 -10 CURVE SMOOTH"
);
}
);
width = 530;
}
);
note = uni0E95;
unicode = 0E95;
},
{
glyphname = "thoThong-lao";
lastChange = "2017-06-02 13:33:53 +0000";
layers = (
{
anchors = (
{
name = bottom;
position = "{399, 0}";
},
{
name = top;
position = "{486, 504}";
},
{
name = top2;
position = "{320, 504}";
}
);
layerId = "64BC062E-13E4-450B-B24E-D8A474022433";
paths = (
{
closed = 1;
nodes = (
"496 -139 LINE",
"496 343 LINE SMOOTH",
"496 468 OFFCURVE",
"435 523 OFFCURVE",
"335 523 CURVE SMOOTH",
"231 523 OFFCURVE",
"166 464 OFFCURVE",
"134 403 CURVE",
"133 403 LINE",
"123 452 OFFCURVE",
"110 489 OFFCURVE",
"85 523 CURVE",
"65 510 LINE",
"91 474 OFFCURVE",
"112 422 OFFCURVE",
"112 367 CURVE SMOOTH",
"112 83 LINE SMOOTH",
"112 16 OFFCURVE",
"140 -10 OFFCURVE",
"189 -10 CURVE SMOOTH",
"203 -10 OFFCURVE",
"220 -8 OFFCURVE",
"233 -3 CURVE",
"228 21 LINE",
"215 17 OFFCURVE",
"205 14 OFFCURVE",
"189 14 CURVE SMOOTH",
"156 14 OFFCURVE",
"138 28 OFFCURVE",
"138 79 CURVE SMOOTH",
"138 338 LINE SMOOTH",
"138 401 OFFCURVE",
"211 498 OFFCURVE",
"337 498 CURVE SMOOTH",
"444 498 OFFCURVE",
"470 428 OFFCURVE",
"470 344 CURVE SMOOTH",
"470 -139 LINE"
);
}
);
width = 581;
},
{
anchors = (
{
name = bottom;
position = "{409, 0}";
},
{
name = top;
position = "{521, 504}";
},
{
name = top2;
position = "{331, 504}";
}
);
layerId = "6449CA81-A7C3-4005-93E5-765657812F1B";
paths = (
{
closed = 1;
nodes = (
"531 -165 LINE",
"531 334 LINE SMOOTH",
"531 461 OFFCURVE",
"456 526 OFFCURVE",
"338 526 CURVE SMOOTH",
"279 526 OFFCURVE",
"218 510 OFFCURVE",
"171 450 CURVE",
"168 450 LINE",
"156 479 OFFCURVE",
"134 511 OFFCURVE",
"116 526 CURVE",
"52 477 LINE",
"80 451 OFFCURVE",
"106 411 OFFCURVE",
"106 343 CURVE SMOOTH",
"106 100 LINE SMOOTH",
"106 30 OFFCURVE",
"145 -10 OFFCURVE",
"210 -10 CURVE SMOOTH",
"233 -10 OFFCURVE",
"258 -5 OFFCURVE",
"281 4 CURVE",
"268 65 LINE",
"256 61 OFFCURVE",
"244 59 OFFCURVE",
"233 59 CURVE SMOOTH",
"206 59 OFFCURVE",
"194 71 OFFCURVE",
"194 98 CURVE SMOOTH",
"194 337 LINE SMOOTH",
"194 430 OFFCURVE",
"260 454 OFFCURVE",
"319 454 CURVE SMOOTH",
"402 454 OFFCURVE",
"443 407 OFFCURVE",
"443 328 CURVE SMOOTH",
"443 -165 LINE"
);
}
);
width = 613;
},
{
anchors = (
{
name = bottom;
position = "{337, 0}";
},
{
name = top;
position = "{564, 505}";
},
{
name = top2;
position = "{334, 505}";
}
);
layerId = "E5D3352E-10FF-4C03-AD9F-F95B1FD01257";
paths = (
{
closed = 1;
nodes = (
"574 -182 LINE",
"574 351 LINE SMOOTH",
"574 449 OFFCURVE",
"512 531 OFFCURVE",
"382 531 CURVE SMOOTH",
"304 531 OFFCURVE",
"238 501 OFFCURVE",
"201 461 CURVE",
"198 461 LINE",
"188 486 OFFCURVE",
"169 508 OFFCURVE",
"144 531 CURVE",
"5 427 LINE",
"58 382 OFFCURVE",
"73 350 OFFCURVE",
"73 285 CURVE SMOOTH",
"73 134 LINE SMOOTH",
"73 42 OFFCURVE",
"124 -10 OFFCURVE",
"213 -10 CURVE SMOOTH",
"257 -10 OFFCURVE",
"315 3 OFFCURVE",
"353 19 CURVE",
"326 141 LINE",
"316 137 OFFCURVE",
"306 134 OFFCURVE",
"295 134 CURVE SMOOTH",
"273 134 OFFCURVE",
"265 144 OFFCURVE",
"265 161 CURVE SMOOTH",
"265 330 LINE SMOOTH",
"265 369 OFFCURVE",
"295 387 OFFCURVE",
"328 387 CURVE SMOOTH",
"360 387 OFFCURVE",
"382 370 OFFCURVE",
"382 331 CURVE SMOOTH",
"382 -182 LINE"
);
}
);
width = 619;
},
{
anchors = (
{
name = bottom;
position = "{281, 0}";
},
{
name = top;
position = "{345, 504}";
},
{
name = top2;
position = "{226, 504}";
}
);
layerId = "DDDB2E70-9881-4210-B3C5-A030831183E9";
paths = (
{
closed = 1;
nodes = (
"352 -139 LINE",
"352 343 LINE SMOOTH",
"352 468 OFFCURVE",
"306 523 OFFCURVE",
"238 523 CURVE SMOOTH",
"167 523 OFFCURVE",
"123 464 OFFCURVE",
"99 403 CURVE",
"98 403 LINE",
"90 452 OFFCURVE",
"80 489 OFFCURVE",
"64 523 CURVE",
"44 510 LINE",
"62 474 OFFCURVE",
"78 422 OFFCURVE",
"78 367 CURVE SMOOTH",
"78 83 LINE SMOOTH",
"78 16 OFFCURVE",
"99 -10 OFFCURVE",
"135 -10 CURVE SMOOTH",
"146 -10 OFFCURVE",
"159 -8 OFFCURVE",
"169 -3 CURVE",
"165 21 LINE",
"156 17 OFFCURVE",
"149 14 OFFCURVE",
"138 14 CURVE SMOOTH",
"116 14 OFFCURVE",
"104 28 OFFCURVE",
"104 79 CURVE SMOOTH",
"104 338 LINE SMOOTH",
"104 401 OFFCURVE",
"153 498 OFFCURVE",
"235 498 CURVE SMOOTH",
"306 498 OFFCURVE",
"326 426 OFFCURVE",
"326 344 CURVE SMOOTH",
"326 -139 LINE"
);
}
);
width = 411;
},
{
anchors = (
{
name = bottom;
position = "{267, 0}";
},
{
name = top;
position = "{373, 504}";
},
{
name = top2;
position = "{232, 504}";
}
);
layerId = "3A4E24C5-56F7-4F8A-8FFD-B2AF7CE4A726";
paths = (
{
closed = 1;
nodes = (
"380 -162 LINE",
"380 335 LINE SMOOTH",
"380 462 OFFCURVE",
"333 526 OFFCURVE",
"246 526 CURVE SMOOTH",
"198 526 OFFCURVE",
"153 506 OFFCURVE",
"124 445 CURVE",
"122 445 LINE",
"114 476 OFFCURVE",
"101 509 OFFCURVE",
"86 526 CURVE",
"26 480 LINE",
"52 453 OFFCURVE",
"67 412 OFFCURVE",
"67 345 CURVE SMOOTH",
"67 98 LINE SMOOTH",
"67 29 OFFCURVE",
"95 -10 OFFCURVE",
"147 -10 CURVE SMOOTH",
"166 -10 OFFCURVE",
"192 -5 OFFCURVE",
"211 3 CURVE",
"199 61 LINE",
"191 57 OFFCURVE",
"183 55 OFFCURVE",
"175 55 CURVE SMOOTH",
"157 55 OFFCURVE",
"149 67 OFFCURVE",
"149 96 CURVE SMOOTH",
"149 337 LINE SMOOTH",
"149 427 OFFCURVE",
"187 458 OFFCURVE",
"226 458 CURVE SMOOTH",
"276 458 OFFCURVE",
"298 409 OFFCURVE",
"298 330 CURVE SMOOTH",
"298 -162 LINE"
);
}
);
width = 428;
},
{
anchors = (
{
name = bottom;
position = "{277, 0}";
},
{
name = top;
position = "{467, 505}";
},
{
name = top2;
position = "{280, 505}";
}
);
layerId = "A6C8CBD9-95C8-4E45-A197-88A1149E2980";
paths = (
{
closed = 1;
nodes = (
"475 -177 LINE",
"475 346 LINE SMOOTH",
"475 452 OFFCURVE",
"428 530 OFFCURVE",
"321 530 CURVE SMOOTH",
"259 530 OFFCURVE",
"205 504 OFFCURVE",
"176 458 CURVE",
"174 458 LINE",
"166 484 OFFCURVE",
"151 509 OFFCURVE",
"130 530 CURVE",
"13 441 LINE",
"57 402 OFFCURVE",
"69 368 OFFCURVE",
"69 302 CURVE SMOOTH",
"69 124 LINE SMOOTH",
"69 38 OFFCURVE",
"110 -10 OFFCURVE",
"184 -10 CURVE SMOOTH",
"219 -10 OFFCURVE",
"269 1 OFFCURVE",
"301 15 CURVE",
"278 119 LINE",
"270 115 OFFCURVE",
"263 112 OFFCURVE",
"254 112 CURVE SMOOTH",
"237 112 OFFCURVE",
"231 123 OFFCURVE",
"231 143 CURVE SMOOTH",
"231 332 LINE SMOOTH",
"231 387 OFFCURVE",
"253 406 OFFCURVE",
"274 406 CURVE SMOOTH",
"298 406 OFFCURVE",
"313 381 OFFCURVE",
"313 330 CURVE SMOOTH",
"313 -177 LINE"
);
}
);
width = 521;
}
);
note = uni0E96;
unicode = 0E96;
},
{
glyphname = "thoThung-lao";
lastChange = "2017-06-02 13:33:53 +0000";
layers = (
{
anchors = (
{
name = bottom;
position = "{583, 0}";
},
{
name = top;
position = "{573, 504}";
},
{
name = top2;
position = "{373, 504}";
}
);
layerId = "64BC062E-13E4-450B-B24E-D8A474022433";
paths = (
{
closed = 1;
nodes = (
"307 -10 OFFCURVE",
"347 49 OFFCURVE",
"347 133 CURVE SMOOTH",
"347 378 LINE SMOOTH",
"347 459 OFFCURVE",
"380 501 OFFCURVE",
"452 501 CURVE SMOOTH",
"524 501 OFFCURVE",
"557 459 OFFCURVE",
"557 379 CURVE SMOOTH",
"557 0 LINE",
"583 0 LINE",
"583 379 LINE SMOOTH",
"583 464 OFFCURVE",
"544 523 OFFCURVE",
"452 523 CURVE SMOOTH",
"361 523 OFFCURVE",
"321 464 OFFCURVE",
"321 379 CURVE SMOOTH",
"321 134 LINE SMOOTH",
"321 54 OFFCURVE",
"288 12 OFFCURVE",
"216 12 CURVE SMOOTH",
"144 12 OFFCURVE",
"111 54 OFFCURVE",
"111 134 CURVE SMOOTH",
"111 515 LINE",
"85 515 LINE",
"85 133 LINE SMOOTH",
"85 49 OFFCURVE",
"124 -10 OFFCURVE",
"216 -10 CURVE SMOOTH"
);
}
);
width = 668;
},
{
anchors = (
{
name = bottom;
position = "{638, 0}";
},
{
name = top;
position = "{628, 504}";
},
{
name = top2;
position = "{371, 504}";
}
);
layerId = "6449CA81-A7C3-4005-93E5-765657812F1B";
paths = (
{
closed = 1;
nodes = (
"357 -10 OFFCURVE",
"401 58 OFFCURVE",
"401 158 CURVE SMOOTH",
"401 362 LINE SMOOTH",
"401 420 OFFCURVE",
"419 454 OFFCURVE",
"475 454 CURVE SMOOTH",
"531 454 OFFCURVE",
"550 420 OFFCURVE",
"550 362 CURVE SMOOTH",
"550 0 LINE",
"638 0 LINE",
"638 358 LINE SMOOTH",
"638 457 OFFCURVE",
"593 526 OFFCURVE",
"476 526 CURVE SMOOTH",
"358 526 OFFCURVE",
"315 457 OFFCURVE",
"315 358 CURVE SMOOTH",
"315 154 LINE SMOOTH",
"315 96 OFFCURVE",
"296 62 OFFCURVE",
"240 62 CURVE SMOOTH",
"184 62 OFFCURVE",
"166 96 OFFCURVE",
"166 154 CURVE SMOOTH",
"166 516 LINE",
"78 516 LINE",
"78 158 LINE SMOOTH",
"78 58 OFFCURVE",
"123 -10 OFFCURVE",
"240 -10 CURVE SMOOTH"
);
}
);
width = 720;
},
{
anchors = (
{
name = bottom;
position = "{672, 0}";
},
{
name = top;
position = "{662, 505}";
},
{
name = top2;
position = "{404, 505}";
}
);
layerId = "E5D3352E-10FF-4C03-AD9F-F95B1FD01257";
paths = (
{
closed = 1;
nodes = (
"394 -10 OFFCURVE",
"441 64 OFFCURVE",
"441 172 CURVE SMOOTH",
"441 368 LINE SMOOTH",
"441 382 OFFCURVE",
"454 387 OFFCURVE",
"464 387 CURVE SMOOTH",
"475 387 OFFCURVE",
"488 382 OFFCURVE",
"488 368 CURVE SMOOTH",
"488 0 LINE",
"672 0 LINE",
"672 349 LINE SMOOTH",
"672 458 OFFCURVE",
"611 531 OFFCURVE",
"466 531 CURVE SMOOTH",
"322 531 OFFCURVE",
"276 458 OFFCURVE",
"276 349 CURVE SMOOTH",
"276 153 LINE SMOOTH",
"276 139 OFFCURVE",
"263 134 OFFCURVE",
"253 134 CURVE SMOOTH",
"242 134 OFFCURVE",
"229 139 OFFCURVE",
"229 153 CURVE SMOOTH",
"229 521 LINE",
"45 521 LINE",
"45 172 LINE SMOOTH",
"45 64 OFFCURVE",
"106 -10 OFFCURVE",
"250 -10 CURVE SMOOTH"
);
}
);
width = 717;
},
{
anchors = (
{
name = bottom;
position = "{415, 0}";
},
{
name = top;
position = "{408, 504}";
},
{
name = top2;
position = "{261, 504}";
}
);
layerId = "DDDB2E70-9881-4210-B3C5-A030831183E9";
paths = (
{
closed = 1;
nodes = (
"222 -10 OFFCURVE",
"250 49 OFFCURVE",
"250 133 CURVE SMOOTH",
"250 378 LINE SMOOTH",
"250 459 OFFCURVE",
"271 501 OFFCURVE",
"320 501 CURVE SMOOTH",
"368 501 OFFCURVE",
"389 459 OFFCURVE",
"389 379 CURVE SMOOTH",
"389 0 LINE",
"415 0 LINE",
"415 379 LINE SMOOTH",
"415 464 OFFCURVE",
"387 523 OFFCURVE",
"320 523 CURVE SMOOTH",
"253 523 OFFCURVE",
"224 464 OFFCURVE",
"224 379 CURVE SMOOTH",
"224 134 LINE SMOOTH",
"224 54 OFFCURVE",
"203 12 OFFCURVE",
"155 12 CURVE SMOOTH",
"106 12 OFFCURVE",
"85 54 OFFCURVE",
"85 134 CURVE SMOOTH",
"85 515 LINE",
"59 515 LINE",
"59 133 LINE SMOOTH",
"59 49 OFFCURVE",
"87 -10 OFFCURVE",
"155 -10 CURVE SMOOTH"
);
}
);
width = 474;
},
{
anchors = (
{
name = bottom;
position = "{450, 0}";
},
{
name = top;
position = "{443, 504}";
},
{
name = top2;
position = "{268, 504}";
}
);
layerId = "3A4E24C5-56F7-4F8A-8FFD-B2AF7CE4A726";
paths = (
{
closed = 1;
nodes = (
"255 -10 OFFCURVE",
"286 57 OFFCURVE",
"286 156 CURVE SMOOTH",
"286 367 LINE SMOOTH",
"286 427 OFFCURVE",
"299 459 OFFCURVE",
"328 459 CURVE SMOOTH",
"357 459 OFFCURVE",
"370 427 OFFCURVE",
"370 367 CURVE SMOOTH",
"370 0 LINE",
"450 0 LINE",
"450 360 LINE SMOOTH",
"450 458 OFFCURVE",
"415 526 OFFCURVE",
"328 526 CURVE SMOOTH",
"242 526 OFFCURVE",
"211 458 OFFCURVE",
"211 360 CURVE SMOOTH",
"211 149 LINE SMOOTH",
"211 89 OFFCURVE",
"198 57 OFFCURVE",
"169 57 CURVE SMOOTH",
"140 57 OFFCURVE",
"127 89 OFFCURVE",
"127 149 CURVE SMOOTH",
"127 516 LINE",
"47 516 LINE",
"47 156 LINE SMOOTH",
"47 57 OFFCURVE",
"82 -10 OFFCURVE",
"168 -10 CURVE SMOOTH"
);
}
);
width = 498;
},
{
anchors = (
{
name = bottom;
position = "{553, 0}";
},
{
name = top;
position = "{545, 505}";
},
{
name = top2;
position = "{339, 505}";
}
);
layerId = "A6C8CBD9-95C8-4E45-A197-88A1149E2980";
paths = (
{
closed = 1;
nodes = (
"314 -10 OFFCURVE",
"363 46 OFFCURVE",
"363 168 CURVE SMOOTH",
"363 366 LINE SMOOTH",
"363 393 OFFCURVE",
"371 406 OFFCURVE",
"380 406 CURVE SMOOTH",
"390 406 OFFCURVE",
"398 393 OFFCURVE",
"398 366 CURVE SMOOTH",
"398 0 LINE",
"553 0 LINE",
"553 352 LINE SMOOTH",
"553 472 OFFCURVE",
"496 530 OFFCURVE",
"390 530 CURVE SMOOTH",
"285 530 OFFCURVE",
"236 474 OFFCURVE",
"236 352 CURVE SMOOTH",
"236 153 LINE SMOOTH",
"236 126 OFFCURVE",
"228 113 OFFCURVE",
"219 113 CURVE SMOOTH",
"209 113 OFFCURVE",
"201 126 OFFCURVE",
"201 153 CURVE SMOOTH",
"201 520 LINE",
"46 520 LINE",
"46 168 LINE SMOOTH",
"46 48 OFFCURVE",
"103 -10 OFFCURVE",
"209 -10 CURVE SMOOTH"
);
}
);
width = 599;
}
);
note = uni0E97;
unicode = 0E97;
},
{
glyphname = "noNok-lao";
lastChange = "2017-06-02 13:33:53 +0000";
layers = (
{
anchors = (
{
name = bottom;
position = "{493, 0}";
},
{
name = top;
position = "{503, 504}";
},
{
name = top2;
position = "{316, 504}";
}
);
layerId = "64BC062E-13E4-450B-B24E-D8A474022433";
paths = (
{
closed = 1;
nodes = (
"131 25 OFFCURVE",
"146 57 OFFCURVE",
"153 104 CURVE",
"155 104 LINE",
"185 33 OFFCURVE",
"244 -10 OFFCURVE",
"335 -10 CURVE SMOOTH",
"440 -10 OFFCURVE",
"503 47 OFFCURVE",
"503 159 CURVE SMOOTH",
"503 515 LINE",
"477 515 LINE",
"477 160 LINE SMOOTH",
"477 66 OFFCURVE",
"433 12 OFFCURVE",
"338 12 CURVE SMOOTH",
"222 12 OFFCURVE",
"160 93 OFFCURVE",
"160 194 CURVE SMOOTH",
"160 455 LINE SMOOTH",
"160 502 OFFCURVE",
"141 523 OFFCURVE",
"100 523 CURVE SMOOTH",
"78 523 OFFCURVE",
"57 517 OFFCURVE",
"40 510 CURVE",
"45 486 LINE",
"61 493 OFFCURVE",
"77 498 OFFCURVE",
"96 498 CURVE SMOOTH",
"124 498 OFFCURVE",
"134 487 OFFCURVE",
"134 455 CURVE SMOOTH",
"134 147 LINE SMOOTH",
"134 92 OFFCURVE",
"112 39 OFFCURVE",
"86 4 CURVE",
"106 -9 LINE"
);
}
);
width = 588;
},
{
anchors = (
{
name = bottom;
position = "{516, 0}";
},
{
name = top;
position = "{526, 504}";
},
{
name = top2;
position = "{304, 504}";
}
);
layerId = "6449CA81-A7C3-4005-93E5-765657812F1B";
paths = (
{
closed = 1;
nodes = (
"133 4 OFFCURVE",
"156 37 OFFCURVE",
"168 65 CURVE",
"171 65 LINE",
"211 12 OFFCURVE",
"264 -10 OFFCURVE",
"332 -10 CURVE SMOOTH",
"455 -10 OFFCURVE",
"526 63 OFFCURVE",
"526 187 CURVE SMOOTH",
"526 516 LINE",
"438 516 LINE",
"438 188 LINE SMOOTH",
"438 108 OFFCURVE",
"395 62 OFFCURVE",
"317 62 CURVE SMOOTH",
"241 62 OFFCURVE",
"194 106 OFFCURVE",
"194 179 CURVE SMOOTH",
"194 416 LINE SMOOTH",
"194 487 OFFCURVE",
"163 526 OFFCURVE",
"95 526 CURVE SMOOTH",
"73 526 OFFCURVE",
"44 522 OFFCURVE",
"20 512 CURVE",
"33 451 LINE",
"44 454 OFFCURVE",
"56 457 OFFCURVE",
"68 457 CURVE SMOOTH",
"94 457 OFFCURVE",
"106 445 OFFCURVE",
"106 417 CURVE SMOOTH",
"106 173 LINE SMOOTH",
"106 105 OFFCURVE",
"79 64 OFFCURVE",
"51 38 CURVE",
"115 -10 LINE"
);
}
);
width = 608;
},
{
anchors = (
{
name = bottom;
position = "{565, 0}";
},
{
name = top;
position = "{575, 504}";
},
{
name = top2;
position = "{321, 504}";
}
);
layerId = "E5D3352E-10FF-4C03-AD9F-F95B1FD01257";
paths = (
{
closed = 1;
nodes = (
"187 12 OFFCURVE",
"207 35 OFFCURVE",
"217 60 CURVE",
"220 60 LINE",
"257 20 OFFCURVE",
"308 -10 OFFCURVE",
"385 -10 CURVE SMOOTH",
"517 -10 OFFCURVE",
"575 77 OFFCURVE",
"575 176 CURVE SMOOTH",
"575 521 LINE",
"383 521 LINE",
"383 192 LINE SMOOTH",
"383 153 OFFCURVE",
"367 134 OFFCURVE",
"331 134 CURVE SMOOTH",
"299 134 OFFCURVE",
"284 149 OFFCURVE",
"284 191 CURVE SMOOTH",
"284 393 LINE SMOOTH",
"284 486 OFFCURVE",
"241 531 OFFCURVE",
"150 531 CURVE SMOOTH",
"105 531 OFFCURVE",
"43 520 OFFCURVE",
"5 500 CURVE",
"32 379 LINE",
"42 383 OFFCURVE",
"54 387 OFFCURVE",
"67 387 CURVE SMOOTH",
"85 387 OFFCURVE",
"92 380 OFFCURVE",
"92 364 CURVE SMOOTH",
"92 236 LINE SMOOTH",
"92 171 OFFCURVE",
"76 139 OFFCURVE",
"23 95 CURVE",
"162 -10 LINE"
);
}
);
width = 620;
},
{
anchors = (
{
name = bottom;
position = "{348, 0}";
},
{
name = top;
position = "{355, 504}";
},
{
name = top2;
position = "{219, 504}";
}
);
layerId = "DDDB2E70-9881-4210-B3C5-A030831183E9";
paths = (
{
closed = 1;
nodes = (
"91 25 OFFCURVE",
"103 57 OFFCURVE",
"109 104 CURVE",
"110 104 LINE",
"131 37 OFFCURVE",
"169 -10 OFFCURVE",
"235 -10 CURVE SMOOTH",
"308 -10 OFFCURVE",
"355 47 OFFCURVE",
"355 159 CURVE SMOOTH",
"355 515 LINE",
"329 515 LINE",
"329 160 LINE SMOOTH",
"329 65 OFFCURVE",
"297 12 OFFCURVE",
"234 12 CURVE SMOOTH",
"156 12 OFFCURVE",
"116 94 OFFCURVE",
"116 194 CURVE SMOOTH",
"116 455 LINE SMOOTH",
"116 502 OFFCURVE",
"101 523 OFFCURVE",
"69 523 CURVE SMOOTH",
"53 523 OFFCURVE",
"38 517 OFFCURVE",
"25 510 CURVE",
"30 486 LINE",
"40 493 OFFCURVE",
"51 498 OFFCURVE",
"64 498 CURVE SMOOTH",
"83 498 OFFCURVE",
"90 487 OFFCURVE",
"90 455 CURVE SMOOTH",
"90 147 LINE SMOOTH",
"90 92 OFFCURVE",
"74 39 OFFCURVE",
"55 4 CURVE",
"75 -9 LINE"
);
}
);
width = 414;
},
{
anchors = (
{
name = bottom;
position = "{371, 0}";
},
{
name = top;
position = "{378, 504}";
},
{
name = top2;
position = "{218, 504}";
}
);
layerId = "3A4E24C5-56F7-4F8A-8FFD-B2AF7CE4A726";
paths = (
{
closed = 1;
nodes = (
"106 6 OFFCURVE",
"121 39 OFFCURVE",
"128 69 CURVE",
"130 69 LINE",
"157 14 OFFCURVE",
"194 -10 OFFCURVE",
"245 -10 CURVE SMOOTH",
"333 -10 OFFCURVE",
"378 61 OFFCURVE",
"378 184 CURVE SMOOTH",
"378 516 LINE",
"296 516 LINE",
"296 185 LINE SMOOTH",
"296 104 OFFCURVE",
"273 57 OFFCURVE",
"227 57 CURVE SMOOTH",
"181 57 OFFCURVE",
"155 105 OFFCURVE",
"155 180 CURVE SMOOTH",
"155 420 LINE SMOOTH",
"155 489 OFFCURVE",
"132 526 OFFCURVE",
"79 526 CURVE SMOOTH",
"61 526 OFFCURVE",
"32 522 OFFCURVE",
"12 512 CURVE",
"24 454 LINE",
"32 458 OFFCURVE",
"41 461 OFFCURVE",
"50 461 CURVE SMOOTH",
"66 461 OFFCURVE",
"73 449 OFFCURVE",
"73 421 CURVE SMOOTH",
"73 170 LINE SMOOTH",
"73 104 OFFCURVE",
"58 62 OFFCURVE",
"32 35 CURVE",
"91 -10 LINE"
);
}
);
width = 426;
},
{
anchors = (
{
name = bottom;
position = "{469, 0}";
},
{
name = top;
position = "{477, 504}";
},
{
name = top2;
position = "{271, 504}";
}
);
layerId = "A6C8CBD9-95C8-4E45-A197-88A1149E2980";
paths = (
{
closed = 1;
nodes = (
"167 10 OFFCURVE",
"183 36 OFFCURVE",
"191 61 CURVE",
"193 61 LINE",
"223 18 OFFCURVE",
"263 -10 OFFCURVE",
"325 -10 CURVE SMOOTH",
"432 -10 OFFCURVE",
"477 73 OFFCURVE",
"477 179 CURVE SMOOTH",
"477 520 LINE",
"315 520 LINE",
"315 191 LINE SMOOTH",
"315 141 OFFCURVE",
"305 113 OFFCURVE",
"280 113 CURVE SMOOTH",
"257 113 OFFCURVE",
"248 136 OFFCURVE",
"248 188 CURVE SMOOTH",
"248 400 LINE SMOOTH",
"248 487 OFFCURVE",
"212 530 OFFCURVE",
"136 530 CURVE SMOOTH",
"101 530 OFFCURVE",
"48 521 OFFCURVE",
"16 503 CURVE",
"39 400 LINE",
"47 403 OFFCURVE",
"56 407 OFFCURVE",
"66 407 CURVE SMOOTH",
"80 407 OFFCURVE",
"86 399 OFFCURVE",
"86 379 CURVE SMOOTH",
"86 218 LINE SMOOTH",
"86 152 OFFCURVE",
"74 117 OFFCURVE",
"29 79 CURVE",
"147 -10 LINE"
);
}
);
width = 523;
}
);
note = uni0E99;
unicode = 0E99;
},
{
glyphname = "boBae-lao";
lastChange = "2017-06-02 13:33:53 +0000";
layers = (
{
anchors = (
{
name = bottom;
position = "{477, 0}";
},
{
name = top;
position = "{487, 504}";
},
{
name = top2;
position = "{286, 504}";
}
);
layerId = "64BC062E-13E4-450B-B24E-D8A474022433";
paths = (
{
closed = 1;
nodes = (
"424 -10 OFFCURVE",
"487 62 OFFCURVE",
"487 164 CURVE SMOOTH",
"487 515 LINE",
"461 515 LINE",
"461 164 LINE SMOOTH",
"461 69 OFFCURVE",
"402 14 OFFCURVE",
"286 14 CURVE SMOOTH",
"170 14 OFFCURVE",
"111 69 OFFCURVE",
"111 164 CURVE SMOOTH",
"111 515 LINE",
"85 515 LINE",
"85 164 LINE SMOOTH",
"85 62 OFFCURVE",
"148 -10 OFFCURVE",
"286 -10 CURVE SMOOTH"
);
}
);
width = 572;
},
{
anchors = (
{
name = bottom;
position = "{516, 0}";
},
{
name = top;
position = "{526, 504}";
},
{
name = top2;
position = "{302, 504}";
}
);
layerId = "6449CA81-A7C3-4005-93E5-765657812F1B";
paths = (
{
closed = 1;
nodes = (
"461 -10 OFFCURVE",
"526 67 OFFCURVE",
"526 196 CURVE SMOOTH",
"526 516 LINE",
"438 516 LINE",
"438 188 LINE SMOOTH",
"438 109 OFFCURVE",
"399 62 OFFCURVE",
"302 62 CURVE SMOOTH",
"206 62 OFFCURVE",
"166 109 OFFCURVE",
"166 188 CURVE SMOOTH",
"166 516 LINE",
"78 516 LINE",
"78 196 LINE SMOOTH",
"78 67 OFFCURVE",
"143 -10 OFFCURVE",
"302 -10 CURVE SMOOTH"
);
}
);
width = 608;
},
{
anchors = (
{
name = bottom;
position = "{543, 0}";
},
{
name = top;
position = "{553, 504}";
},
{
name = top2;
position = "{299, 504}";
}
);
layerId = "E5D3352E-10FF-4C03-AD9F-F95B1FD01257";
paths = (
{
closed = 1;
nodes = (
"466 -10 OFFCURVE",
"553 69 OFFCURVE",
"553 222 CURVE SMOOTH",
"553 521 LINE",
"361 521 LINE",
"361 201 LINE SMOOTH",
"361 157 OFFCURVE",
"340 134 OFFCURVE",
"299 134 CURVE SMOOTH",
"258 134 OFFCURVE",
"237 157 OFFCURVE",
"237 201 CURVE SMOOTH",
"237 521 LINE",
"45 521 LINE",
"45 222 LINE SMOOTH",
"45 69 OFFCURVE",
"132 -10 OFFCURVE",
"299 -10 CURVE SMOOTH"
);
}
);
width = 598;
},
{
anchors = (
{
name = bottom;
position = "{339, 0}";
},
{
name = top;
position = "{346, 504}";
},
{
name = top2;
position = "{203, 504}";
}
);
layerId = "DDDB2E70-9881-4210-B3C5-A030831183E9";
paths = (
{
closed = 1;
nodes = (
"302 -10 OFFCURVE",
"346 62 OFFCURVE",
"346 164 CURVE SMOOTH",
"346 515 LINE",
"320 515 LINE",
"320 164 LINE SMOOTH",
"320 69 OFFCURVE",
"281 14 OFFCURVE",
"203 14 CURVE SMOOTH",
"124 14 OFFCURVE",
"85 69 OFFCURVE",
"85 164 CURVE SMOOTH",
"85 515 LINE",
"59 515 LINE",
"59 164 LINE SMOOTH",
"59 62 OFFCURVE",
"103 -10 OFFCURVE",
"203 -10 CURVE SMOOTH"
);
}
);
width = 405;
},
{
anchors = (
{
name = bottom;
position = "{364, 0}";
},
{
name = top;
position = "{371, 504}";
},
{
name = top2;
position = "{209, 504}";
}
);
layerId = "3A4E24C5-56F7-4F8A-8FFD-B2AF7CE4A726";
paths = (
{
closed = 1;
nodes = (
"320 -10 OFFCURVE",
"371 67 OFFCURVE",
"371 193 CURVE SMOOTH",
"371 516 LINE",
"289 516 LINE",
"289 186 LINE SMOOTH",
"289 105 OFFCURVE",
"265 57 OFFCURVE",
"209 57 CURVE SMOOTH",
"154 57 OFFCURVE",
"129 105 OFFCURVE",
"129 186 CURVE SMOOTH",
"129 516 LINE",
"47 516 LINE",
"47 193 LINE SMOOTH",
"47 67 OFFCURVE",
"98 -10 OFFCURVE",
"209 -10 CURVE SMOOTH"
);
}
);
width = 419;
},
{
anchors = (
{
name = bottom;
position = "{449, 0}";
},
{
name = top;
position = "{457, 504}";
},
{
name = top2;
position = "{252, 504}";
}
);
layerId = "A6C8CBD9-95C8-4E45-A197-88A1149E2980";
paths = (
{
closed = 1;
nodes = (
"386 -10 OFFCURVE",
"457 68 OFFCURVE",
"457 215 CURVE SMOOTH",
"457 520 LINE",
"295 520 LINE",
"295 197 LINE SMOOTH",
"295 143 OFFCURVE",
"280 113 OFFCURVE",
"252 113 CURVE SMOOTH",
"223 113 OFFCURVE",
"208 143 OFFCURVE",
"208 197 CURVE SMOOTH",
"208 520 LINE",
"46 520 LINE",
"46 215 LINE SMOOTH",
"46 68 OFFCURVE",
"117 -10 OFFCURVE",
"252 -10 CURVE SMOOTH"
);
}
);
width = 503;
}
);
note = uni0E9A;
unicode = 0E9A;
},
{
glyphname = "poPa-lao";
lastChange = "2017-06-02 13:33:53 +0000";
layers = (
{
anchors = (
{
name = bottom;
position = "{477, 0}";
},
{
name = top;
position = "{380, 504}";
},
{
name = top2;
position = "{286, 504}";
}
);
layerId = "64BC062E-13E4-450B-B24E-D8A474022433";
paths = (
{
closed = 1;
nodes = (
"424 -10 OFFCURVE",
"487 62 OFFCURVE",
"487 164 CURVE SMOOTH",
"487 712 LINE",
"461 712 LINE",
"461 164 LINE SMOOTH",
"461 69 OFFCURVE",
"402 14 OFFCURVE",
"286 14 CURVE SMOOTH",
"170 14 OFFCURVE",
"111 69 OFFCURVE",
"111 164 CURVE SMOOTH",
"111 515 LINE",
"85 515 LINE",
"85 164 LINE SMOOTH",
"85 62 OFFCURVE",
"148 -10 OFFCURVE",
"286 -10 CURVE SMOOTH"
);
}
);
width = 572;
},
{
anchors = (
{
name = bottom;
position = "{516, 0}";
},
{
name = top;
position = "{404, 504}";
},
{
name = top2;
position = "{286, 504}";
}
);
layerId = "6449CA81-A7C3-4005-93E5-765657812F1B";
paths = (
{
closed = 1;
nodes = (
"461 -10 OFFCURVE",
"526 67 OFFCURVE",
"526 196 CURVE SMOOTH",
"526 682 LINE",
"438 682 LINE",
"438 188 LINE SMOOTH",
"438 109 OFFCURVE",
"399 62 OFFCURVE",
"302 62 CURVE SMOOTH",
"206 62 OFFCURVE",
"166 109 OFFCURVE",
"166 188 CURVE SMOOTH",
"166 516 LINE",
"78 516 LINE",
"78 196 LINE SMOOTH",
"78 67 OFFCURVE",
"143 -10 OFFCURVE",
"302 -10 CURVE SMOOTH"
);
}
);
width = 608;
},
{
anchors = (
{
name = bottom;
position = "{553, 0}";
},
{
name = top;
position = "{349, 505}";
},
{
name = top2;
position = "{232, 505}";
}
);
layerId = "E5D3352E-10FF-4C03-AD9F-F95B1FD01257";
paths = (
{
closed = 1;
nodes = (
"475 -10 OFFCURVE",
"563 69 OFFCURVE",
"563 222 CURVE SMOOTH",
"563 682 LINE",
"371 682 LINE",
"371 201 LINE SMOOTH",
"371 157 OFFCURVE",
"349 134 OFFCURVE",
"306 134 CURVE SMOOTH",
"262 134 OFFCURVE",
"237 157 OFFCURVE",
"237 201 CURVE SMOOTH",
"237 521 LINE",
"45 521 LINE",
"45 222 LINE SMOOTH",
"45 69 OFFCURVE",
"136 -10 OFFCURVE",
"306 -10 CURVE SMOOTH"
);
}
);
width = 613;
},
{
anchors = (
{
name = bottom;
position = "{339, 0}";
},
{
name = top;
position = "{269, 504}";
},
{
name = top2;
position = "{195, 504}";
}
);
layerId = "DDDB2E70-9881-4210-B3C5-A030831183E9";
paths = (
{
closed = 1;
nodes = (
"302 -10 OFFCURVE",
"346 62 OFFCURVE",
"346 164 CURVE SMOOTH",
"346 712 LINE",
"320 712 LINE",
"320 164 LINE SMOOTH",
"320 69 OFFCURVE",
"281 14 OFFCURVE",
"203 14 CURVE SMOOTH",
"124 14 OFFCURVE",
"85 69 OFFCURVE",
"85 164 CURVE SMOOTH",
"85 515 LINE",
"59 515 LINE",
"59 164 LINE SMOOTH",
"59 62 OFFCURVE",
"103 -10 OFFCURVE",
"203 -10 CURVE SMOOTH"
);
}
);
width = 405;
},
{
anchors = (
{
name = bottom;
position = "{367, 0}";
},
{
name = top;
position = "{267, 504}";
},
{
name = top2;
position = "{177, 504}";
}
);
layerId = "3A4E24C5-56F7-4F8A-8FFD-B2AF7CE4A726";
paths = (
{
closed = 1;
nodes = (
"323 -10 OFFCURVE",
"374 67 OFFCURVE",
"374 193 CURVE SMOOTH",
"374 685 LINE",
"292 685 LINE",
"292 186 LINE SMOOTH",
"292 105 OFFCURVE",
"267 57 OFFCURVE",
"211 57 CURVE SMOOTH",
"155 57 OFFCURVE",
"129 105 OFFCURVE",
"129 186 CURVE SMOOTH",
"129 516 LINE",
"47 516 LINE",
"47 193 LINE SMOOTH",
"47 67 OFFCURVE",
"99 -10 OFFCURVE",
"211 -10 CURVE SMOOTH"
);
}
);
width = 424;
},
{
anchors = (
{
name = bottom;
position = "{458, 0}";
},
{
name = top;
position = "{285, 505}";
},
{
name = top2;
position = "{184, 505}";
}
);
layerId = "A6C8CBD9-95C8-4E45-A197-88A1149E2980";
paths = (
{
closed = 1;
nodes = (
"394 -10 OFFCURVE",
"466 68 OFFCURVE",
"466 215 CURVE SMOOTH",
"466 682 LINE",
"304 682 LINE",
"304 197 LINE SMOOTH",
"304 143 OFFCURVE",
"288 113 OFFCURVE",
"258 113 CURVE SMOOTH",
"227 113 OFFCURVE",
"208 143 OFFCURVE",
"208 197 CURVE SMOOTH",
"208 520 LINE",
"46 520 LINE",
"46 215 LINE SMOOTH",
"46 68 OFFCURVE",
"121 -10 OFFCURVE",
"258 -10 CURVE SMOOTH"
);
}
);
width = 516;
}
);
note = uni0E9B;
unicode = 0E9B;
},
{
glyphname = "phoPhueng-lao";
lastChange = "2017-06-02 13:33:53 +0000";
layers = (
{
anchors = (
{
name = bottom;
position = "{583, 0}";
},
{
name = top;
position = "{596, 504}";
},
{
name = top2;
position = "{346, 504}";
}
);
layerId = "64BC062E-13E4-450B-B24E-D8A474022433";
paths = (
{
closed = 1;
nodes = (
"273 -10 OFFCURVE",
"316 9 OFFCURVE",
"338 65 CURVE",
"340 65 LINE",
"362 9 OFFCURVE",
"405 -10 OFFCURVE",
"460 -10 CURVE SMOOTH",
"555 -10 OFFCURVE",
"593 49 OFFCURVE",
"593 147 CURVE SMOOTH",
"593 312 LINE SMOOTH",
"593 368 OFFCURVE",
"586 408 OFFCURVE",
"542 428 CURVE",
"542 429 LINE",
"585 443 OFFCURVE",
"596 488 OFFCURVE",
"596 541 CURVE SMOOTH",
"596 560 LINE",
"569 560 LINE",
"569 541 LINE SMOOTH",
"569 480 OFFCURVE",
"556 440 OFFCURVE",
"504 440 CURVE SMOOTH",
"480 440 LINE",
"480 418 LINE",
"503 418 LINE SMOOTH",
"553 418 OFFCURVE",
"567 380 OFFCURVE",
"567 310 CURVE SMOOTH",
"567 143 LINE SMOOTH",
"567 61 OFFCURVE",
"538 12 OFFCURVE",
"460 12 CURVE SMOOTH",
"382 12 OFFCURVE",
"351 61 OFFCURVE",
"351 129 CURVE SMOOTH",
"351 291 LINE",
"327 291 LINE",
"327 129 LINE SMOOTH",
"327 61 OFFCURVE",
"296 12 OFFCURVE",
"218 12 CURVE SMOOTH",
"140 12 OFFCURVE",
"111 61 OFFCURVE",
"111 143 CURVE SMOOTH",
"111 428 LINE SMOOTH",
"111 475 OFFCURVE",
"129 501 OFFCURVE",
"176 501 CURVE SMOOTH",
"204 501 OFFCURVE",
"228 492 OFFCURVE",
"245 482 CURVE",
"255 503 LINE",
"236 513 OFFCURVE",
"204 523 OFFCURVE",
"173 523 CURVE SMOOTH",
"118 523 OFFCURVE",
"85 491 OFFCURVE",
"85 427 CURVE SMOOTH",
"85 147 LINE SMOOTH",
"85 49 OFFCURVE",
"123 -10 OFFCURVE",
"218 -10 CURVE SMOOTH"
);
}
);
width = 678;
},
{
anchors = (
{
name = bottom;
position = "{628, 0}";
},
{
name = top;
position = "{638, 504}";
},
{
name = top2;
position = "{365, 504}";
}
);
layerId = "6449CA81-A7C3-4005-93E5-765657812F1B";
paths = (
{
closed = 1;
nodes = (
"290 -10 OFFCURVE",
"328 14 OFFCURVE",
"356 53 CURVE",
"360 53 LINE",
"388 14 OFFCURVE",
"426 -10 OFFCURVE",
"490 -10 CURVE SMOOTH",
"592 -10 OFFCURVE",
"638 51 OFFCURVE",
"638 148 CURVE SMOOTH",
"638 325 LINE SMOOTH",
"638 378 OFFCURVE",
"622 411 OFFCURVE",
"578 431 CURVE",
"578 435 LINE",
"622 460 OFFCURVE",
"638 495 OFFCURVE",
"638 546 CURVE SMOOTH",
"638 554 LINE",
"550 554 LINE",
"550 546 LINE SMOOTH",
"550 497 OFFCURVE",
"536 464 OFFCURVE",
"489 464 CURVE SMOOTH",
"475 464 LINE",
"475 405 LINE",
"488 405 LINE SMOOTH",
"528 405 OFFCURVE",
"550 377 OFFCURVE",
"550 324 CURVE SMOOTH",
"550 138 LINE SMOOTH",
"550 85 OFFCURVE",
"526 62 OFFCURVE",
"477 62 CURVE SMOOTH",
"418 62 OFFCURVE",
"401 94 OFFCURVE",
"401 152 CURVE SMOOTH",
"401 311 LINE",
"315 311 LINE",
"315 152 LINE SMOOTH",
"315 94 OFFCURVE",
"297 62 OFFCURVE",
"239 62 CURVE SMOOTH",
"189 62 OFFCURVE",
"166 85 OFFCURVE",
"166 138 CURVE SMOOTH",
"166 416 LINE SMOOTH",
"166 446 OFFCURVE",
"183 457 OFFCURVE",
"204 457 CURVE SMOOTH",
"215 457 OFFCURVE",
"228 454 OFFCURVE",
"240 451 CURVE",
"253 512 LINE",
"228 521 OFFCURVE",
"203 526 OFFCURVE",
"181 526 CURVE SMOOTH",
"117 526 OFFCURVE",
"78 486 OFFCURVE",
"78 415 CURVE SMOOTH",
"78 148 LINE SMOOTH",
"78 50 OFFCURVE",
"125 -10 OFFCURVE",
"226 -10 CURVE SMOOTH"
);
}
);
width = 720;
},
{
anchors = (
{
name = bottom;
position = "{633, 0}";
},
{
name = top;
position = "{645, 505}";
},
{
name = top2;
position = "{344, 505}";
}
);
layerId = "E5D3352E-10FF-4C03-AD9F-F95B1FD01257";
paths = (
{
closed = 1;
nodes = (
"269 -10 OFFCURVE",
"320 11 OFFCURVE",
"343 40 CURVE",
"345 40 LINE",
"371 10 OFFCURVE",
"424 -10 OFFCURVE",
"484 -10 CURVE SMOOTH",
"599 -10 OFFCURVE",
"645 64 OFFCURVE",
"645 163 CURVE SMOOTH",
"645 320 LINE SMOOTH",
"645 377 OFFCURVE",
"627 411 OFFCURVE",
"579 435 CURVE",
"579 439 LINE",
"629 464 OFFCURVE",
"647 501 OFFCURVE",
"647 554 CURVE SMOOTH",
"647 563 LINE",
"463 563 LINE",
"463 554 LINE SMOOTH",
"463 506 OFFCURVE",
"450 483 OFFCURVE",
"398 483 CURVE SMOOTH",
"384 483 LINE",
"384 379 LINE",
"397 379 LINE SMOOTH",
"445 379 OFFCURVE",
"463 360 OFFCURVE",
"463 310 CURVE SMOOTH",
"463 154 LINE SMOOTH",
"463 141 OFFCURVE",
"455 134 OFFCURVE",
"439 134 CURVE SMOOTH",
"424 134 OFFCURVE",
"416 140 OFFCURVE",
"416 152 CURVE SMOOTH",
"416 311 LINE",
"274 311 LINE",
"274 152 LINE SMOOTH",
"274 140 OFFCURVE",
"266 134 OFFCURVE",
"250 134 CURVE SMOOTH",
"234 134 OFFCURVE",
"227 141 OFFCURVE",
"227 154 CURVE SMOOTH",
"227 353 LINE SMOOTH",
"227 375 OFFCURVE",
"243 387 OFFCURVE",
"264 387 CURVE SMOOTH",
"276 387 OFFCURVE",
"289 383 OFFCURVE",
"299 379 CURVE",
"326 501 LINE",
"288 518 OFFCURVE",
"240 531 OFFCURVE",
"197 531 CURVE SMOOTH",
"102 531 OFFCURVE",
"45 469 OFFCURVE",
"45 373 CURVE SMOOTH",
"45 170 LINE SMOOTH",
"45 62 OFFCURVE",
"103 -10 OFFCURVE",
"210 -10 CURVE SMOOTH"
);
}
);
width = 694;
},
{
anchors = (
{
name = bottom;
position = "{414, 0}";
},
{
name = top;
position = "{423, 504}";
},
{
name = top2;
position = "{245, 504}";
}
);
layerId = "DDDB2E70-9881-4210-B3C5-A030831183E9";
paths = (
{
closed = 1;
nodes = (
"194 -10 OFFCURVE",
"223 9 OFFCURVE",
"239 65 CURVE",
"241 65 LINE",
"257 9 OFFCURVE",
"287 -10 OFFCURVE",
"326 -10 CURVE SMOOTH",
"394 -10 OFFCURVE",
"421 49 OFFCURVE",
"421 147 CURVE SMOOTH",
"421 312 LINE SMOOTH",
"421 368 OFFCURVE",
"415 408 OFFCURVE",
"384 428 CURVE",
"384 429 LINE",
"415 443 OFFCURVE",
"423 488 OFFCURVE",
"423 541 CURVE SMOOTH",
"423 560 LINE",
"396 560 LINE",
"396 541 LINE SMOOTH",
"396 480 OFFCURVE",
"387 440 OFFCURVE",
"351 440 CURVE SMOOTH",
"336 440 LINE",
"336 418 LINE",
"351 418 LINE SMOOTH",
"384 418 OFFCURVE",
"395 380 OFFCURVE",
"395 310 CURVE SMOOTH",
"395 143 LINE SMOOTH",
"395 60 OFFCURVE",
"375 12 OFFCURVE",
"324 12 CURVE SMOOTH",
"273 12 OFFCURVE",
"252 60 OFFCURVE",
"252 129 CURVE SMOOTH",
"252 291 LINE",
"228 291 LINE",
"228 129 LINE SMOOTH",
"228 61 OFFCURVE",
"208 12 OFFCURVE",
"156 12 CURVE SMOOTH",
"105 12 OFFCURVE",
"85 61 OFFCURVE",
"85 143 CURVE SMOOTH",
"85 428 LINE SMOOTH",
"85 475 OFFCURVE",
"97 501 OFFCURVE",
"127 501 CURVE SMOOTH",
"145 501 OFFCURVE",
"160 492 OFFCURVE",
"171 482 CURVE",
"179 503 LINE",
"165 513 OFFCURVE",
"143 523 OFFCURVE",
"122 523 CURVE SMOOTH",
"83 523 OFFCURVE",
"59 491 OFFCURVE",
"59 427 CURVE SMOOTH",
"59 147 LINE SMOOTH",
"59 48 OFFCURVE",
"87 -10 OFFCURVE",
"155 -10 CURVE SMOOTH"
);
}
);
width = 480;
},
{
anchors = (
{
name = bottom;
position = "{437, 0}";
},
{
name = top;
position = "{444, 504}";
},
{
name = top2;
position = "{248, 504}";
}
);
layerId = "3A4E24C5-56F7-4F8A-8FFD-B2AF7CE4A726";
paths = (
{
closed = 1;
nodes = (
"196 -10 OFFCURVE",
"227 14 OFFCURVE",
"244 54 CURVE",
"246 54 LINE",
"265 14 OFFCURVE",
"295 -10 OFFCURVE",
"340 -10 CURVE SMOOTH",
"412 -10 OFFCURVE",
"444 50 OFFCURVE",
"444 148 CURVE SMOOTH",
"444 324 LINE SMOOTH",
"444 377 OFFCURVE",
"433 411 OFFCURVE",
"401 431 CURVE",
"401 434 LINE",
"434 458 OFFCURVE",
"445 494 OFFCURVE",
"445 546 CURVE SMOOTH",
"445 555 LINE",
"365 555 LINE",
"365 546 LINE SMOOTH",
"365 495 OFFCURVE",
"355 462 OFFCURVE",
"321 462 CURVE SMOOTH",
"310 462 LINE",
"310 406 LINE",
"320 406 LINE SMOOTH",
"351 406 OFFCURVE",
"365 377 OFFCURVE",
"365 323 CURVE SMOOTH",
"365 138 LINE SMOOTH",
"365 83 OFFCURVE",
"351 57 OFFCURVE",
"323 57 CURVE SMOOTH",
"291 57 OFFCURVE",
"280 91 OFFCURVE",
"280 150 CURVE SMOOTH",
"280 309 LINE",
"211 309 LINE",
"211 150 LINE SMOOTH",
"211 91 OFFCURVE",
"200 57 OFFCURVE",
"168 57 CURVE SMOOTH",
"139 57 OFFCURVE",
"126 83 OFFCURVE",
"126 138 CURVE SMOOTH",
"126 417 LINE SMOOTH",
"126 449 OFFCURVE",
"138 461 OFFCURVE",
"156 461 CURVE SMOOTH",
"165 461 OFFCURVE",
"175 458 OFFCURVE",
"184 454 CURVE",
"196 511 LINE",
"176 520 OFFCURVE",
"152 526 OFFCURVE",
"131 526 CURVE SMOOTH",
"78 526 OFFCURVE",
"47 487 OFFCURVE",
"47 416 CURVE SMOOTH",
"47 148 LINE SMOOTH",
"47 51 OFFCURVE",
"82 -10 OFFCURVE",
"152 -10 CURVE SMOOTH"
);
}
);
width = 494;
},
{
anchors = (
{
name = bottom;
position = "{534, 0}";
},
{
name = top;
position = "{529, 505}";
},
{
name = top2;
position = "{286, 505}";
}
);
layerId = "A6C8CBD9-95C8-4E45-A197-88A1149E2980";
paths = (
{
closed = 1;
nodes = (
"226 -10 OFFCURVE",
"278 22 OFFCURVE",
"292 54 CURVE",
"293 54 LINE",
"310 22 OFFCURVE",
"364 -10 OFFCURVE",
"414 -10 CURVE SMOOTH",
"500 -10 OFFCURVE",
"542 51 OFFCURVE",
"542 154 CURVE SMOOTH",
"542 321 LINE SMOOTH",
"542 377 OFFCURVE",
"528 411 OFFCURVE",
"489 434 CURVE",
"489 438 LINE",
"529 463 OFFCURVE",
"544 499 OFFCURVE",
"544 552 CURVE SMOOTH",
"544 560 LINE",
"389 560 LINE",
"389 552 LINE SMOOTH",
"389 503 OFFCURVE",
"379 478 OFFCURVE",
"337 478 CURVE SMOOTH",
"326 478 LINE",
"326 387 LINE",
"336 387 LINE SMOOTH",
"375 387 OFFCURVE",
"389 365 OFFCURVE",
"389 314 CURVE SMOOTH",
"389 149 LINE SMOOTH",
"389 125 OFFCURVE",
"382 113 OFFCURVE",
"370 113 CURVE SMOOTH",
"358 113 OFFCURVE",
"351 125 OFFCURVE",
"351 149 CURVE SMOOTH",
"351 311 LINE",
"237 311 LINE",
"237 149 LINE SMOOTH",
"237 125 OFFCURVE",
"230 113 OFFCURVE",
"218 113 CURVE SMOOTH",
"206 113 OFFCURVE",
"199 125 OFFCURVE",
"199 149 CURVE SMOOTH",
"199 371 LINE SMOOTH",
"199 395 OFFCURVE",
"212 407 OFFCURVE",
"229 407 CURVE SMOOTH",
"238 407 OFFCURVE",
"249 403 OFFCURVE",
"257 400 CURVE",
"279 504 LINE",
"248 519 OFFCURVE",
"208 530 OFFCURVE",
"172 530 CURVE SMOOTH",
"93 530 OFFCURVE",
"46 474 OFFCURVE",
"46 385 CURVE SMOOTH",
"46 154 LINE SMOOTH",
"46 51 OFFCURVE",
"89 -10 OFFCURVE",
"178 -10 CURVE SMOOTH"
);
}
);
width = 592;
}
);
note = uni0E9C;
unicode = 0E9C;
},
{
glyphname = "foFon-lao";
lastChange = "2017-06-02 13:33:53 +0000";
layers = (
{
anchors = (
{
name = bottom;
position = "{583, 0}";
},
{
name = top;
position = "{486, 504}";
},
{
name = top2;
position = "{346, 504}";
}
);
layerId = "64BC062E-13E4-450B-B24E-D8A474022433";
paths = (
{
closed = 1;
nodes = (
"273 -10 OFFCURVE",
"316 9 OFFCURVE",
"338 65 CURVE",
"340 65 LINE",
"362 9 OFFCURVE",
"405 -10 OFFCURVE",
"460 -10 CURVE SMOOTH",
"555 -10 OFFCURVE",
"593 49 OFFCURVE",
"593 147 CURVE SMOOTH",
"593 712 LINE",
"567 712 LINE",
"567 143 LINE SMOOTH",
"567 61 OFFCURVE",
"538 12 OFFCURVE",
"460 12 CURVE SMOOTH",
"382 12 OFFCURVE",
"351 61 OFFCURVE",
"351 129 CURVE SMOOTH",
"351 291 LINE",
"327 291 LINE",
"327 129 LINE SMOOTH",
"327 61 OFFCURVE",
"296 12 OFFCURVE",
"218 12 CURVE SMOOTH",
"140 12 OFFCURVE",
"111 61 OFFCURVE",
"111 143 CURVE SMOOTH",
"111 428 LINE SMOOTH",
"111 475 OFFCURVE",
"129 501 OFFCURVE",
"176 501 CURVE SMOOTH",
"204 501 OFFCURVE",
"228 492 OFFCURVE",
"245 482 CURVE",
"255 503 LINE",
"236 513 OFFCURVE",
"204 523 OFFCURVE",
"173 523 CURVE SMOOTH",
"118 523 OFFCURVE",
"85 491 OFFCURVE",
"85 427 CURVE SMOOTH",
"85 147 LINE SMOOTH",
"85 49 OFFCURVE",
"123 -10 OFFCURVE",
"218 -10 CURVE SMOOTH"
);
}
);
width = 678;
},
{
anchors = (
{
name = bottom;
position = "{628, 0}";
},
{
name = top;
position = "{516, 504}";
},
{
name = top2;
position = "{365, 504}";
}
);
layerId = "6449CA81-A7C3-4005-93E5-765657812F1B";
paths = (
{
closed = 1;
nodes = (
"290 -10 OFFCURVE",
"328 14 OFFCURVE",
"356 53 CURVE",
"360 53 LINE",
"388 14 OFFCURVE",
"426 -10 OFFCURVE",
"490 -10 CURVE SMOOTH",
"592 -10 OFFCURVE",
"638 51 OFFCURVE",
"638 148 CURVE SMOOTH",
"638 682 LINE",
"550 682 LINE",
"550 138 LINE SMOOTH",
"550 85 OFFCURVE",
"526 62 OFFCURVE",
"477 62 CURVE SMOOTH",
"418 62 OFFCURVE",
"401 94 OFFCURVE",
"401 152 CURVE SMOOTH",
"401 311 LINE",
"315 311 LINE",
"315 152 LINE SMOOTH",
"315 94 OFFCURVE",
"297 62 OFFCURVE",
"239 62 CURVE SMOOTH",
"189 62 OFFCURVE",
"166 85 OFFCURVE",
"166 138 CURVE SMOOTH",
"166 416 LINE SMOOTH",
"166 446 OFFCURVE",
"183 457 OFFCURVE",
"204 457 CURVE SMOOTH",
"215 457 OFFCURVE",
"228 454 OFFCURVE",
"240 451 CURVE",
"253 512 LINE",
"228 521 OFFCURVE",
"203 526 OFFCURVE",
"181 526 CURVE SMOOTH",
"117 526 OFFCURVE",
"78 486 OFFCURVE",
"78 415 CURVE SMOOTH",
"78 148 LINE SMOOTH",
"78 50 OFFCURVE",
"125 -10 OFFCURVE",
"226 -10 CURVE SMOOTH"
);
}
);
width = 720;
},
{
anchors = (
{
name = bottom;
position = "{635, 0}";
},
{
name = top;
position = "{431, 505}";
},
{
name = top2;
position = "{321, 505}";
}
);
layerId = "E5D3352E-10FF-4C03-AD9F-F95B1FD01257";
paths = (
{
closed = 1;
nodes = (
"269 -10 OFFCURVE",
"320 11 OFFCURVE",
"343 40 CURVE",
"345 40 LINE",
"371 10 OFFCURVE",
"424 -10 OFFCURVE",
"484 -10 CURVE SMOOTH",
"599 -10 OFFCURVE",
"645 64 OFFCURVE",
"645 163 CURVE SMOOTH",
"645 682 LINE",
"463 682 LINE",
"463 154 LINE SMOOTH",
"463 141 OFFCURVE",
"455 134 OFFCURVE",
"439 134 CURVE SMOOTH",
"424 134 OFFCURVE",
"416 140 OFFCURVE",
"416 152 CURVE SMOOTH",
"416 311 LINE",
"274 311 LINE",
"274 152 LINE SMOOTH",
"274 140 OFFCURVE",
"266 134 OFFCURVE",
"250 134 CURVE SMOOTH",
"234 134 OFFCURVE",
"227 141 OFFCURVE",
"227 154 CURVE SMOOTH",
"227 353 LINE SMOOTH",
"227 375 OFFCURVE",
"243 387 OFFCURVE",
"264 387 CURVE SMOOTH",
"276 387 OFFCURVE",
"289 383 OFFCURVE",
"299 379 CURVE",
"326 501 LINE",
"288 518 OFFCURVE",
"240 531 OFFCURVE",
"197 531 CURVE SMOOTH",
"102 531 OFFCURVE",
"45 469 OFFCURVE",
"45 373 CURVE SMOOTH",
"45 170 LINE SMOOTH",
"45 62 OFFCURVE",
"103 -10 OFFCURVE",
"210 -10 CURVE SMOOTH"
);
}
);
width = 695;
},
{
anchors = (
{
name = bottom;
position = "{414, 0}";
},
{
name = top;
position = "{344, 504}";
},
{
name = top2;
position = "{245, 504}";
}
);
layerId = "DDDB2E70-9881-4210-B3C5-A030831183E9";
paths = (
{
closed = 1;
nodes = (
"194 -10 OFFCURVE",
"223 9 OFFCURVE",
"239 65 CURVE",
"241 65 LINE",
"257 9 OFFCURVE",
"287 -10 OFFCURVE",
"326 -10 CURVE SMOOTH",
"394 -10 OFFCURVE",
"421 49 OFFCURVE",
"421 147 CURVE SMOOTH",
"421 712 LINE",
"395 712 LINE",
"395 143 LINE SMOOTH",
"395 60 OFFCURVE",
"375 12 OFFCURVE",
"324 12 CURVE SMOOTH",
"273 12 OFFCURVE",
"252 60 OFFCURVE",
"252 129 CURVE SMOOTH",
"252 291 LINE",
"228 291 LINE",
"228 129 LINE SMOOTH",
"228 61 OFFCURVE",
"208 12 OFFCURVE",
"156 12 CURVE SMOOTH",
"105 12 OFFCURVE",
"85 61 OFFCURVE",
"85 143 CURVE SMOOTH",
"85 428 LINE SMOOTH",
"85 475 OFFCURVE",
"97 501 OFFCURVE",
"127 501 CURVE SMOOTH",
"145 501 OFFCURVE",
"160 492 OFFCURVE",
"171 482 CURVE",
"179 503 LINE",
"165 513 OFFCURVE",
"143 523 OFFCURVE",
"122 523 CURVE SMOOTH",
"83 523 OFFCURVE",
"59 491 OFFCURVE",
"59 427 CURVE SMOOTH",
"59 147 LINE SMOOTH",
"59 48 OFFCURVE",
"87 -10 OFFCURVE",
"155 -10 CURVE SMOOTH"
);
}
);
width = 480;
},
{
anchors = (
{
name = bottom;
position = "{437, 0}";
},
{
name = top;
position = "{337, 504}";
},
{
name = top2;
position = "{243, 504}";
}
);
layerId = "3A4E24C5-56F7-4F8A-8FFD-B2AF7CE4A726";
paths = (
{
closed = 1;
nodes = (
"196 -10 OFFCURVE",
"227 14 OFFCURVE",
"244 54 CURVE",
"246 54 LINE",
"265 14 OFFCURVE",
"295 -10 OFFCURVE",
"340 -10 CURVE SMOOTH",
"412 -10 OFFCURVE",
"444 50 OFFCURVE",
"444 148 CURVE SMOOTH",
"444 685 LINE",
"365 685 LINE",
"365 138 LINE SMOOTH",
"365 83 OFFCURVE",
"351 57 OFFCURVE",
"323 57 CURVE SMOOTH",
"291 57 OFFCURVE",
"280 91 OFFCURVE",
"280 150 CURVE SMOOTH",
"280 309 LINE",
"211 309 LINE",
"211 150 LINE SMOOTH",
"211 91 OFFCURVE",
"200 57 OFFCURVE",
"168 57 CURVE SMOOTH",
"139 57 OFFCURVE",
"126 83 OFFCURVE",
"126 138 CURVE SMOOTH",
"126 417 LINE SMOOTH",
"126 449 OFFCURVE",
"138 461 OFFCURVE",
"156 461 CURVE SMOOTH",
"165 461 OFFCURVE",
"175 458 OFFCURVE",
"184 454 CURVE",
"196 511 LINE",
"176 520 OFFCURVE",
"152 526 OFFCURVE",
"131 526 CURVE SMOOTH",
"78 526 OFFCURVE",
"47 487 OFFCURVE",
"47 416 CURVE SMOOTH",
"47 148 LINE SMOOTH",
"47 51 OFFCURVE",
"82 -10 OFFCURVE",
"152 -10 CURVE SMOOTH"
);
}
);
width = 494;
},
{
anchors = (
{
name = bottom;
position = "{534, 0}";
},
{
name = top;
position = "{361, 505}";
},
{
name = top2;
position = "{266, 505}";
}
);
layerId = "A6C8CBD9-95C8-4E45-A197-88A1149E2980";
paths = (
{
closed = 1;
nodes = (
"226 -10 OFFCURVE",
"278 22 OFFCURVE",
"292 54 CURVE",
"293 54 LINE",
"310 22 OFFCURVE",
"364 -10 OFFCURVE",
"414 -10 CURVE SMOOTH",
"500 -10 OFFCURVE",
"542 51 OFFCURVE",
"542 154 CURVE SMOOTH",
"542 682 LINE",
"389 682 LINE",
"389 149 LINE SMOOTH",
"389 125 OFFCURVE",
"382 113 OFFCURVE",
"370 113 CURVE SMOOTH",
"358 113 OFFCURVE",
"351 125 OFFCURVE",
"351 149 CURVE SMOOTH",
"351 311 LINE",
"237 311 LINE",
"237 149 LINE SMOOTH",
"237 125 OFFCURVE",
"230 113 OFFCURVE",
"218 113 CURVE SMOOTH",
"206 113 OFFCURVE",
"199 125 OFFCURVE",
"199 149 CURVE SMOOTH",
"199 371 LINE SMOOTH",
"199 395 OFFCURVE",
"212 407 OFFCURVE",
"229 407 CURVE SMOOTH",
"238 407 OFFCURVE",
"249 403 OFFCURVE",
"257 400 CURVE",
"279 504 LINE",
"248 519 OFFCURVE",
"208 530 OFFCURVE",
"172 530 CURVE SMOOTH",
"93 530 OFFCURVE",
"46 474 OFFCURVE",
"46 385 CURVE SMOOTH",
"46 154 LINE SMOOTH",
"46 51 OFFCURVE",
"89 -10 OFFCURVE",
"178 -10 CURVE SMOOTH"
);
}
);
width = 592;
}
);
note = uni0E9D;
unicode = 0E9D;
},
{
glyphname = "phoPhu-lao";
lastChange = "2017-06-02 13:33:53 +0000";
layers = (
{
anchors = (
{
name = bottom;
position = "{593, 0}";
},
{
name = top;
position = "{603, 504}";
},
{
name = top2;
position = "{345, 504}";
}
);
layerId = "64BC062E-13E4-450B-B24E-D8A474022433";
paths = (
{
closed = 1;
nodes = (
"287 -10 OFFCURVE",
"322 27 OFFCURVE",
"343 77 CURVE",
"345 77 LINE",
"366 27 OFFCURVE",
"401 -10 OFFCURVE",
"473 -10 CURVE SMOOTH",
"555 -10 OFFCURVE",
"603 38 OFFCURVE",
"603 138 CURVE SMOOTH",
"603 515 LINE",
"577 515 LINE",
"577 134 LINE SMOOTH",
"577 49 OFFCURVE",
"538 12 OFFCURVE",
"473 12 CURVE SMOOTH",
"395 12 OFFCURVE",
"357 65 OFFCURVE",
"357 140 CURVE SMOOTH",
"357 515 LINE",
"331 515 LINE",
"331 140 LINE SMOOTH",
"331 65 OFFCURVE",
"293 12 OFFCURVE",
"215 12 CURVE SMOOTH",
"150 12 OFFCURVE",
"111 49 OFFCURVE",
"111 134 CURVE SMOOTH",
"111 515 LINE",
"85 515 LINE",
"85 138 LINE SMOOTH",
"85 38 OFFCURVE",
"133 -10 OFFCURVE",
"215 -10 CURVE SMOOTH"
);
}
);
width = 688;
},
{
anchors = (
{
name = bottom;
position = "{634, 0}";
},
{
name = top;
position = "{644, 504}";
},
{
name = top2;
position = "{361, 504}";
}
);
layerId = "6449CA81-A7C3-4005-93E5-765657812F1B";
paths = (
{
closed = 1;
nodes = (
"289 -10 OFFCURVE",
"337 19 OFFCURVE",
"358 57 CURVE",
"364 57 LINE",
"385 19 OFFCURVE",
"433 -10 OFFCURVE",
"499 -10 CURVE SMOOTH",
"588 -10 OFFCURVE",
"644 42 OFFCURVE",
"644 149 CURVE SMOOTH",
"644 516 LINE",
"556 516 LINE",
"556 147 LINE SMOOTH",
"556 87 OFFCURVE",
"531 62 OFFCURVE",
"482 62 CURVE SMOOTH",
"430 62 OFFCURVE",
"404 91 OFFCURVE",
"404 149 CURVE SMOOTH",
"404 516 LINE",
"318 516 LINE",
"318 149 LINE SMOOTH",
"318 91 OFFCURVE",
"292 62 OFFCURVE",
"240 62 CURVE SMOOTH",
"191 62 OFFCURVE",
"166 87 OFFCURVE",
"166 147 CURVE SMOOTH",
"166 516 LINE",
"78 516 LINE",
"78 149 LINE SMOOTH",
"78 42 OFFCURVE",
"134 -10 OFFCURVE",
"223 -10 CURVE SMOOTH"
);
}
);
width = 726;
},
{
anchors = (
{
name = bottom;
position = "{655, 0}";
},
{
name = top;
position = "{665, 505}";
},
{
name = top2;
position = "{355, 505}";
}
);
layerId = "E5D3352E-10FF-4C03-AD9F-F95B1FD01257";
paths = (
{
closed = 1;
nodes = (
"286 -10 OFFCURVE",
"329 21 OFFCURVE",
"352 50 CURVE",
"358 50 LINE",
"381 21 OFFCURVE",
"424 -10 OFFCURVE",
"494 -10 CURVE SMOOTH",
"591 -10 OFFCURVE",
"665 51 OFFCURVE",
"665 174 CURVE SMOOTH",
"665 521 LINE",
"483 521 LINE",
"483 159 LINE SMOOTH",
"483 145 OFFCURVE",
"473 134 OFFCURVE",
"455 134 CURVE SMOOTH",
"437 134 OFFCURVE",
"427 145 OFFCURVE",
"427 158 CURVE SMOOTH",
"427 521 LINE",
"283 521 LINE",
"283 158 LINE SMOOTH",
"283 145 OFFCURVE",
"273 134 OFFCURVE",
"256 134 CURVE SMOOTH",
"238 134 OFFCURVE",
"227 145 OFFCURVE",
"227 159 CURVE SMOOTH",
"227 521 LINE",
"45 521 LINE",
"45 174 LINE SMOOTH",
"45 51 OFFCURVE",
"119 -10 OFFCURVE",
"216 -10 CURVE SMOOTH"
);
}
);
width = 710;
},
{
anchors = (
{
name = bottom;
position = "{421, 0}";
},
{
name = top;
position = "{428, 504}";
},
{
name = top2;
position = "{244, 504}";
}
);
layerId = "DDDB2E70-9881-4210-B3C5-A030831183E9";
paths = (
{
closed = 1;
nodes = (
"202 -10 OFFCURVE",
"228 27 OFFCURVE",
"242 77 CURVE",
"244 77 LINE",
"259 27 OFFCURVE",
"284 -10 OFFCURVE",
"334 -10 CURVE SMOOTH",
"392 -10 OFFCURVE",
"427 38 OFFCURVE",
"427 138 CURVE SMOOTH",
"427 515 LINE",
"401 515 LINE",
"401 134 LINE SMOOTH",
"401 49 OFFCURVE",
"375 12 OFFCURVE",
"332 12 CURVE SMOOTH",
"280 12 OFFCURVE",
"256 65 OFFCURVE",
"256 140 CURVE SMOOTH",
"256 515 LINE",
"230 515 LINE",
"230 140 LINE SMOOTH",
"230 65 OFFCURVE",
"205 12 OFFCURVE",
"154 12 CURVE SMOOTH",
"111 12 OFFCURVE",
"85 49 OFFCURVE",
"85 134 CURVE SMOOTH",
"85 515 LINE",
"59 515 LINE",
"59 138 LINE SMOOTH",
"59 38 OFFCURVE",
"94 -10 OFFCURVE",
"152 -10 CURVE SMOOTH"
);
}
);
width = 486;
},
{
anchors = (
{
name = bottom;
position = "{445, 0}";
},
{
name = top;
position = "{452, 504}";
},
{
name = top2;
position = "{250, 504}";
}
);
layerId = "3A4E24C5-56F7-4F8A-8FFD-B2AF7CE4A726";
paths = (
{
closed = 1;
nodes = (
"201 -10 OFFCURVE",
"233 20 OFFCURVE",
"248 59 CURVE",
"252 59 LINE",
"267 20 OFFCURVE",
"298 -10 OFFCURVE",
"346 -10 CURVE SMOOTH",
"409 -10 OFFCURVE",
"452 42 OFFCURVE",
"452 148 CURVE SMOOTH",
"452 516 LINE",
"373 516 LINE",
"373 146 LINE SMOOTH",
"373 83 OFFCURVE",
"358 57 OFFCURVE",
"330 57 CURVE SMOOTH",
"299 57 OFFCURVE",
"284 88 OFFCURVE",
"284 148 CURVE SMOOTH",
"284 516 LINE",
"215 516 LINE",
"215 148 LINE SMOOTH",
"215 88 OFFCURVE",
"200 57 OFFCURVE",
"170 57 CURVE SMOOTH",
"142 57 OFFCURVE",
"126 83 OFFCURVE",
"126 146 CURVE SMOOTH",
"126 516 LINE",
"47 516 LINE",
"47 148 LINE SMOOTH",
"47 42 OFFCURVE",
"90 -10 OFFCURVE",
"153 -10 CURVE SMOOTH"
);
}
);
width = 500;
},
{
anchors = (
{
name = bottom;
position = "{545, 0}";
},
{
name = top;
position = "{553, 505}";
},
{
name = top2;
position = "{300, 505}";
}
);
layerId = "A6C8CBD9-95C8-4E45-A197-88A1149E2980";
paths = (
{
closed = 1;
nodes = (
"246 -10 OFFCURVE",
"280 23 OFFCURVE",
"297 52 CURVE",
"302 52 LINE",
"319 23 OFFCURVE",
"353 -10 OFFCURVE",
"413 -10 CURVE SMOOTH",
"507 -10 OFFCURVE",
"553 48 OFFCURVE",
"553 167 CURVE SMOOTH",
"553 520 LINE",
"400 520 LINE",
"400 152 LINE SMOOTH",
"400 124 OFFCURVE",
"394 113 OFFCURVE",
"380 113 CURVE SMOOTH",
"365 113 OFFCURVE",
"360 124 OFFCURVE",
"360 152 CURVE SMOOTH",
"360 520 LINE",
"239 520 LINE",
"239 152 LINE SMOOTH",
"239 124 OFFCURVE",
"234 113 OFFCURVE",
"219 113 CURVE SMOOTH",
"205 113 OFFCURVE",
"199 124 OFFCURVE",
"199 152 CURVE SMOOTH",
"199 520 LINE",
"46 520 LINE",
"46 167 LINE SMOOTH",
"46 48 OFFCURVE",
"92 -10 OFFCURVE",
"186 -10 CURVE SMOOTH"
);
}
);
width = 599;
}
);
note = uni0E9E;
unicode = 0E9E;
},
{
glyphname = "foFai-lao";
lastChange = "2017-06-02 13:33:53 +0000";
layers = (
{
anchors = (
{
name = bottom;
position = "{593, 0}";
},
{
name = top;
position = "{496, 504}";
},
{
name = top2;
position = "{345, 504}";
}
);
layerId = "64BC062E-13E4-450B-B24E-D8A474022433";
paths = (
{
closed = 1;
nodes = (
"287 -10 OFFCURVE",
"322 27 OFFCURVE",
"343 77 CURVE",
"345 77 LINE",
"366 27 OFFCURVE",
"401 -10 OFFCURVE",
"473 -10 CURVE SMOOTH",
"555 -10 OFFCURVE",
"603 38 OFFCURVE",
"603 138 CURVE SMOOTH",
"603 712 LINE",
"577 712 LINE",
"577 134 LINE SMOOTH",
"577 49 OFFCURVE",
"538 12 OFFCURVE",
"473 12 CURVE SMOOTH",
"395 12 OFFCURVE",
"357 65 OFFCURVE",
"357 140 CURVE SMOOTH",
"357 515 LINE",
"331 515 LINE",
"331 140 LINE SMOOTH",
"331 65 OFFCURVE",
"293 12 OFFCURVE",
"215 12 CURVE SMOOTH",
"150 12 OFFCURVE",
"111 49 OFFCURVE",
"111 134 CURVE SMOOTH",
"111 515 LINE",
"85 515 LINE",
"85 138 LINE SMOOTH",
"85 38 OFFCURVE",
"133 -10 OFFCURVE",
"215 -10 CURVE SMOOTH"
);
}
);
width = 688;
},
{
anchors = (
{
name = bottom;
position = "{634, 0}";
},
{
name = top;
position = "{522, 504}";
},
{
name = top2;
position = "{361, 504}";
}
);
layerId = "6449CA81-A7C3-4005-93E5-765657812F1B";
paths = (
{
closed = 1;
nodes = (
"289 -10 OFFCURVE",
"337 19 OFFCURVE",
"358 57 CURVE",
"364 57 LINE",
"385 19 OFFCURVE",
"433 -10 OFFCURVE",
"499 -10 CURVE SMOOTH",
"588 -10 OFFCURVE",
"644 42 OFFCURVE",
"644 149 CURVE SMOOTH",
"644 682 LINE",
"556 682 LINE",
"556 147 LINE SMOOTH",
"556 87 OFFCURVE",
"531 62 OFFCURVE",
"482 62 CURVE SMOOTH",
"430 62 OFFCURVE",
"404 91 OFFCURVE",
"404 149 CURVE SMOOTH",
"404 516 LINE",
"318 516 LINE",
"318 149 LINE SMOOTH",
"318 91 OFFCURVE",
"292 62 OFFCURVE",
"240 62 CURVE SMOOTH",
"191 62 OFFCURVE",
"166 87 OFFCURVE",
"166 147 CURVE SMOOTH",
"166 516 LINE",
"78 516 LINE",
"78 149 LINE SMOOTH",
"78 42 OFFCURVE",
"134 -10 OFFCURVE",
"223 -10 CURVE SMOOTH"
);
}
);
width = 726;
},
{
anchors = (
{
name = bottom;
position = "{655, 0}";
},
{
name = top;
position = "{451, 505}";
},
{
name = top2;
position = "{325, 505}";
}
);
layerId = "E5D3352E-10FF-4C03-AD9F-F95B1FD01257";
paths = (
{
closed = 1;
nodes = (
"286 -10 OFFCURVE",
"329 21 OFFCURVE",
"352 50 CURVE",
"358 50 LINE",
"381 21 OFFCURVE",
"424 -10 OFFCURVE",
"494 -10 CURVE SMOOTH",
"591 -10 OFFCURVE",
"665 51 OFFCURVE",
"665 174 CURVE SMOOTH",
"665 682 LINE",
"483 682 LINE",
"483 159 LINE SMOOTH",
"483 145 OFFCURVE",
"473 134 OFFCURVE",
"455 134 CURVE SMOOTH",
"437 134 OFFCURVE",
"427 145 OFFCURVE",
"427 158 CURVE SMOOTH",
"427 521 LINE",
"283 521 LINE",
"283 158 LINE SMOOTH",
"283 145 OFFCURVE",
"273 134 OFFCURVE",
"256 134 CURVE SMOOTH",
"238 134 OFFCURVE",
"227 145 OFFCURVE",
"227 159 CURVE SMOOTH",
"227 521 LINE",
"45 521 LINE",
"45 174 LINE SMOOTH",
"45 51 OFFCURVE",
"119 -10 OFFCURVE",
"216 -10 CURVE SMOOTH"
);
}
);
width = 715;
},
{
anchors = (
{
name = bottom;
position = "{421, 0}";
},
{
name = top;
position = "{351, 504}";
},
{
name = top2;
position = "{244, 504}";
}
);
layerId = "DDDB2E70-9881-4210-B3C5-A030831183E9";
paths = (
{
closed = 1;
nodes = (
"202 -10 OFFCURVE",
"228 27 OFFCURVE",
"242 77 CURVE",
"244 77 LINE",
"259 27 OFFCURVE",
"284 -10 OFFCURVE",
"334 -10 CURVE SMOOTH",
"392 -10 OFFCURVE",
"427 38 OFFCURVE",
"427 138 CURVE SMOOTH",
"427 712 LINE",
"401 712 LINE",
"401 134 LINE SMOOTH",
"401 49 OFFCURVE",
"375 12 OFFCURVE",
"332 12 CURVE SMOOTH",
"280 12 OFFCURVE",
"256 65 OFFCURVE",
"256 140 CURVE SMOOTH",
"256 515 LINE",
"230 515 LINE",
"230 140 LINE SMOOTH",
"230 65 OFFCURVE",
"205 12 OFFCURVE",
"154 12 CURVE SMOOTH",
"111 12 OFFCURVE",
"85 49 OFFCURVE",
"85 134 CURVE SMOOTH",
"85 515 LINE",
"59 515 LINE",
"59 138 LINE SMOOTH",
"59 38 OFFCURVE",
"94 -10 OFFCURVE",
"152 -10 CURVE SMOOTH"
);
}
);
width = 486;
},
{
anchors = (
{
name = bottom;
position = "{445, 0}";
},
{
name = top;
position = "{345, 504}";
},
{
name = top2;
position = "{242, 504}";
}
);
layerId = "3A4E24C5-56F7-4F8A-8FFD-B2AF7CE4A726";
paths = (
{
closed = 1;
nodes = (
"201 -10 OFFCURVE",
"233 20 OFFCURVE",
"248 59 CURVE",
"252 59 LINE",
"267 20 OFFCURVE",
"298 -10 OFFCURVE",
"346 -10 CURVE SMOOTH",
"409 -10 OFFCURVE",
"452 42 OFFCURVE",
"452 148 CURVE SMOOTH",
"452 685 LINE",
"373 685 LINE",
"373 146 LINE SMOOTH",
"373 83 OFFCURVE",
"358 57 OFFCURVE",
"330 57 CURVE SMOOTH",
"299 57 OFFCURVE",
"284 88 OFFCURVE",
"284 148 CURVE SMOOTH",
"284 516 LINE",
"215 516 LINE",
"215 148 LINE SMOOTH",
"215 88 OFFCURVE",
"200 57 OFFCURVE",
"170 57 CURVE SMOOTH",
"142 57 OFFCURVE",
"126 83 OFFCURVE",
"126 146 CURVE SMOOTH",
"126 516 LINE",
"47 516 LINE",
"47 148 LINE SMOOTH",
"47 42 OFFCURVE",
"90 -10 OFFCURVE",
"153 -10 CURVE SMOOTH"
);
}
);
width = 502;
},
{
anchors = (
{
name = bottom;
position = "{545, 0}";
},
{
name = top;
position = "{372, 505}";
},
{
name = top2;
position = "{274, 505}";
}
);
layerId = "A6C8CBD9-95C8-4E45-A197-88A1149E2980";
paths = (
{
closed = 1;
nodes = (
"246 -10 OFFCURVE",
"280 23 OFFCURVE",
"297 52 CURVE",
"302 52 LINE",
"319 23 OFFCURVE",
"353 -10 OFFCURVE",
"413 -10 CURVE SMOOTH",
"507 -10 OFFCURVE",
"553 48 OFFCURVE",
"553 167 CURVE SMOOTH",
"553 682 LINE",
"400 682 LINE",
"400 152 LINE SMOOTH",
"400 124 OFFCURVE",
"394 113 OFFCURVE",
"380 113 CURVE SMOOTH",
"365 113 OFFCURVE",
"360 124 OFFCURVE",
"360 152 CURVE SMOOTH",
"360 520 LINE",
"239 520 LINE",
"239 152 LINE SMOOTH",
"239 124 OFFCURVE",
"234 113 OFFCURVE",
"219 113 CURVE SMOOTH",
"205 113 OFFCURVE",
"199 124 OFFCURVE",
"199 152 CURVE SMOOTH",
"199 520 LINE",
"46 520 LINE",
"46 167 LINE SMOOTH",
"46 48 OFFCURVE",
"92 -10 OFFCURVE",
"186 -10 CURVE SMOOTH"
);
}
);
width = 603;
}
);
note = uni0E9F;
unicode = 0E9F;
},
{
glyphname = "moMa-lao";
lastChange = "2017-06-02 13:33:53 +0000";
layers = (
{
anchors = (
{
name = bottom;
position = "{498, 0}";
},
{
name = top;
position = "{508, 504}";
},
{
name = top2;
position = "{325, 504}";
}
);
layerId = "64BC062E-13E4-450B-B24E-D8A474022433";
paths = (
{
closed = 1;
nodes = (
"137 -10 OFFCURVE",
"159 19 OFFCURVE",
"159 85 CURVE SMOOTH",
"159 117 LINE",
"141 98 LINE",
"160 98 LINE",
"188 32 OFFCURVE",
"259 -10 OFFCURVE",
"341 -10 CURVE SMOOTH",
"434 -10 OFFCURVE",
"508 46 OFFCURVE",
"508 159 CURVE SMOOTH",
"508 515 LINE",
"482 515 LINE",
"482 160 LINE SMOOTH",
"482 66 OFFCURVE",
"428 12 OFFCURVE",
"339 12 CURVE SMOOTH",
"233 12 OFFCURVE",
"159 89 OFFCURVE",
"159 183 CURVE SMOOTH",
"159 515 LINE",
"133 515 LINE",
"133 79 LINE SMOOTH",
"133 28 OFFCURVE",
"115 13 OFFCURVE",
"81 13 CURVE SMOOTH",
"66 13 OFFCURVE",
"56 16 OFFCURVE",
"43 20 CURVE",
"38 -3 LINE",
"51 -8 OFFCURVE",
"67 -10 OFFCURVE",
"82 -10 CURVE SMOOTH"
);
}
);
width = 593;
},
{
anchors = (
{
name = bottom;
position = "{516, 0}";
},
{
name = top;
position = "{526, 504}";
},
{
name = top2;
position = "{312, 504}";
}
);
layerId = "6449CA81-A7C3-4005-93E5-765657812F1B";
paths = (
{
closed = 1;
nodes = (
"150 -10 OFFCURVE",
"183 14 OFFCURVE",
"183 58 CURVE SMOOTH",
"183 77 LINE",
"148 47 LINE",
"185 47 LINE",
"229 3 OFFCURVE",
"278 -10 OFFCURVE",
"332 -10 CURVE SMOOTH",
"455 -10 OFFCURVE",
"526 56 OFFCURVE",
"526 182 CURVE SMOOTH",
"526 516 LINE",
"438 516 LINE",
"438 188 LINE SMOOTH",
"438 108 OFFCURVE",
"399 62 OFFCURVE",
"317 62 CURVE SMOOTH",
"256 62 OFFCURVE",
"194 87 OFFCURVE",
"194 180 CURVE SMOOTH",
"194 516 LINE",
"106 516 LINE",
"106 98 LINE SMOOTH",
"106 69 OFFCURVE",
"89 59 OFFCURVE",
"67 59 CURVE SMOOTH",
"57 59 OFFCURVE",
"45 61 OFFCURVE",
"33 65 CURVE",
"20 4 LINE",
"42 -4 OFFCURVE",
"68 -10 OFFCURVE",
"95 -10 CURVE SMOOTH"
);
}
);
width = 608;
},
{
anchors = (
{
name = bottom;
position = "{575, 0}";
},
{
name = top;
position = "{585, 504}";
},
{
name = top2;
position = "{342, 504}";
}
);
layerId = "E5D3352E-10FF-4C03-AD9F-F95B1FD01257";
paths = (
{
closed = 1;
nodes = (
"199 -10 OFFCURVE",
"244 22 OFFCURVE",
"244 74 CURVE SMOOTH",
"244 92 LINE",
"209 63 LINE",
"245 63 LINE",
"280 17 OFFCURVE",
"324 -10 OFFCURVE",
"396 -10 CURVE SMOOTH",
"527 -10 OFFCURVE",
"585 77 OFFCURVE",
"585 177 CURVE SMOOTH",
"585 521 LINE",
"393 521 LINE",
"393 192 LINE SMOOTH",
"393 152 OFFCURVE",
"377 134 OFFCURVE",
"343 134 CURVE SMOOTH",
"308 134 OFFCURVE",
"294 152 OFFCURVE",
"294 191 CURVE SMOOTH",
"294 521 LINE",
"102 521 LINE",
"102 157 LINE SMOOTH",
"102 142 OFFCURVE",
"95 134 OFFCURVE",
"77 134 CURVE SMOOTH",
"64 134 OFFCURVE",
"52 138 OFFCURVE",
"42 142 CURVE",
"15 21 LINE",
"47 2 OFFCURVE",
"87 -10 OFFCURVE",
"130 -10 CURVE SMOOTH"
);
}
);
width = 630;
},
{
anchors = (
{
name = bottom;
position = "{351, 0}";
},
{
name = top;
position = "{358, 504}";
},
{
name = top2;
position = "{226, 504}";
}
);
layerId = "DDDB2E70-9881-4210-B3C5-A030831183E9";
paths = (
{
closed = 1;
nodes = (
"97 -10 OFFCURVE",
"114 18 OFFCURVE",
"114 85 CURVE SMOOTH",
"114 117 LINE",
"99 98 LINE",
"115 98 LINE",
"136 32 OFFCURVE",
"182 -10 OFFCURVE",
"239 -10 CURVE SMOOTH",
"305 -10 OFFCURVE",
"358 46 OFFCURVE",
"358 159 CURVE SMOOTH",
"358 515 LINE",
"332 515 LINE",
"332 160 LINE SMOOTH",
"332 66 OFFCURVE",
"295 12 OFFCURVE",
"236 12 CURVE SMOOTH",
"165 12 OFFCURVE",
"115 89 OFFCURVE",
"115 183 CURVE SMOOTH",
"115 515 LINE",
"89 515 LINE",
"89 79 LINE SMOOTH",
"89 28 OFFCURVE",
"77 13 OFFCURVE",
"55 13 CURVE SMOOTH",
"45 13 OFFCURVE",
"37 16 OFFCURVE",
"29 20 CURVE",
"24 -3 LINE",
"34 -8 OFFCURVE",
"47 -10 OFFCURVE",
"58 -10 CURVE SMOOTH"
);
}
);
width = 417;
},
{
anchors = (
{
name = bottom;
position = "{374, 0}";
},
{
name = top;
position = "{381, 504}";
},
{
name = top2;
position = "{227, 504}";
}
);
layerId = "3A4E24C5-56F7-4F8A-8FFD-B2AF7CE4A726";
paths = (
{
closed = 1;
nodes = (
"116 -10 OFFCURVE",
"141 14 OFFCURVE",
"141 61 CURVE SMOOTH",
"141 81 LINE",
"118 52 LINE",
"142 52 LINE",
"169 6 OFFCURVE",
"205 -10 OFFCURVE",
"248 -10 CURVE SMOOTH",
"335 -10 OFFCURVE",
"381 56 OFFCURVE",
"381 180 CURVE SMOOTH",
"381 516 LINE",
"299 516 LINE",
"299 185 LINE SMOOTH",
"299 105 OFFCURVE",
"277 57 OFFCURVE",
"229 57 CURVE SMOOTH",
"191 57 OFFCURVE",
"157 86 OFFCURVE",
"157 180 CURVE SMOOTH",
"157 516 LINE",
"75 516 LINE",
"75 96 LINE SMOOTH",
"75 65 OFFCURVE",
"66 55 OFFCURVE",
"50 55 CURVE SMOOTH",
"42 55 OFFCURVE",
"34 57 OFFCURVE",
"26 61 CURVE",
"14 3 LINE",
"31 -4 OFFCURVE",
"52 -10 OFFCURVE",
"74 -10 CURVE SMOOTH"
);
}
);
width = 429;
},
{
anchors = (
{
name = bottom;
position = "{478, 0}";
},
{
name = top;
position = "{486, 504}";
},
{
name = top2;
position = "{289, 504}";
}
);
layerId = "A6C8CBD9-95C8-4E45-A197-88A1149E2980";
paths = (
{
closed = 1;
nodes = (
"177 -10 OFFCURVE",
"214 20 OFFCURVE",
"214 69 CURVE SMOOTH",
"214 88 LINE",
"186 58 LINE",
"214 58 LINE",
"243 11 OFFCURVE",
"279 -10 OFFCURVE",
"334 -10 CURVE SMOOTH",
"442 -10 OFFCURVE",
"486 72 OFFCURVE",
"486 178 CURVE SMOOTH",
"486 520 LINE",
"324 520 LINE",
"324 191 LINE SMOOTH",
"324 137 OFFCURVE",
"314 113 OFFCURVE",
"289 113 CURVE SMOOTH",
"265 113 OFFCURVE",
"257 135 OFFCURVE",
"257 188 CURVE SMOOTH",
"257 520 LINE",
"95 520 LINE",
"95 140 LINE SMOOTH",
"95 121 OFFCURVE",
"90 112 OFFCURVE",
"75 112 CURVE SMOOTH",
"65 112 OFFCURVE",
"56 116 OFFCURVE",
"48 120 CURVE",
"25 16 LINE",
"51 0 OFFCURVE",
"85 -10 OFFCURVE",
"119 -10 CURVE SMOOTH"
);
}
);
width = 532;
}
);
note = uni0EA1;
unicode = 0EA1;
},
{
glyphname = "yoYa-lao";
lastChange = "2017-06-02 13:33:53 +0000";
layers = (
{
anchors = (
{
name = bottom;
position = "{466, 0}";
},
{
name = top;
position = "{369, 504}";
},
{
name = top2;
position = "{289, 504}";
}
);
layerId = "64BC062E-13E4-450B-B24E-D8A474022433";
paths = (
{
closed = 1;
nodes = (
"388 -10 OFFCURVE",
"476 43 OFFCURVE",
"476 168 CURVE SMOOTH",
"476 712 LINE",
"450 712 LINE",
"450 162 LINE SMOOTH",
"450 51 OFFCURVE",
"363 12 OFFCURVE",
"271 12 CURVE SMOOTH",
"181 12 OFFCURVE",
"95 50 OFFCURVE",
"95 148 CURVE SMOOTH",
"95 222 OFFCURVE",
"145 263 OFFCURVE",
"226 263 CURVE SMOOTH",
"264 263 LINE",
"264 285 LINE",
"226 285 LINE SMOOTH",
"166 285 OFFCURVE",
"92 313 OFFCURVE",
"92 398 CURVE SMOOTH",
"92 465 OFFCURVE",
"139 501 OFFCURVE",
"206 501 CURVE SMOOTH",
"233 501 OFFCURVE",
"262 495 OFFCURVE",
"276 491 CURVE",
"281 512 LINE",
"261 518 OFFCURVE",
"231 523 OFFCURVE",
"204 523 CURVE SMOOTH",
"121 523 OFFCURVE",
"65 477 OFFCURVE",
"65 397 CURVE SMOOTH",
"65 319 OFFCURVE",
"119 288 OFFCURVE",
"155 275 CURVE",
"155 271 LINE",
"123 258 OFFCURVE",
"68 232 OFFCURVE",
"68 148 CURVE SMOOTH",
"68 47 OFFCURVE",
"147 -10 OFFCURVE",
"270 -10 CURVE SMOOTH"
);
}
);
width = 561;
},
{
anchors = (
{
name = bottom;
position = "{521, 0}";
},
{
name = top;
position = "{410, 512}";
},
{
name = top2;
position = "{293, 512}";
}
);
layerId = "6449CA81-A7C3-4005-93E5-765657812F1B";
paths = (
{
closed = 1;
nodes = (
"449 -10 OFFCURVE",
"531 48 OFFCURVE",
"531 181 CURVE SMOOTH",
"531 683 LINE",
"443 683 LINE",
"443 172 LINE SMOOTH",
"443 95 OFFCURVE",
"398 63 OFFCURVE",
"301 63 CURVE SMOOTH",
"198 63 OFFCURVE",
"156 99 OFFCURVE",
"156 159 CURVE SMOOTH",
"156 218 OFFCURVE",
"196 246 OFFCURVE",
"272 246 CURVE SMOOTH",
"321 246 LINE",
"321 310 LINE",
"272 310 LINE SMOOTH",
"215 310 OFFCURVE",
"156 323 OFFCURVE",
"156 386 CURVE SMOOTH",
"156 429 OFFCURVE",
"184 454 OFFCURVE",
"238 454 CURVE SMOOTH",
"264 454 OFFCURVE",
"288 448 OFFCURVE",
"303 443 CURVE",
"318 511 LINE",
"298 520 OFFCURVE",
"262 526 OFFCURVE",
"227 526 CURVE SMOOTH",
"112 526 OFFCURVE",
"68 462 OFFCURVE",
"68 395 CURVE SMOOTH",
"68 323 OFFCURVE",
"120 290 OFFCURVE",
"161 278 CURVE",
"161 274 LINE",
"118 268 OFFCURVE",
"68 234 OFFCURVE",
"68 153 CURVE SMOOTH",
"68 50 OFFCURVE",
"148 -10 OFFCURVE",
"300 -10 CURVE SMOOTH"
);
}
);
width = 613;
},
{
anchors = (
{
name = bottom;
position = "{539, 0}";
},
{
name = top;
position = "{335, 505}";
},
{
name = top2;
position = "{213, 505}";
}
);
layerId = "E5D3352E-10FF-4C03-AD9F-F95B1FD01257";
paths = (
{
closed = 1;
nodes = (
"455 -10 OFFCURVE",
"549 51 OFFCURVE",
"549 198 CURVE SMOOTH",
"549 682 LINE",
"357 682 LINE",
"357 188 LINE SMOOTH",
"357 157 OFFCURVE",
"327 134 OFFCURVE",
"282 134 CURVE SMOOTH",
"249 134 OFFCURVE",
"213 146 OFFCURVE",
"213 173 CURVE SMOOTH",
"213 190 OFFCURVE",
"227 208 OFFCURVE",
"258 208 CURVE SMOOTH",
"310 208 LINE",
"310 315 LINE",
"258 315 LINE SMOOTH",
"230 315 OFFCURVE",
"213 330 OFFCURVE",
"213 355 CURVE SMOOTH",
"213 376 OFFCURVE",
"225 388 OFFCURVE",
"251 388 CURVE SMOOTH",
"263 388 OFFCURVE",
"280 385 OFFCURVE",
"293 381 CURVE",
"324 515 LINE",
"289 524 OFFCURVE",
"247 531 OFFCURVE",
"206 531 CURVE SMOOTH",
"75 531 OFFCURVE",
"25 460 OFFCURVE",
"25 386 CURVE SMOOTH",
"25 337 OFFCURVE",
"48 288 OFFCURVE",
"111 261 CURVE",
"111 259 LINE",
"53 237 OFFCURVE",
"25 196 OFFCURVE",
"25 146 CURVE SMOOTH",
"25 56 OFFCURVE",
"116 -10 OFFCURVE",
"289 -10 CURVE SMOOTH"
);
}
);
width = 599;
},
{
anchors = (
{
name = bottom;
position = "{333, 0}";
},
{
name = top;
position = "{264, 504}";
},
{
name = top2;
position = "{203, 504}";
}
);
layerId = "DDDB2E70-9881-4210-B3C5-A030831183E9";
paths = (
{
closed = 1;
nodes = (
"279 -10 OFFCURVE",
"340 43 OFFCURVE",
"340 168 CURVE SMOOTH",
"340 712 LINE",
"314 712 LINE",
"314 162 LINE SMOOTH",
"314 51 OFFCURVE",
"259 12 OFFCURVE",
"194 12 CURVE SMOOTH",
"129 12 OFFCURVE",
"74 51 OFFCURVE",
"74 147 CURVE SMOOTH",
"74 223 OFFCURVE",
"108 263 OFFCURVE",
"164 263 CURVE SMOOTH",
"192 263 LINE",
"192 285 LINE",
"164 285 LINE SMOOTH",
"122 285 OFFCURVE",
"73 313 OFFCURVE",
"73 398 CURVE SMOOTH",
"73 465 OFFCURVE",
"103 501 OFFCURVE",
"148 501 CURVE SMOOTH",
"167 501 OFFCURVE",
"187 495 OFFCURVE",
"197 491 CURVE",
"201 512 LINE",
"187 518 OFFCURVE",
"166 523 OFFCURVE",
"146 523 CURVE SMOOTH",
"84 523 OFFCURVE",
"46 477 OFFCURVE",
"46 398 CURVE SMOOTH",
"46 319 OFFCURVE",
"84 288 OFFCURVE",
"109 275 CURVE",
"109 271 LINE",
"86 258 OFFCURVE",
"48 232 OFFCURVE",
"48 148 CURVE SMOOTH",
"48 47 OFFCURVE",
"103 -10 OFFCURVE",
"193 -10 CURVE SMOOTH"
);
}
);
width = 399;
},
{
anchors = (
{
name = bottom;
position = "{364, 0}";
},
{
name = top;
position = "{264, 511}";
},
{
name = top2;
position = "{184, 511}";
}
);
layerId = "3A4E24C5-56F7-4F8A-8FFD-B2AF7CE4A726";
paths = (
{
closed = 1;
nodes = (
"310 -10 OFFCURVE",
"371 48 OFFCURVE",
"371 180 CURVE SMOOTH",
"371 686 LINE",
"289 686 LINE",
"289 171 LINE SMOOTH",
"289 92 OFFCURVE",
"257 58 OFFCURVE",
"204 58 CURVE SMOOTH",
"150 58 OFFCURVE",
"117 92 OFFCURVE",
"117 160 CURVE SMOOTH",
"117 217 OFFCURVE",
"140 248 OFFCURVE",
"182 248 CURVE SMOOTH",
"216 248 LINE",
"216 308 LINE",
"182 308 LINE SMOOTH",
"150 308 OFFCURVE",
"117 322 OFFCURVE",
"117 386 CURVE SMOOTH",
"117 432 OFFCURVE",
"134 459 OFFCURVE",
"166 459 CURVE SMOOTH",
"181 459 OFFCURVE",
"197 453 OFFCURVE",
"207 448 CURVE",
"220 511 LINE",
"202 520 OFFCURVE",
"176 526 OFFCURVE",
"151 526 CURVE SMOOTH",
"69 526 OFFCURVE",
"36 464 OFFCURVE",
"36 392 CURVE SMOOTH",
"36 324 OFFCURVE",
"66 289 OFFCURVE",
"99 278 CURVE",
"99 274 LINE",
"64 267 OFFCURVE",
"36 229 OFFCURVE",
"36 156 CURVE SMOOTH",
"36 49 OFFCURVE",
"95 -10 OFFCURVE",
"203 -10 CURVE SMOOTH"
);
}
);
width = 421;
},
{
anchors = (
{
name = bottom;
position = "{446, 0}";
},
{
name = top;
position = "{275, 507}";
},
{
name = top2;
position = "{177, 507}";
}
);
layerId = "A6C8CBD9-95C8-4E45-A197-88A1149E2980";
paths = (
{
closed = 1;
nodes = (
"377 -10 OFFCURVE",
"454 49 OFFCURVE",
"454 193 CURVE SMOOTH",
"454 682 LINE",
"292 682 LINE",
"292 183 LINE SMOOTH",
"292 139 OFFCURVE",
"268 114 OFFCURVE",
"240 114 CURVE SMOOTH",
"217 114 OFFCURVE",
"188 130 OFFCURVE",
"188 172 CURVE SMOOTH",
"188 197 OFFCURVE",
"198 219 OFFCURVE",
"219 219 CURVE SMOOTH",
"261 219 LINE",
"261 314 LINE",
"219 314 LINE SMOOTH",
"200 314 OFFCURVE",
"188 328 OFFCURVE",
"188 362 CURVE SMOOTH",
"188 392 OFFCURVE",
"197 407 OFFCURVE",
"215 407 CURVE SMOOTH",
"224 407 OFFCURVE",
"237 403 OFFCURVE",
"247 399 CURVE",
"273 514 LINE",
"244 523 OFFCURVE",
"210 530 OFFCURVE",
"176 530 CURVE SMOOTH",
"70 530 OFFCURVE",
"30 463 OFFCURVE",
"30 385 CURVE SMOOTH",
"30 329 OFFCURVE",
"51 286 OFFCURVE",
"98 266 CURVE",
"98 263 LINE",
"47 245 OFFCURVE",
"30 199 OFFCURVE",
"30 152 CURVE SMOOTH",
"30 53 OFFCURVE",
"104 -10 OFFCURVE",
"243 -10 CURVE SMOOTH"
);
}
);
width = 504;
}
);
note = uni0EA2;
unicode = 0EA2;
},
{
glyphname = "roRot-lao";
lastChange = "2017-06-02 13:33:53 +0000";
layers = (
{
anchors = (
{
name = bottom;
position = "{424, 0}";
},
{
name = top;
position = "{453, 504}";
},
{
name = top2;
position = "{280, 504}";
}
);
layerId = "64BC062E-13E4-450B-B24E-D8A474022433";
paths = (
{
closed = 1;
nodes = (
"414 -10 OFFCURVE",
"473 53 OFFCURVE",
"473 143 CURVE SMOOTH",
"473 263 OFFCURVE",
"370 285 OFFCURVE",
"255 310 CURVE SMOOTH",
"155 332 OFFCURVE",
"93 347 OFFCURVE",
"93 415 CURVE SMOOTH",
"93 476 OFFCURVE",
"143 501 OFFCURVE",
"244 501 CURVE SMOOTH",
"314 501 OFFCURVE",
"383 489 OFFCURVE",
"450 467 CURVE",
"450 491 LINE",
"383 512 OFFCURVE",
"312 523 OFFCURVE",
"244 523 CURVE SMOOTH",
"124 523 OFFCURVE",
"65 489 OFFCURVE",
"65 414 CURVE SMOOTH",
"65 325 OFFCURVE",
"148 308 OFFCURVE",
"245 287 CURVE SMOOTH",
"373 259 OFFCURVE",
"445 240 OFFCURVE",
"445 143 CURVE SMOOTH",
"445 42 OFFCURVE",
"365 13 OFFCURVE",
"271 13 CURVE SMOOTH",
"190 13 OFFCURVE",
"93 35 OFFCURVE",
"93 129 CURVE SMOOTH",
"93 148 OFFCURVE",
"97 162 OFFCURVE",
"102 173 CURVE",
"77 183 LINE",
"69 168 OFFCURVE",
"65 150 OFFCURVE",
"65 130 CURVE SMOOTH",
"65 55 OFFCURVE",
"121 -10 OFFCURVE",
"269 -10 CURVE SMOOTH"
);
}
);
width = 538;
},
{
anchors = (
{
name = bottom;
position = "{503, 0}";
},
{
name = top;
position = "{516, 504}";
},
{
name = top2;
position = "{303, 504}";
}
);
layerId = "6449CA81-A7C3-4005-93E5-765657812F1B";
paths = (
{
closed = 1;
nodes = (
"464 -10 OFFCURVE",
"536 60 OFFCURVE",
"536 152 CURVE SMOOTH",
"536 272 OFFCURVE",
"411 303 OFFCURVE",
"312 326 CURVE SMOOTH",
"209 350 OFFCURVE",
"153 359 OFFCURVE",
"153 403 CURVE SMOOTH",
"153 440 OFFCURVE",
"193 454 OFFCURVE",
"280 454 CURVE SMOOTH",
"364 454 OFFCURVE",
"436 441 OFFCURVE",
"516 411 CURVE",
"516 488 LINE",
"446 515 OFFCURVE",
"362 526 OFFCURVE",
"285 526 CURVE SMOOTH",
"152 526 OFFCURVE",
"68 493 OFFCURVE",
"68 404 CURVE SMOOTH",
"68 300 OFFCURVE",
"182 283 OFFCURVE",
"290 258 CURVE SMOOTH",
"386 236 OFFCURVE",
"451 217 OFFCURVE",
"451 151 CURVE SMOOTH",
"451 85 OFFCURVE",
"387 61 OFFCURVE",
"299 61 CURVE SMOOTH",
"224 61 OFFCURVE",
"153 79 OFFCURVE",
"153 144 CURVE SMOOTH",
"153 163 OFFCURVE",
"159 178 OFFCURVE",
"168 188 CURVE",
"100 220 LINE",
"86 207 OFFCURVE",
"68 183 OFFCURVE",
"68 143 CURVE SMOOTH",
"68 65 OFFCURVE",
"136 -10 OFFCURVE",
"303 -10 CURVE SMOOTH"
);
}
);
width = 609;
},
{
anchors = (
{
name = bottom;
position = "{520, 0}";
},
{
name = top;
position = "{529, 505}";
},
{
name = top2;
position = "{295, 505}";
}
);
layerId = "E5D3352E-10FF-4C03-AD9F-F95B1FD01257";
paths = (
{
closed = 1;
nodes = (
"473 -10 OFFCURVE",
"549 62 OFFCURVE",
"549 171 CURVE SMOOTH",
"549 293 OFFCURVE",
"453 320 OFFCURVE",
"320 346 CURVE SMOOTH",
"239 362 OFFCURVE",
"213 363 OFFCURVE",
"213 372 CURVE SMOOTH",
"213 380 OFFCURVE",
"235 387 OFFCURVE",
"301 387 CURVE SMOOTH",
"395 387 OFFCURVE",
"468 373 OFFCURVE",
"532 356 CURVE",
"532 491 LINE",
"464 515 OFFCURVE",
"366 531 OFFCURVE",
"270 531 CURVE SMOOTH",
"124 531 OFFCURVE",
"25 494 OFFCURVE",
"25 391 CURVE SMOOTH",
"25 297 OFFCURVE",
"109 269 OFFCURVE",
"201 244 CURVE SMOOTH",
"325 210 OFFCURVE",
"361 209 OFFCURVE",
"361 170 CURVE SMOOTH",
"361 141 OFFCURVE",
"341 127 OFFCURVE",
"290 127 CURVE SMOOTH",
"245 127 OFFCURVE",
"214 138 OFFCURVE",
"214 165 CURVE SMOOTH",
"214 178 OFFCURVE",
"221 187 OFFCURVE",
"232 195 CURVE",
"78 251 LINE",
"51 231 OFFCURVE",
"25 199 OFFCURVE",
"25 149 CURVE SMOOTH",
"25 62 OFFCURVE",
"107 -10 OFFCURVE",
"290 -10 CURVE SMOOTH"
);
}
);
width = 574;
},
{
anchors = (
{
name = bottom;
position = "{307, 0}";
},
{
name = top;
position = "{325, 504}";
},
{
name = top2;
position = "{199, 504}";
}
);
layerId = "DDDB2E70-9881-4210-B3C5-A030831183E9";
paths = (
{
closed = 1;
nodes = (
"296 -10 OFFCURVE",
"339 53 OFFCURVE",
"339 144 CURVE SMOOTH",
"339 263 OFFCURVE",
"265 285 OFFCURVE",
"186 310 CURVE SMOOTH",
"116 332 OFFCURVE",
"73 347 OFFCURVE",
"73 415 CURVE SMOOTH",
"73 476 OFFCURVE",
"107 501 OFFCURVE",
"177 501 CURVE SMOOTH",
"225 501 OFFCURVE",
"275 489 OFFCURVE",
"323 467 CURVE",
"323 491 LINE",
"276 512 OFFCURVE",
"225 523 OFFCURVE",
"176 523 CURVE SMOOTH",
"90 523 OFFCURVE",
"46 489 OFFCURVE",
"46 414 CURVE SMOOTH",
"46 325 OFFCURVE",
"108 308 OFFCURVE",
"177 287 CURVE SMOOTH",
"263 261 OFFCURVE",
"312 240 OFFCURVE",
"312 143 CURVE SMOOTH",
"312 42 OFFCURVE",
"258 13 OFFCURVE",
"193 13 CURVE SMOOTH",
"137 13 OFFCURVE",
"73 35 OFFCURVE",
"73 128 CURVE SMOOTH",
"73 148 OFFCURVE",
"76 162 OFFCURVE",
"80 173 CURVE",
"57 183 LINE",
"51 168 OFFCURVE",
"46 151 OFFCURVE",
"46 126 CURVE SMOOTH",
"46 56 OFFCURVE",
"87 -10 OFFCURVE",
"193 -10 CURVE SMOOTH"
);
}
);
width = 386;
},
{
anchors = (
{
name = bottom;
position = "{348, 0}";
},
{
name = top;
position = "{358, 504}";
},
{
name = top2;
position = "{207, 504}";
}
);
layerId = "3A4E24C5-56F7-4F8A-8FFD-B2AF7CE4A726";
paths = (
{
closed = 1;
nodes = (
"322 -10 OFFCURVE",
"372 58 OFFCURVE",
"372 154 CURVE SMOOTH",
"372 270 OFFCURVE",
"298 298 OFFCURVE",
"215 325 CURVE SMOOTH",
"144 348 OFFCURVE",
"116 359 OFFCURVE",
"116 403 CURVE SMOOTH",
"116 445 OFFCURVE",
"156 459 OFFCURVE",
"207 459 CURVE SMOOTH",
"255 459 OFFCURVE",
"313 446 OFFCURVE",
"358 425 CURVE",
"358 492 LINE",
"310 516 OFFCURVE",
"248 526 OFFCURVE",
"193 526 CURVE SMOOTH",
"93 526 OFFCURVE",
"36 493 OFFCURVE",
"36 403 CURVE SMOOTH",
"36 306 OFFCURVE",
"102 286 OFFCURVE",
"176 262 CURVE SMOOTH",
"252 237 OFFCURVE",
"292 220 OFFCURVE",
"292 149 CURVE SMOOTH",
"292 82 OFFCURVE",
"257 56 OFFCURVE",
"204 56 CURVE SMOOTH",
"158 56 OFFCURVE",
"116 76 OFFCURVE",
"116 141 CURVE SMOOTH",
"116 163 OFFCURVE",
"121 176 OFFCURVE",
"127 187 CURVE",
"62 216 LINE",
"49 203 OFFCURVE",
"36 180 OFFCURVE",
"36 141 CURVE SMOOTH",
"36 64 OFFCURVE",
"86 -10 OFFCURVE",
"206 -10 CURVE SMOOTH"
);
}
);
width = 410;
},
{
anchors = (
{
name = bottom;
position = "{429, 0}";
},
{
name = top;
position = "{436, 505}";
},
{
name = top2;
position = "{247, 505}";
}
);
layerId = "A6C8CBD9-95C8-4E45-A197-88A1149E2980";
paths = (
{
closed = 1;
nodes = (
"391 -10 OFFCURVE",
"452 61 OFFCURVE",
"452 169 CURVE SMOOTH",
"452 286 OFFCURVE",
"380 313 OFFCURVE",
"268 341 CURVE SMOOTH",
"207 356 OFFCURVE",
"187 362 OFFCURVE",
"187 379 CURVE SMOOTH",
"187 400 OFFCURVE",
"216 406 OFFCURVE",
"256 406 CURVE SMOOTH",
"318 406 OFFCURVE",
"396 392 OFFCURVE",
"438 374 CURVE",
"438 490 LINE",
"384 515 OFFCURVE",
"305 530 OFFCURVE",
"227 530 CURVE SMOOTH",
"106 530 OFFCURVE",
"28 494 OFFCURVE",
"28 392 CURVE SMOOTH",
"28 297 OFFCURVE",
"97 272 OFFCURVE",
"165 249 CURVE SMOOTH",
"270 214 OFFCURVE",
"293 210 OFFCURVE",
"293 163 CURVE SMOOTH",
"293 125 OFFCURVE",
"278 108 OFFCURVE",
"242 108 CURVE SMOOTH",
"206 108 OFFCURVE",
"188 125 OFFCURVE",
"188 158 CURVE SMOOTH",
"188 175 OFFCURVE",
"193 184 OFFCURVE",
"202 193 CURVE",
"72 242 LINE",
"49 224 OFFCURVE",
"28 194 OFFCURVE",
"28 147 CURVE SMOOTH",
"28 63 OFFCURVE",
"94 -10 OFFCURVE",
"244 -10 CURVE SMOOTH"
);
}
);
width = 480;
}
);
note = uni0EA3;
unicode = 0EA3;
},
{
glyphname = "loLing-lao";
lastChange = "2017-06-02 13:33:53 +0000";
layers = (
{
anchors = (
{
name = bottom;
position = "{501, 0}";
},
{
name = top;
position = "{501, 504}";
},
{
name = top2;
position = "{310, 504}";
}
);
layerId = "64BC062E-13E4-450B-B24E-D8A474022433";
paths = (
{
closed = 1;
nodes = (
"208 -10 OFFCURVE",
"230 -8 OFFCURVE",
"245 -2 CURVE",
"239 18 LINE",
"229 14 OFFCURVE",
"210 11 OFFCURVE",
"192 11 CURVE SMOOTH",
"130 11 OFFCURVE",
"93 50 OFFCURVE",
"93 133 CURVE SMOOTH",
"93 217 OFFCURVE",
"131 256 OFFCURVE",
"192 256 CURVE SMOOTH",
"245 256 OFFCURVE",
"275 226 OFFCURVE",
"290 180 CURVE SMOOTH",
"327 65 LINE SMOOTH",
"343 16 OFFCURVE",
"371 -10 OFFCURVE",
"426 -10 CURVE SMOOTH",
"485 -10 OFFCURVE",
"511 20 OFFCURVE",
"511 85 CURVE SMOOTH",
"511 345 LINE SMOOTH",
"511 467 OFFCURVE",
"426 523 OFFCURVE",
"290 523 CURVE SMOOTH",
"220 523 OFFCURVE",
"144 508 OFFCURVE",
"99 491 CURVE",
"99 466 LINE",
"159 488 OFFCURVE",
"216 501 OFFCURVE",
"285 501 CURVE SMOOTH",
"422 501 OFFCURVE",
"485 450 OFFCURVE",
"485 342 CURVE SMOOTH",
"485 78 LINE SMOOTH",
"485 33 OFFCURVE",
"468 14 OFFCURVE",
"426 14 CURVE SMOOTH",
"387 14 OFFCURVE",
"367 30 OFFCURVE",
"354 68 CURVE SMOOTH",
"316 184 LINE SMOOTH",
"298 239 OFFCURVE",
"266 278 OFFCURVE",
"194 278 CURVE SMOOTH",
"101 278 OFFCURVE",
"65 212 OFFCURVE",
"65 132 CURVE SMOOTH",
"65 45 OFFCURVE",
"107 -10 OFFCURVE",
"192 -10 CURVE SMOOTH"
);
}
);
width = 596;
},
{
anchors = (
{
name = bottom;
position = "{528, 0}";
},
{
name = top;
position = "{528, 504}";
},
{
name = top2;
position = "{315, 504}";
}
);
layerId = "6449CA81-A7C3-4005-93E5-765657812F1B";
paths = (
{
closed = 1;
nodes = (
"204 -10 OFFCURVE",
"226 -6 OFFCURVE",
"240 -1 CURVE",
"227 59 LINE",
"218 56 OFFCURVE",
"206 54 OFFCURVE",
"194 54 CURVE SMOOTH",
"151 54 OFFCURVE",
"132 79 OFFCURVE",
"132 131 CURVE SMOOTH",
"132 193 OFFCURVE",
"159 218 OFFCURVE",
"202 218 CURVE SMOOTH",
"235 218 OFFCURVE",
"256 204 OFFCURVE",
"266 175 CURVE SMOOTH",
"302 69 LINE SMOOTH",
"320 17 OFFCURVE",
"351 -10 OFFCURVE",
"416 -10 CURVE SMOOTH",
"489 -10 OFFCURVE",
"538 25 OFFCURVE",
"538 102 CURVE SMOOTH",
"538 340 LINE SMOOTH",
"538 468 OFFCURVE",
"432 526 OFFCURVE",
"292 526 CURVE SMOOTH",
"212 526 OFFCURVE",
"121 507 OFFCURVE",
"84 488 CURVE",
"84 412 LINE",
"137 442 OFFCURVE",
"220 454 OFFCURVE",
"279 454 CURVE SMOOTH",
"385 454 OFFCURVE",
"450 414 OFFCURVE",
"450 333 CURVE SMOOTH",
"450 87 LINE SMOOTH",
"450 62 OFFCURVE",
"439 50 OFFCURVE",
"417 50 CURVE SMOOTH",
"398 50 OFFCURVE",
"386 58 OFFCURVE",
"378 81 CURVE SMOOTH",
"339 196 LINE SMOOTH",
"320 252 OFFCURVE",
"282 287 OFFCURVE",
"205 287 CURVE SMOOTH",
"98 287 OFFCURVE",
"53 220 OFFCURVE",
"53 129 CURVE SMOOTH",
"53 43 OFFCURVE",
"93 -10 OFFCURVE",
"180 -10 CURVE SMOOTH"
);
}
);
width = 620;
},
{
anchors = (
{
name = bottom;
position = "{594, 0}";
},
{
name = top;
position = "{594, 505}";
},
{
name = top2;
position = "{326, 505}";
}
);
layerId = "E5D3352E-10FF-4C03-AD9F-F95B1FD01257";
paths = (
{
closed = 1;
nodes = (
"206 -10 OFFCURVE",
"240 -3 OFFCURVE",
"263 9 CURVE",
"233 131 LINE",
"222 128 OFFCURVE",
"211 127 OFFCURVE",
"205 127 CURVE SMOOTH",
"187 127 OFFCURVE",
"176 138 OFFCURVE",
"176 154 CURVE SMOOTH",
"176 171 OFFCURVE",
"188 180 OFFCURVE",
"207 180 CURVE SMOOTH",
"230 180 OFFCURVE",
"244 166 OFFCURVE",
"252 138 CURVE SMOOTH",
"262 104 LINE SMOOTH",
"283 31 OFFCURVE",
"334 -10 OFFCURVE",
"423 -10 CURVE SMOOTH",
"528 -10 OFFCURVE",
"604 48 OFFCURVE",
"604 142 CURVE SMOOTH",
"604 321 LINE SMOOTH",
"604 469 OFFCURVE",
"473 531 OFFCURVE",
"298 531 CURVE SMOOTH",
"219 531 OFFCURVE",
"134 518 OFFCURVE",
"56 490 CURVE",
"56 353 LINE",
"117 374 OFFCURVE",
"191 388 OFFCURVE",
"257 388 CURVE SMOOTH",
"346 388 OFFCURVE",
"420 363 OFFCURVE",
"420 290 CURVE SMOOTH",
"420 148 LINE SMOOTH",
"420 139 OFFCURVE",
"415 134 OFFCURVE",
"407 134 CURVE SMOOTH",
"398 134 OFFCURVE",
"392 139 OFFCURVE",
"390 147 CURVE SMOOTH",
"374 215 LINE SMOOTH",
"358 283 OFFCURVE",
"299 325 OFFCURVE",
"206 325 CURVE SMOOTH",
"94 325 OFFCURVE",
"25 264 OFFCURVE",
"25 152 CURVE SMOOTH",
"25 53 OFFCURVE",
"80 -10 OFFCURVE",
"174 -10 CURVE SMOOTH"
);
}
);
width = 649;
},
{
anchors = (
{
name = bottom;
position = "{354, 0}";
},
{
name = top;
position = "{354, 504}";
},
{
name = top2;
position = "{218, 504}";
}
);
layerId = "DDDB2E70-9881-4210-B3C5-A030831183E9";
paths = (
{
closed = 1;
nodes = (
"145 -10 OFFCURVE",
"161 -8 OFFCURVE",
"171 -2 CURVE",
"166 18 LINE",
"159 14 OFFCURVE",
"147 11 OFFCURVE",
"135 11 CURVE SMOOTH",
"94 11 OFFCURVE",
"70 50 OFFCURVE",
"70 133 CURVE SMOOTH",
"70 217 OFFCURVE",
"95 256 OFFCURVE",
"135 256 CURVE SMOOTH",
"169 256 OFFCURVE",
"189 229 OFFCURVE",
"200 180 CURVE SMOOTH",
"226 65 LINE SMOOTH",
"237 16 OFFCURVE",
"257 -10 OFFCURVE",
"297 -10 CURVE SMOOTH",
"340 -10 OFFCURVE",
"361 20 OFFCURVE",
"361 85 CURVE SMOOTH",
"361 345 LINE SMOOTH",
"361 467 OFFCURVE",
"299 523 OFFCURVE",
"203 523 CURVE SMOOTH",
"153 523 OFFCURVE",
"98 508 OFFCURVE",
"67 491 CURVE",
"67 466 LINE",
"109 488 OFFCURVE",
"152 501 OFFCURVE",
"199 501 CURVE SMOOTH",
"291 501 OFFCURVE",
"335 450 OFFCURVE",
"335 342 CURVE SMOOTH",
"335 78 LINE SMOOTH",
"335 33 OFFCURVE",
"324 14 OFFCURVE",
"297 14 CURVE SMOOTH",
"272 14 OFFCURVE",
"260 30 OFFCURVE",
"251 68 CURVE SMOOTH",
"224 184 LINE SMOOTH",
"211 239 OFFCURVE",
"188 278 OFFCURVE",
"137 278 CURVE SMOOTH",
"70 278 OFFCURVE",
"44 212 OFFCURVE",
"44 131 CURVE SMOOTH",
"44 45 OFFCURVE",
"73 -10 OFFCURVE",
"133 -10 CURVE SMOOTH"
);
}
);
width = 420;
},
{
anchors = (
{
name = bottom;
position = "{384, 0}";
},
{
name = top;
position = "{384, 504}";
},
{
name = top2;
position = "{223, 504}";
}
);
layerId = "3A4E24C5-56F7-4F8A-8FFD-B2AF7CE4A726";
paths = (
{
closed = 1;
nodes = (
"144 -10 OFFCURVE",
"162 -6 OFFCURVE",
"174 -1 CURVE",
"161 55 LINE",
"155 52 OFFCURVE",
"146 50 OFFCURVE",
"139 50 CURVE SMOOTH",
"113 50 OFFCURVE",
"103 76 OFFCURVE",
"103 130 CURVE SMOOTH",
"103 196 OFFCURVE",
"118 222 OFFCURVE",
"145 222 CURVE SMOOTH",
"166 222 OFFCURVE",
"178 206 OFFCURVE",
"184 175 CURVE SMOOTH",
"205 68 LINE SMOOTH",
"215 16 OFFCURVE",
"243 -10 OFFCURVE",
"294 -10 CURVE SMOOTH",
"352 -10 OFFCURVE",
"391 25 OFFCURVE",
"391 100 CURVE SMOOTH",
"391 340 LINE SMOOTH",
"391 468 OFFCURVE",
"312 526 OFFCURVE",
"208 526 CURVE SMOOTH",
"151 526 OFFCURVE",
"90 509 OFFCURVE",
"53 490 CURVE",
"53 422 LINE",
"93 447 OFFCURVE",
"147 459 OFFCURVE",
"188 459 CURVE SMOOTH",
"264 459 OFFCURVE",
"311 417 OFFCURVE",
"311 334 CURVE SMOOTH",
"311 86 LINE SMOOTH",
"311 59 OFFCURVE",
"304 47 OFFCURVE",
"290 47 CURVE SMOOTH",
"277 47 OFFCURVE",
"270 55 OFFCURVE",
"265 80 CURVE SMOOTH",
"243 195 LINE SMOOTH",
"232 251 OFFCURVE",
"200 286 OFFCURVE",
"144 286 CURVE SMOOTH",
"67 286 OFFCURVE",
"31 219 OFFCURVE",
"31 128 CURVE SMOOTH",
"31 43 OFFCURVE",
"63 -10 OFFCURVE",
"127 -10 CURVE SMOOTH"
);
}
);
width = 439;
},
{
anchors = (
{
name = bottom;
position = "{494, 0}";
},
{
name = top;
position = "{494, 505}";
},
{
name = top2;
position = "{275, 505}";
}
);
layerId = "A6C8CBD9-95C8-4E45-A197-88A1149E2980";
paths = (
{
closed = 1;
nodes = (
"178 -10 OFFCURVE",
"206 -4 OFFCURVE",
"226 6 CURVE",
"200 110 LINE",
"191 107 OFFCURVE",
"182 106 OFFCURVE",
"178 106 CURVE SMOOTH",
"166 106 OFFCURVE",
"158 120 OFFCURVE",
"158 149 CURVE SMOOTH",
"158 177 OFFCURVE",
"166 191 OFFCURVE",
"183 191 CURVE SMOOTH",
"201 191 OFFCURVE",
"209 174 OFFCURVE",
"213 149 CURVE SMOOTH",
"222 93 LINE SMOOTH",
"233 26 OFFCURVE",
"279 -10 OFFCURVE",
"352 -10 CURVE SMOOTH",
"439 -10 OFFCURVE",
"502 41 OFFCURVE",
"502 130 CURVE SMOOTH",
"502 326 LINE SMOOTH",
"502 469 OFFCURVE",
"393 530 OFFCURVE",
"255 530 CURVE SMOOTH",
"187 530 OFFCURVE",
"122 515 OFFCURVE",
"56 489 CURVE",
"56 370 LINE",
"105 394 OFFCURVE",
"165 407 OFFCURVE",
"214 407 CURVE SMOOTH",
"288 407 OFFCURVE",
"347 378 OFFCURVE",
"347 302 CURVE SMOOTH",
"347 130 LINE SMOOTH",
"347 117 OFFCURVE",
"344 110 OFFCURVE",
"338 110 CURVE SMOOTH",
"332 110 OFFCURVE",
"328 116 OFFCURVE",
"326 128 CURVE SMOOTH",
"314 209 LINE SMOOTH",
"304 275 OFFCURVE",
"252 314 OFFCURVE",
"179 314 CURVE SMOOTH",
"87 314 OFFCURVE",
"31 251 OFFCURVE",
"31 145 CURVE SMOOTH",
"31 50 OFFCURVE",
"76 -10 OFFCURVE",
"153 -10 CURVE SMOOTH"
);
}
);
width = 548;
}
);
note = uni0EA5;
unicode = 0EA5;
},
{
glyphname = "woWi-lao";
lastChange = "2017-06-02 13:33:53 +0000";
layers = (
{
anchors = (
{
name = bottom;
position = "{443, 0}";
},
{
name = top;
position = "{443, 504}";
},
{
name = top2;
position = "{278, 504}";
}
);
layerId = "64BC062E-13E4-450B-B24E-D8A474022433";
paths = (
{
closed = 1;
nodes = (
"421 -10 OFFCURVE",
"482 83 OFFCURVE",
"482 262 CURVE SMOOTH",
"482 440 OFFCURVE",
"422 523 OFFCURVE",
"258 523 CURVE SMOOTH",
"196 523 OFFCURVE",
"133 511 OFFCURVE",
"88 491 CURVE",
"88 466 LINE",
"137 486 OFFCURVE",
"191 501 OFFCURVE",
"256 501 CURVE SMOOTH",
"399 501 OFFCURVE",
"454 430 OFFCURVE",
"454 260 CURVE SMOOTH",
"454 97 OFFCURVE",
"404 14 OFFCURVE",
"261 14 CURVE SMOOTH",
"152 14 OFFCURVE",
"93 63 OFFCURVE",
"93 137 CURVE SMOOTH",
"93 150 OFFCURVE",
"95 158 OFFCURVE",
"99 167 CURVE",
"73 174 LINE",
"67 161 OFFCURVE",
"65 152 OFFCURVE",
"65 138 CURVE SMOOTH",
"65 49 OFFCURVE",
"138 -10 OFFCURVE",
"263 -10 CURVE SMOOTH"
);
}
);
width = 547;
},
{
anchors = (
{
name = bottom;
position = "{481, 0}";
},
{
name = top;
position = "{481, 504}";
},
{
name = top2;
position = "{275, 504}";
}
);
layerId = "6449CA81-A7C3-4005-93E5-765657812F1B";
paths = (
{
closed = 1;
nodes = (
"403 -10 OFFCURVE",
"509 53 OFFCURVE",
"509 258 CURVE SMOOTH",
"509 470 OFFCURVE",
"396 526 OFFCURVE",
"249 526 CURVE SMOOTH",
"169 526 OFFCURVE",
"103 509 OFFCURVE",
"59 488 CURVE",
"59 411 LINE",
"114 438 OFFCURVE",
"173 454 OFFCURVE",
"242 454 CURVE SMOOTH",
"349 454 OFFCURVE",
"421 415 OFFCURVE",
"421 256 CURVE SMOOTH",
"421 110 OFFCURVE",
"360 62 OFFCURVE",
"259 62 CURVE SMOOTH",
"173 62 OFFCURVE",
"126 97 OFFCURVE",
"126 149 CURVE SMOOTH",
"126 162 OFFCURVE",
"129 173 OFFCURVE",
"133 181 CURVE",
"50 204 LINE",
"43 189 OFFCURVE",
"39 173 OFFCURVE",
"39 151 CURVE SMOOTH",
"39 47 OFFCURVE",
"133 -10 OFFCURVE",
"265 -10 CURVE SMOOTH"
);
}
);
width = 580;
},
{
anchors = (
{
name = bottom;
position = "{519, 0}";
},
{
name = top;
position = "{519, 505}";
},
{
name = top2;
position = "{289, 505}";
}
);
layerId = "E5D3352E-10FF-4C03-AD9F-F95B1FD01257";
paths = (
{
closed = 1;
nodes = (
"447 -10 OFFCURVE",
"546 86 OFFCURVE",
"546 265 CURVE SMOOTH",
"546 434 OFFCURVE",
"458 531 OFFCURVE",
"269 531 CURVE SMOOTH",
"197 531 OFFCURVE",
"122 517 OFFCURVE",
"54 491 CURVE",
"54 355 LINE",
"121 378 OFFCURVE",
"183 387 OFFCURVE",
"223 387 CURVE SMOOTH",
"313 387 OFFCURVE",
"354 342 OFFCURVE",
"354 255 CURVE SMOOTH",
"354 179 OFFCURVE",
"322 134 OFFCURVE",
"256 134 CURVE SMOOTH",
"213 134 OFFCURVE",
"183 153 OFFCURVE",
"183 187 CURVE SMOOTH",
"183 203 OFFCURVE",
"189 223 OFFCURVE",
"198 235 CURVE",
"63 283 LINE",
"39 248 OFFCURVE",
"25 205 OFFCURVE",
"25 164 CURVE SMOOTH",
"25 56 OFFCURVE",
"123 -10 OFFCURVE",
"270 -10 CURVE SMOOTH"
);
}
);
width = 574;
},
{
anchors = (
{
name = bottom;
position = "{315, 0}";
},
{
name = top;
position = "{315, 504}";
},
{
name = top2;
position = "{194, 504}";
}
);
layerId = "DDDB2E70-9881-4210-B3C5-A030831183E9";
paths = (
{
closed = 1;
nodes = (
"292 -10 OFFCURVE",
"341 83 OFFCURVE",
"341 262 CURVE SMOOTH",
"341 441 OFFCURVE",
"292 523 OFFCURVE",
"178 523 CURVE SMOOTH",
"134 523 OFFCURVE",
"89 511 OFFCURVE",
"58 491 CURVE",
"58 466 LINE",
"93 486 OFFCURVE",
"131 501 OFFCURVE",
"176 501 CURVE SMOOTH",
"273 501 OFFCURVE",
"314 431 OFFCURVE",
"314 260 CURVE SMOOTH",
"314 97 OFFCURVE",
"277 14 OFFCURVE",
"182 14 CURVE SMOOTH",
"109 14 OFFCURVE",
"69 64 OFFCURVE",
"69 135 CURVE SMOOTH",
"69 151 OFFCURVE",
"71 158 OFFCURVE",
"73 167 CURVE",
"48 174 LINE",
"44 161 OFFCURVE",
"42 153 OFFCURVE",
"42 136 CURVE SMOOTH",
"42 50 OFFCURVE",
"96 -10 OFFCURVE",
"183 -10 CURVE SMOOTH"
);
}
);
width = 387;
},
{
anchors = (
{
name = bottom;
position = "{342, 0}";
},
{
name = top;
position = "{342, 504}";
},
{
name = top2;
position = "{196, 504}";
}
);
layerId = "3A4E24C5-56F7-4F8A-8FFD-B2AF7CE4A726";
paths = (
{
closed = 1;
nodes = (
"290 -10 OFFCURVE",
"363 57 OFFCURVE",
"363 264 CURVE SMOOTH",
"363 467 OFFCURVE",
"293 526 OFFCURVE",
"181 526 CURVE SMOOTH",
"128 526 OFFCURVE",
"80 513 OFFCURVE",
"43 495 CURVE",
"43 426 LINE",
"84 446 OFFCURVE",
"125 459 OFFCURVE",
"166 459 CURVE SMOOTH",
"240 459 OFFCURVE",
"281 416 OFFCURVE",
"281 257 CURVE SMOOTH",
"281 111 OFFCURVE",
"243 57 OFFCURVE",
"177 57 CURVE SMOOTH",
"124 57 OFFCURVE",
"99 97 OFFCURVE",
"99 143 CURVE SMOOTH",
"99 155 OFFCURVE",
"101 167 OFFCURVE",
"106 180 CURVE",
"40 201 LINE",
"31 179 OFFCURVE",
"27 157 OFFCURVE",
"27 136 CURVE SMOOTH",
"27 55 OFFCURVE",
"85 -10 OFFCURVE",
"187 -10 CURVE SMOOTH"
);
}
);
width = 401;
},
{
anchors = (
{
name = bottom;
position = "{431, 0}";
},
{
name = top;
position = "{431, 505}";
},
{
name = top2;
position = "{245, 505}";
}
);
layerId = "A6C8CBD9-95C8-4E45-A197-88A1149E2980";
paths = (
{
closed = 1;
nodes = (
"379 -10 OFFCURVE",
"453 76 OFFCURVE",
"453 263 CURVE SMOOTH",
"453 444 OFFCURVE",
"385 530 OFFCURVE",
"230 530 CURVE SMOOTH",
"173 530 OFFCURVE",
"109 516 OFFCURVE",
"56 490 CURVE",
"56 370 LINE",
"109 394 OFFCURVE",
"154 406 OFFCURVE",
"189 406 CURVE SMOOTH",
"257 406 OFFCURVE",
"291 360 OFFCURVE",
"291 255 CURVE SMOOTH",
"291 159 OFFCURVE",
"272 113 OFFCURVE",
"222 113 CURVE SMOOTH",
"191 113 OFFCURVE",
"164 131 OFFCURVE",
"164 176 CURVE SMOOTH",
"164 191 OFFCURVE",
"169 209 OFFCURVE",
"177 219 CURVE",
"65 260 LINE",
"44 231 OFFCURVE",
"32 196 OFFCURVE",
"32 160 CURVE SMOOTH",
"32 53 OFFCURVE",
"116 -10 OFFCURVE",
"235 -10 CURVE SMOOTH"
);
}
);
width = 485;
}
);
note = uni0EA7;
unicode = 0EA7;
},
{
glyphname = "soSeua-lao";
lastChange = "2017-06-02 13:33:53 +0000";
layers = (
{
anchors = (
{
name = bottom;
position = "{511, 0}";
},
{
name = top;
position = "{511, 504}";
},
{
name = top2;
position = "{311, 504}";
}
);
layerId = "64BC062E-13E4-450B-B24E-D8A474022433";
paths = (
{
closed = 1;
nodes = (
"208 -10 OFFCURVE",
"230 -8 OFFCURVE",
"245 -2 CURVE",
"239 21 LINE",
"229 17 OFFCURVE",
"210 14 OFFCURVE",
"192 14 CURVE SMOOTH",
"130 14 OFFCURVE",
"93 51 OFFCURVE",
"93 131 CURVE SMOOTH",
"93 216 OFFCURVE",
"135 253 OFFCURVE",
"199 253 CURVE SMOOTH",
"253 253 OFFCURVE",
"282 226 OFFCURVE",
"299 180 CURVE SMOOTH",
"340 66 LINE SMOOTH",
"359 13 OFFCURVE",
"388 -10 OFFCURVE",
"437 -10 CURVE SMOOTH",
"496 -10 OFFCURVE",
"524 24 OFFCURVE",
"524 85 CURVE SMOOTH",
"524 331 LINE SMOOTH",
"524 453 OFFCURVE",
"440 523 OFFCURVE",
"277 523 CURVE SMOOTH",
"147 523 OFFCURVE",
"81 479 OFFCURVE",
"81 424 CURVE SMOOTH",
"81 365 OFFCURVE",
"158 330 OFFCURVE",
"272 330 CURVE SMOOTH",
"455 330 OFFCURVE",
"527 421 OFFCURVE",
"527 511 CURVE SMOOTH",
"527 524 LINE",
"496 524 LINE",
"496 508 LINE SMOOTH",
"496 420 OFFCURVE",
"426 354 OFFCURVE",
"272 354 CURVE SMOOTH",
"180 354 OFFCURVE",
"109 378 OFFCURVE",
"109 425 CURVE SMOOTH",
"109 471 OFFCURVE",
"176 499 OFFCURVE",
"279 499 CURVE SMOOTH",
"430 499 OFFCURVE",
"498 439 OFFCURVE",
"498 328 CURVE SMOOTH",
"498 78 LINE SMOOTH",
"498 35 OFFCURVE",
"479 14 OFFCURVE",
"437 14 CURVE SMOOTH",
"401 14 OFFCURVE",
"381 30 OFFCURVE",
"367 68 CURVE SMOOTH",
"325 184 LINE SMOOTH",
"305 239 OFFCURVE",
"274 277 OFFCURVE",
"201 277 CURVE SMOOTH",
"103 277 OFFCURVE",
"65 209 OFFCURVE",
"65 129 CURVE SMOOTH",
"65 44 OFFCURVE",
"108 -10 OFFCURVE",
"192 -10 CURVE SMOOTH"
);
}
);
width = 612;
},
{
anchors = (
{
name = bottom;
position = "{537, 0}";
},
{
name = top;
position = "{547, 505}";
},
{
name = top2;
position = "{312, 505}";
}
);
layerId = "6449CA81-A7C3-4005-93E5-765657812F1B";
paths = (
{
closed = 1;
nodes = (
"212 -10 OFFCURVE",
"232 -7 OFFCURVE",
"247 -1 CURVE",
"233 59 LINE",
"222 56 OFFCURVE",
"213 54 OFFCURVE",
"201 54 CURVE SMOOTH",
"157 54 OFFCURVE",
"138 80 OFFCURVE",
"138 127 CURVE SMOOTH",
"138 182 OFFCURVE",
"164 204 OFFCURVE",
"208 204 CURVE SMOOTH",
"245 204 OFFCURVE",
"271 188 OFFCURVE",
"281 157 CURVE SMOOTH",
"309 67 LINE SMOOTH",
"325 16 OFFCURVE",
"360 -10 OFFCURVE",
"425 -10 CURVE SMOOTH",
"499 -10 OFFCURVE",
"547 25 OFFCURVE",
"547 102 CURVE SMOOTH",
"547 326 LINE SMOOTH",
"547 437 OFFCURVE",
"460 526 OFFCURVE",
"269 526 CURVE SMOOTH",
"130 526 OFFCURVE",
"68 479 OFFCURVE",
"68 420 CURVE SMOOTH",
"68 350 OFFCURVE",
"153 313 OFFCURVE",
"259 313 CURVE SMOOTH",
"436 313 OFFCURVE",
"556 417 OFFCURVE",
"556 525 CURVE SMOOTH",
"556 532 LINE",
"478 532 LINE",
"478 526 LINE SMOOTH",
"478 456 OFFCURVE",
"406 376 OFFCURVE",
"254 376 CURVE SMOOTH",
"198 376 OFFCURVE",
"142 387 OFFCURVE",
"142 418 CURVE SMOOTH",
"142 448 OFFCURVE",
"193 463 OFFCURVE",
"259 463 CURVE SMOOTH",
"365 463 OFFCURVE",
"459 423 OFFCURVE",
"459 326 CURVE SMOOTH",
"459 87 LINE SMOOTH",
"459 62 OFFCURVE",
"448 50 OFFCURVE",
"426 50 CURVE SMOOTH",
"407 50 OFFCURVE",
"393 58 OFFCURVE",
"385 81 CURVE SMOOTH",
"353 178 LINE SMOOTH",
"335 233 OFFCURVE",
"290 268 OFFCURVE",
"209 268 CURVE SMOOTH",
"97 268 OFFCURVE",
"60 200 OFFCURVE",
"60 126 CURVE SMOOTH",
"60 50 OFFCURVE",
"98 -10 OFFCURVE",
"191 -10 CURVE SMOOTH"
);
}
);
width = 629;
},
{
anchors = (
{
name = bottom;
position = "{594, 0}";
},
{
name = top;
position = "{604, 505}";
},
{
name = top2;
position = "{284, 505}";
}
);
layerId = "E5D3352E-10FF-4C03-AD9F-F95B1FD01257";
paths = (
{
closed = 1;
nodes = (
"205 -10 OFFCURVE",
"238 -2 OFFCURVE",
"261 9 CURVE",
"231 131 LINE",
"220 128 OFFCURVE",
"209 127 OFFCURVE",
"203 127 CURVE SMOOTH",
"185 127 OFFCURVE",
"174 137 OFFCURVE",
"174 151 CURVE SMOOTH",
"174 166 OFFCURVE",
"186 176 OFFCURVE",
"206 176 CURVE SMOOTH",
"229 176 OFFCURVE",
"243 162 OFFCURVE",
"250 140 CURVE SMOOTH",
"273 72 LINE SMOOTH",
"290 21 OFFCURVE",
"352 -10 OFFCURVE",
"432 -10 CURVE SMOOTH",
"542 -10 OFFCURVE",
"604 48 OFFCURVE",
"604 142 CURVE SMOOTH",
"604 319 LINE SMOOTH",
"604 454 OFFCURVE",
"492 531 OFFCURVE",
"269 531 CURVE SMOOTH",
"110 531 OFFCURVE",
"38 492 OFFCURVE",
"38 423 CURVE SMOOTH",
"38 354 OFFCURVE",
"112 311 OFFCURVE",
"259 311 CURVE SMOOTH",
"455 311 OFFCURVE",
"611 388 OFFCURVE",
"611 526 CURVE SMOOTH",
"611 538 LINE",
"447 538 LINE",
"447 528 LINE SMOOTH",
"447 456 OFFCURVE",
"379 398 OFFCURVE",
"260 398 CURVE SMOOTH",
"216 398 OFFCURVE",
"190 406 OFFCURVE",
"190 418 CURVE SMOOTH",
"190 431 OFFCURVE",
"216 438 OFFCURVE",
"264 438 CURVE SMOOTH",
"376 438 OFFCURVE",
"420 399 OFFCURVE",
"420 303 CURVE SMOOTH",
"420 149 LINE SMOOTH",
"420 140 OFFCURVE",
"415 134 OFFCURVE",
"407 134 CURVE SMOOTH",
"399 134 OFFCURVE",
"393 141 OFFCURVE",
"391 148 CURVE SMOOTH",
"374 204 LINE SMOOTH",
"354 270 OFFCURVE",
"289 298 OFFCURVE",
"206 298 CURVE SMOOTH",
"94 298 OFFCURVE",
"25 247 OFFCURVE",
"25 144 CURVE SMOOTH",
"25 52 OFFCURVE",
"80 -10 OFFCURVE",
"172 -10 CURVE SMOOTH"
);
}
);
width = 656;
},
{
anchors = (
{
name = bottom;
position = "{361, 0}";
},
{
name = top;
position = "{362, 504}";
},
{
name = top2;
position = "{218, 504}";
}
);
layerId = "DDDB2E70-9881-4210-B3C5-A030831183E9";
paths = (
{
closed = 1;
nodes = (
"146 -10 OFFCURVE",
"161 -8 OFFCURVE",
"172 -2 CURVE",
"167 21 LINE",
"160 17 OFFCURVE",
"148 14 OFFCURVE",
"136 14 CURVE SMOOTH",
"95 14 OFFCURVE",
"71 51 OFFCURVE",
"71 131 CURVE SMOOTH",
"71 216 OFFCURVE",
"98 253 OFFCURVE",
"140 253 CURVE SMOOTH",
"176 253 OFFCURVE",
"196 226 OFFCURVE",
"207 180 CURVE SMOOTH",
"234 66 LINE SMOOTH",
"247 13 OFFCURVE",
"268 -10 OFFCURVE",
"304 -10 CURVE SMOOTH",
"348 -10 OFFCURVE",
"370 24 OFFCURVE",
"370 85 CURVE SMOOTH",
"370 331 LINE SMOOTH",
"370 453 OFFCURVE",
"311 523 OFFCURVE",
"194 523 CURVE SMOOTH",
"101 523 OFFCURVE",
"55 479 OFFCURVE",
"55 424 CURVE SMOOTH",
"55 365 OFFCURVE",
"110 330 OFFCURVE",
"189 330 CURVE SMOOTH",
"316 330 OFFCURVE",
"373 421 OFFCURVE",
"373 511 CURVE SMOOTH",
"373 524 LINE",
"345 524 LINE",
"345 508 LINE SMOOTH",
"345 420 OFFCURVE",
"295 354 OFFCURVE",
"190 354 CURVE SMOOTH",
"127 354 OFFCURVE",
"81 378 OFFCURVE",
"81 425 CURVE SMOOTH",
"81 471 OFFCURVE",
"125 499 OFFCURVE",
"193 499 CURVE SMOOTH",
"293 499 OFFCURVE",
"344 439 OFFCURVE",
"344 328 CURVE SMOOTH",
"344 78 LINE SMOOTH",
"344 35 OFFCURVE",
"332 14 OFFCURVE",
"305 14 CURVE SMOOTH",
"282 14 OFFCURVE",
"268 30 OFFCURVE",
"259 68 CURVE SMOOTH",
"231 184 LINE SMOOTH",
"218 239 OFFCURVE",
"194 277 OFFCURVE",
"142 277 CURVE SMOOTH",
"71 277 OFFCURVE",
"45 209 OFFCURVE",
"45 129 CURVE SMOOTH",
"45 44 OFFCURVE",
"74 -10 OFFCURVE",
"134 -10 CURVE SMOOTH"
);
}
);
width = 431;
},
{
anchors = (
{
name = bottom;
position = "{388, 0}";
},
{
name = top;
position = "{394, 505}";
},
{
name = top2;
position = "{212, 505}";
}
);
layerId = "3A4E24C5-56F7-4F8A-8FFD-B2AF7CE4A726";
paths = (
{
closed = 1;
nodes = (
"146 -10 OFFCURVE",
"164 -7 OFFCURVE",
"177 -1 CURVE",
"164 55 LINE",
"156 52 OFFCURVE",
"148 50 OFFCURVE",
"141 50 CURVE SMOOTH",
"115 50 OFFCURVE",
"104 77 OFFCURVE",
"104 127 CURVE SMOOTH",
"104 185 OFFCURVE",
"119 209 OFFCURVE",
"146 209 CURVE SMOOTH",
"170 209 OFFCURVE",
"184 191 OFFCURVE",
"191 159 CURVE SMOOTH",
"210 66 LINE SMOOTH",
"220 18 OFFCURVE",
"250 -10 OFFCURVE",
"302 -10 CURVE SMOOTH",
"360 -10 OFFCURVE",
"396 25 OFFCURVE",
"396 100 CURVE SMOOTH",
"396 326 LINE SMOOTH",
"396 439 OFFCURVE",
"329 526 OFFCURVE",
"189 526 CURVE SMOOTH",
"88 526 OFFCURVE",
"42 480 OFFCURVE",
"42 419 CURVE SMOOTH",
"42 351 OFFCURVE",
"100 315 OFFCURVE",
"180 315 CURVE SMOOTH",
"314 315 OFFCURVE",
"401 417 OFFCURVE",
"401 524 CURVE SMOOTH",
"401 531 LINE",
"329 531 LINE",
"329 524 LINE SMOOTH",
"329 453 OFFCURVE",
"280 374 OFFCURVE",
"181 374 CURVE SMOOTH",
"142 374 OFFCURVE",
"109 386 OFFCURVE",
"109 419 CURVE SMOOTH",
"109 450 OFFCURVE",
"139 466 OFFCURVE",
"187 466 CURVE SMOOTH",
"264 466 OFFCURVE",
"316 425 OFFCURVE",
"316 326 CURVE SMOOTH",
"316 86 LINE SMOOTH",
"316 59 OFFCURVE",
"309 47 OFFCURVE",
"295 47 CURVE SMOOTH",
"283 47 OFFCURVE",
"274 56 OFFCURVE",
"269 80 CURVE SMOOTH",
"249 179 LINE SMOOTH",
"238 234 OFFCURVE",
"206 269 OFFCURVE",
"150 269 CURVE SMOOTH",
"68 269 OFFCURVE",
"34 203 OFFCURVE",
"34 124 CURVE SMOOTH",
"34 49 OFFCURVE",
"65 -10 OFFCURVE",
"131 -10 CURVE SMOOTH"
);
}
);
width = 446;
},
{
anchors = (
{
name = bottom;
position = "{493, 0}";
},
{
name = top;
position = "{501, 505}";
},
{
name = top2;
position = "{238, 505}";
}
);
layerId = "A6C8CBD9-95C8-4E45-A197-88A1149E2980";
paths = (
{
closed = 1;
nodes = (
"175 -10 OFFCURVE",
"204 -3 OFFCURVE",
"223 6 CURVE",
"197 110 LINE",
"189 107 OFFCURVE",
"180 106 OFFCURVE",
"176 106 CURVE SMOOTH",
"162 106 OFFCURVE",
"155 122 OFFCURVE",
"155 145 CURVE SMOOTH",
"155 171 OFFCURVE",
"164 184 OFFCURVE",
"180 184 CURVE SMOOTH",
"196 184 OFFCURVE",
"205 171 OFFCURVE",
"211 145 CURVE SMOOTH",
"229 70 LINE SMOOTH",
"241 19 OFFCURVE",
"293 -10 OFFCURVE",
"360 -10 CURVE SMOOTH",
"449 -10 OFFCURVE",
"501 41 OFFCURVE",
"501 130 CURVE SMOOTH",
"501 321 LINE SMOOTH",
"501 449 OFFCURVE",
"410 530 OFFCURVE",
"227 530 CURVE SMOOTH",
"99 530 OFFCURVE",
"41 490 OFFCURVE",
"41 423 CURVE SMOOTH",
"41 355 OFFCURVE",
"101 317 OFFCURVE",
"215 317 CURVE SMOOTH",
"380 317 OFFCURVE",
"506 396 OFFCURVE",
"506 526 CURVE SMOOTH",
"506 536 LINE",
"374 536 LINE",
"374 527 LINE SMOOTH",
"374 456 OFFCURVE",
"314 392 OFFCURVE",
"221 392 CURVE SMOOTH",
"186 392 OFFCURVE",
"164 401 OFFCURVE",
"164 419 CURVE SMOOTH",
"164 436 OFFCURVE",
"184 450 OFFCURVE",
"230 450 CURVE SMOOTH",
"313 450 OFFCURVE",
"346 402 OFFCURVE",
"346 310 CURVE SMOOTH",
"346 131 LINE SMOOTH",
"346 117 OFFCURVE",
"343 110 OFFCURVE",
"337 110 CURVE SMOOTH",
"332 110 OFFCURVE",
"329 115 OFFCURVE",
"326 128 CURVE SMOOTH",
"312 197 LINE SMOOTH",
"300 257 OFFCURVE",
"247 289 OFFCURVE",
"178 289 CURVE SMOOTH",
"88 289 OFFCURVE",
"30 234 OFFCURVE",
"30 137 CURVE SMOOTH",
"30 51 OFFCURVE",
"75 -10 OFFCURVE",
"150 -10 CURVE SMOOTH"
);
}
);
width = 553;
}
);
note = uni0EAA;
unicode = 0EAA;
},
{
glyphname = "hoHaan-lao";
lastChange = "2017-06-02 13:33:53 +0000";
layers = (
{
anchors = (
{
name = bottom;
position = "{583, 0}";
},
{
name = top;
position = "{573, 504}";
},
{
name = top2;
position = "{350, 504}";
}
);
layerId = "64BC062E-13E4-450B-B24E-D8A474022433";
paths = (
{
closed = 1;
nodes = (
"307 -10 OFFCURVE",
"347 49 OFFCURVE",
"347 133 CURVE SMOOTH",
"347 321 LINE SMOOTH",
"347 421 OFFCURVE",
"388 498 OFFCURVE",
"468 498 CURVE SMOOTH",
"527 498 OFFCURVE",
"557 455 OFFCURVE",
"557 379 CURVE SMOOTH",
"557 0 LINE",
"583 0 LINE",
"583 380 LINE SMOOTH",
"583 470 OFFCURVE",
"544 523 OFFCURVE",
"470 523 CURVE SMOOTH",
"406 523 OFFCURVE",
"358 484 OFFCURVE",
"339 416 CURVE",
"338 416 LINE",
"330 459 OFFCURVE",
"314 491 OFFCURVE",
"293 523 CURVE",
"274 510 LINE",
"296 482 OFFCURVE",
"321 427 OFFCURVE",
"321 373 CURVE SMOOTH",
"321 134 LINE SMOOTH",
"321 54 OFFCURVE",
"287 14 OFFCURVE",
"216 14 CURVE SMOOTH",
"144 14 OFFCURVE",
"111 54 OFFCURVE",
"111 134 CURVE SMOOTH",
"111 515 LINE",
"85 515 LINE",
"85 133 LINE SMOOTH",
"85 49 OFFCURVE",
"124 -10 OFFCURVE",
"216 -10 CURVE SMOOTH"
);
}
);
width = 668;
},
{
anchors = (
{
name = bottom;
position = "{638, 0}";
},
{
name = top;
position = "{628, 504}";
},
{
name = top2;
position = "{387, 504}";
}
);
layerId = "6449CA81-A7C3-4005-93E5-765657812F1B";
paths = (
{
closed = 1;
nodes = (
"358 -10 OFFCURVE",
"401 54 OFFCURVE",
"401 149 CURVE SMOOTH",
"401 369 LINE SMOOTH",
"401 415 OFFCURVE",
"423 454 OFFCURVE",
"480 454 CURVE SMOOTH",
"527 454 OFFCURVE",
"550 427 OFFCURVE",
"550 379 CURVE SMOOTH",
"550 0 LINE",
"638 0 LINE",
"638 393 LINE SMOOTH",
"638 477 OFFCURVE",
"591 526 OFFCURVE",
"515 526 CURVE SMOOTH",
"461 526 OFFCURVE",
"418 502 OFFCURVE",
"390 472 CURVE",
"386 472 LINE",
"378 493 OFFCURVE",
"356 515 OFFCURVE",
"333 526 CURVE",
"271 482 LINE",
"305 458 OFFCURVE",
"315 433 OFFCURVE",
"315 399 CURVE SMOOTH",
"315 143 LINE SMOOTH",
"315 89 OFFCURVE",
"291 62 OFFCURVE",
"241 62 CURVE SMOOTH",
"190 62 OFFCURVE",
"166 89 OFFCURVE",
"166 143 CURVE SMOOTH",
"166 516 LINE",
"78 516 LINE",
"78 149 LINE SMOOTH",
"78 54 OFFCURVE",
"123 -10 OFFCURVE",
"240 -10 CURVE SMOOTH"
);
}
);
width = 720;
},
{
anchors = (
{
name = bottom;
position = "{673, 0}";
},
{
name = top;
position = "{663, 505}";
},
{
name = top2;
position = "{387, 505}";
}
);
layerId = "E5D3352E-10FF-4C03-AD9F-F95B1FD01257";
paths = (
{
closed = 1;
nodes = (
"367 -10 OFFCURVE",
"440 58 OFFCURVE",
"440 173 CURVE SMOOTH",
"440 366 LINE SMOOTH",
"440 380 OFFCURVE",
"449 388 OFFCURVE",
"465 388 CURVE SMOOTH",
"481 388 OFFCURVE",
"491 380 OFFCURVE",
"491 366 CURVE SMOOTH",
"491 0 LINE",
"673 0 LINE",
"673 395 LINE SMOOTH",
"673 488 OFFCURVE",
"637 531 OFFCURVE",
"562 531 CURVE SMOOTH",
"506 531 OFFCURVE",
"463 507 OFFCURVE",
"431 458 CURVE",
"429 458 LINE",
"418 491 OFFCURVE",
"392 517 OFFCURVE",
"367 531 CURVE",
"244 457 LINE",
"265 439 OFFCURVE",
"278 406 OFFCURVE",
"278 370 CURVE SMOOTH",
"278 155 LINE SMOOTH",
"278 142 OFFCURVE",
"269 134 OFFCURVE",
"253 134 CURVE SMOOTH",
"236 134 OFFCURVE",
"227 142 OFFCURVE",
"227 155 CURVE SMOOTH",
"227 521 LINE",
"45 521 LINE",
"45 173 LINE SMOOTH",
"45 58 OFFCURVE",
"121 -10 OFFCURVE",
"244 -10 CURVE SMOOTH"
);
}
);
width = 718;
},
{
anchors = (
{
name = bottom;
position = "{415, 0}";
},
{
name = top;
position = "{408, 504}";
},
{
name = top2;
position = "{250, 504}";
}
);
layerId = "DDDB2E70-9881-4210-B3C5-A030831183E9";
paths = (
{
closed = 1;
nodes = (
"222 -10 OFFCURVE",
"250 49 OFFCURVE",
"250 133 CURVE SMOOTH",
"250 321 LINE SMOOTH",
"250 421 OFFCURVE",
"276 498 OFFCURVE",
"329 498 CURVE SMOOTH",
"369 498 OFFCURVE",
"389 455 OFFCURVE",
"389 379 CURVE SMOOTH",
"389 0 LINE",
"415 0 LINE",
"415 380 LINE SMOOTH",
"415 470 OFFCURVE",
"387 523 OFFCURVE",
"336 523 CURVE SMOOTH",
"292 523 OFFCURVE",
"259 484 OFFCURVE",
"244 416 CURVE",
"243 416 LINE",
"237 459 OFFCURVE",
"225 491 OFFCURVE",
"211 523 CURVE",
"192 510 LINE",
"209 482 OFFCURVE",
"224 427 OFFCURVE",
"224 373 CURVE SMOOTH",
"224 134 LINE SMOOTH",
"224 54 OFFCURVE",
"202 14 OFFCURVE",
"155 14 CURVE SMOOTH",
"107 14 OFFCURVE",
"85 54 OFFCURVE",
"85 134 CURVE SMOOTH",
"85 515 LINE",
"59 515 LINE",
"59 133 LINE SMOOTH",
"59 49 OFFCURVE",
"87 -10 OFFCURVE",
"155 -10 CURVE SMOOTH"
);
}
);
width = 474;
},
{
anchors = (
{
name = bottom;
position = "{450, 0}";
},
{
name = top;
position = "{443, 504}";
},
{
name = top2;
position = "{267, 504}";
}
);
layerId = "3A4E24C5-56F7-4F8A-8FFD-B2AF7CE4A726";
paths = (
{
closed = 1;
nodes = (
"248 -10 OFFCURVE",
"285 54 OFFCURVE",
"285 147 CURVE SMOOTH",
"285 364 LINE SMOOTH",
"285 416 OFFCURVE",
"299 458 OFFCURVE",
"331 458 CURVE SMOOTH",
"357 458 OFFCURVE",
"371 430 OFFCURVE",
"371 379 CURVE SMOOTH",
"371 0 LINE",
"450 0 LINE",
"450 392 LINE SMOOTH",
"450 476 OFFCURVE",
"421 526 OFFCURVE",
"368 526 CURVE SMOOTH",
"329 526 OFFCURVE",
"298 500 OFFCURVE",
"279 467 CURVE",
"277 467 LINE",
"270 490 OFFCURVE",
"254 513 OFFCURVE",
"238 526 CURVE",
"183 485 LINE",
"203 460 OFFCURVE",
"212 432 OFFCURVE",
"212 396 CURVE SMOOTH",
"212 142 LINE SMOOTH",
"212 86 OFFCURVE",
"198 57 OFFCURVE",
"169 57 CURVE SMOOTH",
"140 57 OFFCURVE",
"126 86 OFFCURVE",
"126 142 CURVE SMOOTH",
"126 516 LINE",
"47 516 LINE",
"47 147 LINE SMOOTH",
"47 54 OFFCURVE",
"86 -10 OFFCURVE",
"167 -10 CURVE SMOOTH"
);
}
);
width = 498;
},
{
anchors = (
{
name = bottom;
position = "{556, 0}";
},
{
name = top;
position = "{548, 505}";
},
{
name = top2;
position = "{324, 505}";
}
);
layerId = "A6C8CBD9-95C8-4E45-A197-88A1149E2980";
paths = (
{
closed = 1;
nodes = (
"310 -10 OFFCURVE",
"367 55 OFFCURVE",
"367 166 CURVE SMOOTH",
"367 367 LINE SMOOTH",
"367 394 OFFCURVE",
"373 407 OFFCURVE",
"386 407 CURVE SMOOTH",
"399 407 OFFCURVE",
"406 395 OFFCURVE",
"406 370 CURVE SMOOTH",
"406 0 LINE",
"561 0 LINE",
"561 394 LINE SMOOTH",
"561 485 OFFCURVE",
"528 530 OFFCURVE",
"468 530 CURVE SMOOTH",
"423 530 OFFCURVE",
"389 506 OFFCURVE",
"363 462 CURVE",
"361 462 LINE",
"352 492 OFFCURVE",
"331 516 OFFCURVE",
"311 530 CURVE",
"214 464 LINE",
"229 444 OFFCURVE",
"240 414 OFFCURVE",
"240 378 CURVE SMOOTH",
"240 152 LINE SMOOTH",
"240 126 OFFCURVE",
"234 113 OFFCURVE",
"221 113 CURVE SMOOTH",
"208 113 OFFCURVE",
"201 126 OFFCURVE",
"201 152 CURVE SMOOTH",
"201 520 LINE",
"46 520 LINE",
"46 166 LINE SMOOTH",
"46 55 OFFCURVE",
"108 -10 OFFCURVE",
"209 -10 CURVE SMOOTH"
);
}
);
width = 607;
}
);
note = uni0EAB;
unicode = 0EAB;
},
{
glyphname = "oO-lao";
lastChange = "2017-06-02 13:33:53 +0000";
layers = (
{
anchors = (
{
name = bottom;
position = "{471, 0}";
},
{
name = top;
position = "{471, 504}";
},
{
name = top2;
position = "{287, 504}";
}
);
layerId = "64BC062E-13E4-450B-B24E-D8A474022433";
paths = (
{
closed = 1;
nodes = (
"439 -10 OFFCURVE",
"520 80 OFFCURVE",
"520 254 CURVE SMOOTH",
"520 431 OFFCURVE",
"437 523 OFFCURVE",
"271 523 CURVE SMOOTH",
"129 523 OFFCURVE",
"60 455 OFFCURVE",
"60 381 CURVE SMOOTH",
"60 304 OFFCURVE",
"134 244 OFFCURVE",
"268 244 CURVE SMOOTH",
"359 244 OFFCURVE",
"464 271 OFFCURVE",
"504 311 CURVE",
"490 334 LINE",
"455 294 OFFCURVE",
"352 269 OFFCURVE",
"269 269 CURVE SMOOTH",
"157 269 OFFCURVE",
"88 314 OFFCURVE",
"88 381 CURVE SMOOTH",
"88 447 OFFCURVE",
"157 498 OFFCURVE",
"276 498 CURVE SMOOTH",
"429 498 OFFCURVE",
"492 413 OFFCURVE",
"492 257 CURVE SMOOTH",
"492 98 OFFCURVE",
"427 14 OFFCURVE",
"284 14 CURVE SMOOTH",
"175 14 OFFCURVE",
"101 63 OFFCURVE",
"101 137 CURVE SMOOTH",
"101 149 OFFCURVE",
"103 158 OFFCURVE",
"107 167 CURVE",
"81 174 LINE",
"76 164 OFFCURVE",
"73 153 OFFCURVE",
"73 137 CURVE SMOOTH",
"73 42 OFFCURVE",
"169 -10 OFFCURVE",
"286 -10 CURVE SMOOTH"
);
}
);
width = 585;
},
{
anchors = (
{
name = bottom;
position = "{513, 0}";
},
{
name = top;
position = "{513, 504}";
},
{
name = top2;
position = "{309, 504}";
}
);
layerId = "6449CA81-A7C3-4005-93E5-765657812F1B";
paths = (
{
closed = 1;
nodes = (
"446 -10 OFFCURVE",
"556 60 OFFCURVE",
"556 253 CURVE SMOOTH",
"556 453 OFFCURVE",
"438 526 OFFCURVE",
"288 526 CURVE SMOOTH",
"143 526 OFFCURVE",
"68 459 OFFCURVE",
"68 371 CURVE SMOOTH",
"68 282 OFFCURVE",
"147 223 OFFCURVE",
"280 223 CURVE SMOOTH",
"357 223 OFFCURVE",
"438 243 OFFCURVE",
"500 285 CURVE",
"467 341 LINE",
"411 304 OFFCURVE",
"339 291 OFFCURVE",
"283 291 CURVE SMOOTH",
"199 291 OFFCURVE",
"148 320 OFFCURVE",
"148 369 CURVE SMOOTH",
"148 423 OFFCURVE",
"209 454 OFFCURVE",
"289 454 CURVE SMOOTH",
"409 454 OFFCURVE",
"468 385 OFFCURVE",
"468 253 CURVE SMOOTH",
"468 125 OFFCURVE",
"412 62 OFFCURVE",
"303 62 CURVE SMOOTH",
"223 62 OFFCURVE",
"149 96 OFFCURVE",
"149 150 CURVE SMOOTH",
"149 159 OFFCURVE",
"151 170 OFFCURVE",
"157 181 CURVE",
"85 202 LINE",
"76 189 OFFCURVE",
"68 174 OFFCURVE",
"68 148 CURVE SMOOTH",
"68 52 OFFCURVE",
"169 -10 OFFCURVE",
"303 -10 CURVE SMOOTH"
);
}
);
width = 614;
},
{
anchors = (
{
name = bottom;
position = "{540, 0}";
},
{
name = top;
position = "{540, 505}";
},
{
name = top2;
position = "{295, 505}";
}
);
layerId = "E5D3352E-10FF-4C03-AD9F-F95B1FD01257";
paths = (
{
closed = 1;
nodes = (
"468 -10 OFFCURVE",
"566 96 OFFCURVE",
"566 260 CURVE SMOOTH",
"566 430 OFFCURVE",
"460 531 OFFCURVE",
"269 531 CURVE SMOOTH",
"119 531 OFFCURVE",
"25 469 OFFCURVE",
"25 363 CURVE SMOOTH",
"25 265 OFFCURVE",
"105 208 OFFCURVE",
"239 208 CURVE SMOOTH",
"314 208 OFFCURVE",
"375 226 OFFCURVE",
"407 256 CURVE",
"367 356 LINE",
"347 341 OFFCURVE",
"313 331 OFFCURVE",
"271 331 CURVE SMOOTH",
"228 331 OFFCURVE",
"202 341 OFFCURVE",
"202 360 CURVE SMOOTH",
"202 378 OFFCURVE",
"229 389 OFFCURVE",
"268 389 CURVE SMOOTH",
"341 389 OFFCURVE",
"382 351 OFFCURVE",
"382 263 CURVE SMOOTH",
"382 185 OFFCURVE",
"350 129 OFFCURVE",
"270 129 CURVE SMOOTH",
"235 129 OFFCURVE",
"190 140 OFFCURVE",
"190 164 CURVE SMOOTH",
"190 168 OFFCURVE",
"191 175 OFFCURVE",
"194 181 CURVE",
"48 226 LINE",
"34 204 OFFCURVE",
"25 175 OFFCURVE",
"25 147 CURVE SMOOTH",
"25 51 OFFCURVE",
"127 -10 OFFCURVE",
"274 -10 CURVE SMOOTH"
);
}
);
width = 594;
},
{
anchors = (
{
name = bottom;
position = "{335, 0}";
},
{
name = top;
position = "{335, 504}";
},
{
name = top2;
position = "{204, 504}";
}
);
layerId = "DDDB2E70-9881-4210-B3C5-A030831183E9";
paths = (
{
closed = 1;
nodes = (
"309 -10 OFFCURVE",
"369 81 OFFCURVE",
"369 254 CURVE SMOOTH",
"369 432 OFFCURVE",
"306 523 OFFCURVE",
"191 523 CURVE SMOOTH",
"92 523 OFFCURVE",
"43 455 OFFCURVE",
"43 381 CURVE SMOOTH",
"43 304 OFFCURVE",
"95 244 OFFCURVE",
"189 244 CURVE SMOOTH",
"251 244 OFFCURVE",
"322 271 OFFCURVE",
"352 311 CURVE",
"340 334 LINE",
"313 294 OFFCURVE",
"245 269 OFFCURVE",
"190 269 CURVE SMOOTH",
"115 269 OFFCURVE",
"69 314 OFFCURVE",
"69 380 CURVE SMOOTH",
"69 447 OFFCURVE",
"116 498 OFFCURVE",
"195 498 CURVE SMOOTH",
"298 498 OFFCURVE",
"342 413 OFFCURVE",
"342 257 CURVE SMOOTH",
"342 98 OFFCURVE",
"297 14 OFFCURVE",
"201 14 CURVE SMOOTH",
"129 14 OFFCURVE",
"77 62 OFFCURVE",
"77 138 CURVE SMOOTH",
"77 149 OFFCURVE",
"78 158 OFFCURVE",
"81 167 CURVE",
"57 174 LINE",
"53 164 OFFCURVE",
"50 154 OFFCURVE",
"50 135 CURVE SMOOTH",
"50 43 OFFCURVE",
"118 -10 OFFCURVE",
"201 -10 CURVE SMOOTH"
);
}
);
width = 414;
},
{
anchors = (
{
name = bottom;
position = "{362, 0}";
},
{
name = top;
position = "{362, 504}";
},
{
name = top2;
position = "{211, 504}";
}
);
layerId = "3A4E24C5-56F7-4F8A-8FFD-B2AF7CE4A726";
paths = (
{
closed = 1;
nodes = (
"317 -10 OFFCURVE",
"390 64 OFFCURVE",
"390 253 CURVE SMOOTH",
"390 450 OFFCURVE",
"311 526 OFFCURVE",
"198 526 CURVE SMOOTH",
"91 526 OFFCURVE",
"36 459 OFFCURVE",
"36 372 CURVE SMOOTH",
"36 284 OFFCURVE",
"92 225 OFFCURVE",
"184 225 CURVE SMOOTH",
"239 225 OFFCURVE",
"293 246 OFFCURVE",
"327 288 CURVE",
"304 340 LINE",
"276 303 OFFCURVE",
"231 289 OFFCURVE",
"195 289 CURVE SMOOTH",
"142 289 OFFCURVE",
"112 319 OFFCURVE",
"112 370 CURVE SMOOTH",
"112 425 OFFCURVE",
"146 458 OFFCURVE",
"197 458 CURVE SMOOTH",
"271 458 OFFCURVE",
"308 387 OFFCURVE",
"308 253 CURVE SMOOTH",
"308 123 OFFCURVE",
"273 57 OFFCURVE",
"202 57 CURVE SMOOTH",
"149 57 OFFCURVE",
"110 93 OFFCURVE",
"110 149 CURVE SMOOTH",
"110 158 OFFCURVE",
"111 169 OFFCURVE",
"115 180 CURVE",
"50 199 LINE",
"43 187 OFFCURVE",
"37 173 OFFCURVE",
"37 145 CURVE SMOOTH",
"37 51 OFFCURVE",
"107 -10 OFFCURVE",
"207 -10 CURVE SMOOTH"
);
}
);
width = 424;
},
{
anchors = (
{
name = bottom;
position = "{448, 0}";
},
{
name = top;
position = "{448, 505}";
},
{
name = top2;
position = "{248, 505}";
}
);
layerId = "A6C8CBD9-95C8-4E45-A197-88A1149E2980";
paths = (
{
closed = 1;
nodes = (
"391 -10 OFFCURVE",
"467 86 OFFCURVE",
"467 257 CURVE SMOOTH",
"467 437 OFFCURVE",
"383 530 OFFCURVE",
"229 530 CURVE SMOOTH",
"106 530 OFFCURVE",
"30 471 OFFCURVE",
"30 369 CURVE SMOOTH",
"30 275 OFFCURVE",
"96 222 OFFCURVE",
"200 222 CURVE SMOOTH",
"262 222 OFFCURVE",
"308 241 OFFCURVE",
"332 267 CURVE",
"307 352 LINE",
"291 330 OFFCURVE",
"261 319 OFFCURVE",
"232 319 CURVE SMOOTH",
"197 319 OFFCURVE",
"179 335 OFFCURVE",
"179 363 CURVE SMOOTH",
"179 391 OFFCURVE",
"196 408 OFFCURVE",
"229 408 CURVE SMOOTH",
"285 408 OFFCURVE",
"317 360 OFFCURVE",
"317 258 CURVE SMOOTH",
"317 168 OFFCURVE",
"292 110 OFFCURVE",
"230 110 CURVE SMOOTH",
"192 110 OFFCURVE",
"169 131 OFFCURVE",
"169 159 CURVE SMOOTH",
"169 165 OFFCURVE",
"170 174 OFFCURVE",
"172 181 CURVE",
"49 219 LINE",
"37 200 OFFCURVE",
"30 175 OFFCURVE",
"30 147 CURVE SMOOTH",
"30 51 OFFCURVE",
"113 -10 OFFCURVE",
"236 -10 CURVE SMOOTH"
);
}
);
width = 500;
}
);
note = uni0EAD;
unicode = 0EAD;
},
{
glyphname = "hoHeuan-lao";
lastChange = "2017-06-02 13:33:53 +0000";
layers = (
{
anchors = (
{
name = bottom;
position = "{415, 0}";
},
{
name = top;
position = "{454, 504}";
},
{
name = top2;
position = "{278, 504}";
}
);
layerId = "64BC062E-13E4-450B-B24E-D8A474022433";
paths = (
{
closed = 1;
nodes = (
"409 -10 OFFCURVE",
"468 52 OFFCURVE",
"468 142 CURVE SMOOTH",
"468 259 OFFCURVE",
"369 284 OFFCURVE",
"250 310 CURVE SMOOTH",
"140 334 OFFCURVE",
"88 349 OFFCURVE",
"88 414 CURVE SMOOTH",
"88 478 OFFCURVE",
"139 498 OFFCURVE",
"194 498 CURVE SMOOTH",
"279 498 OFFCURVE",
"325 449 OFFCURVE",
"391 449 CURVE SMOOTH",
"433 449 OFFCURVE",
"468 470 OFFCURVE",
"468 507 CURVE SMOOTH",
"468 515 LINE",
"442 515 LINE",
"442 507 LINE SMOOTH",
"442 487 OFFCURVE",
"424 474 OFFCURVE",
"393 474 CURVE SMOOTH",
"333 474 OFFCURVE",
"282 523 OFFCURVE",
"192 523 CURVE SMOOTH",
"116 523 OFFCURVE",
"60 487 OFFCURVE",
"60 415 CURVE SMOOTH",
"60 326 OFFCURVE",
"144 307 OFFCURVE",
"240 286 CURVE SMOOTH",
"371 257 OFFCURVE",
"440 238 OFFCURVE",
"440 143 CURVE SMOOTH",
"440 42 OFFCURVE",
"360 14 OFFCURVE",
"265 14 CURVE SMOOTH",
"185 14 OFFCURVE",
"88 34 OFFCURVE",
"88 128 CURVE SMOOTH",
"88 147 OFFCURVE",
"92 161 OFFCURVE",
"97 172 CURVE",
"72 182 LINE",
"64 167 OFFCURVE",
"60 148 OFFCURVE",
"60 128 CURVE SMOOTH",
"60 54 OFFCURVE",
"116 -10 OFFCURVE",
"264 -10 CURVE SMOOTH"
);
}
);
width = 533;
},
{
anchors = (
{
name = bottom;
position = "{516, 0}";
},
{
name = top;
position = "{517, 504}";
},
{
name = top2;
position = "{314, 504}";
}
);
layerId = "6449CA81-A7C3-4005-93E5-765657812F1B";
paths = (
{
closed = 1;
nodes = (
"463 -10 OFFCURVE",
"536 63 OFFCURVE",
"536 148 CURVE SMOOTH",
"536 254 OFFCURVE",
"419 286 OFFCURVE",
"303 318 CURVE SMOOTH",
"212 343 OFFCURVE",
"153 358 OFFCURVE",
"153 409 CURVE SMOOTH",
"153 438 OFFCURVE",
"172 454 OFFCURVE",
"207 454 CURVE SMOOTH",
"279 454 OFFCURVE",
"351 389 OFFCURVE",
"434 389 CURVE SMOOTH",
"487 389 OFFCURVE",
"536 415 OFFCURVE",
"536 492 CURVE SMOOTH",
"536 516 LINE",
"449 516 LINE",
"449 494 LINE SMOOTH",
"449 473 OFFCURVE",
"441 462 OFFCURVE",
"419 462 CURVE SMOOTH",
"365 462 OFFCURVE",
"305 526 OFFCURVE",
"205 526 CURVE SMOOTH",
"132 526 OFFCURVE",
"68 492 OFFCURVE",
"68 410 CURVE SMOOTH",
"68 310 OFFCURVE",
"163 281 OFFCURVE",
"279 249 CURVE SMOOTH",
"398 216 OFFCURVE",
"451 203 OFFCURVE",
"451 147 CURVE SMOOTH",
"451 91 OFFCURVE",
"398 61 OFFCURVE",
"297 61 CURVE SMOOTH",
"201 61 OFFCURVE",
"153 88 OFFCURVE",
"153 143 CURVE SMOOTH",
"153 161 OFFCURVE",
"158 174 OFFCURVE",
"170 186 CURVE",
"100 220 LINE",
"83 205 OFFCURVE",
"68 181 OFFCURVE",
"68 142 CURVE SMOOTH",
"68 55 OFFCURVE",
"145 -10 OFFCURVE",
"299 -10 CURVE SMOOTH"
);
}
);
width = 609;
},
{
anchors = (
{
name = bottom;
position = "{519, 0}";
},
{
name = top;
position = "{519, 505}";
},
{
name = top2;
position = "{288, 505}";
}
);
layerId = "E5D3352E-10FF-4C03-AD9F-F95B1FD01257";
paths = (
{
closed = 1;
nodes = (
"469 -10 OFFCURVE",
"549 56 OFFCURVE",
"549 161 CURVE SMOOTH",
"549 241 OFFCURVE",
"502 282 OFFCURVE",
"339 329 CURVE SMOOTH",
"263 351 OFFCURVE",
"214 359 OFFCURVE",
"214 377 CURVE SMOOTH",
"214 383 OFFCURVE",
"220 387 OFFCURVE",
"236 387 CURVE SMOOTH",
"284 387 OFFCURVE",
"347 351 OFFCURVE",
"423 351 CURVE SMOOTH",
"506 351 OFFCURVE",
"549 394 OFFCURVE",
"549 491 CURVE SMOOTH",
"549 521 LINE",
"380 521 LINE",
"380 510 LINE SMOOTH",
"380 500 OFFCURVE",
"374 494 OFFCURVE",
"360 494 CURVE SMOOTH",
"326 494 OFFCURVE",
"264 531 OFFCURVE",
"185 531 CURVE SMOOTH",
"86 531 OFFCURVE",
"25 474 OFFCURVE",
"25 387 CURVE SMOOTH",
"25 304 OFFCURVE",
"81 268 OFFCURVE",
"204 229 CURVE SMOOTH",
"294 200 OFFCURVE",
"361 190 OFFCURVE",
"361 156 CURVE SMOOTH",
"361 136 OFFCURVE",
"336 124 OFFCURVE",
"283 124 CURVE SMOOTH",
"225 124 OFFCURVE",
"202 139 OFFCURVE",
"202 159 CURVE SMOOTH",
"202 169 OFFCURVE",
"207 179 OFFCURVE",
"215 185 CURVE",
"81 253 LINE",
"52 235 OFFCURVE",
"25 194 OFFCURVE",
"25 144 CURVE SMOOTH",
"25 58 OFFCURVE",
"107 -10 OFFCURVE",
"289 -10 CURVE SMOOTH"
);
}
);
width = 574;
},
{
anchors = (
{
name = bottom;
position = "{303, 0}";
},
{
name = top;
position = "{326, 504}";
},
{
name = top2;
position = "{199, 504}";
}
);
layerId = "DDDB2E70-9881-4210-B3C5-A030831183E9";
paths = (
{
closed = 1;
nodes = (
"293 -10 OFFCURVE",
"336 52 OFFCURVE",
"336 143 CURVE SMOOTH",
"336 259 OFFCURVE",
"266 283 OFFCURVE",
"182 310 CURVE SMOOTH",
"104 335 OFFCURVE",
"70 350 OFFCURVE",
"70 415 CURVE SMOOTH",
"70 478 OFFCURVE",
"101 498 OFFCURVE",
"137 498 CURVE SMOOTH",
"194 498 OFFCURVE",
"231 449 OFFCURVE",
"279 449 CURVE SMOOTH",
"310 449 OFFCURVE",
"336 470 OFFCURVE",
"336 507 CURVE SMOOTH",
"336 515 LINE",
"310 515 LINE",
"310 507 LINE SMOOTH",
"310 487 OFFCURVE",
"299 474 OFFCURVE",
"278 474 CURVE SMOOTH",
"237 474 OFFCURVE",
"199 523 OFFCURVE",
"137 523 CURVE SMOOTH",
"83 523 OFFCURVE",
"43 487 OFFCURVE",
"43 415 CURVE SMOOTH",
"43 326 OFFCURVE",
"103 307 OFFCURVE",
"173 286 CURVE SMOOTH",
"264 259 OFFCURVE",
"309 238 OFFCURVE",
"309 143 CURVE SMOOTH",
"309 42 OFFCURVE",
"257 14 OFFCURVE",
"190 14 CURVE SMOOTH",
"133 14 OFFCURVE",
"70 34 OFFCURVE",
"70 127 CURVE SMOOTH",
"70 147 OFFCURVE",
"73 161 OFFCURVE",
"77 172 CURVE",
"54 182 LINE",
"47 167 OFFCURVE",
"43 149 OFFCURVE",
"43 127 CURVE SMOOTH",
"43 54 OFFCURVE",
"85 -10 OFFCURVE",
"190 -10 CURVE SMOOTH"
);
}
);
width = 383;
},
{
anchors = (
{
name = bottom;
position = "{352, 0}";
},
{
name = top;
position = "{356, 504}";
},
{
name = top2;
position = "{210, 504}";
}
);
layerId = "3A4E24C5-56F7-4F8A-8FFD-B2AF7CE4A726";
paths = (
{
closed = 1;
nodes = (
"307 -10 OFFCURVE",
"372 57 OFFCURVE",
"372 156 CURVE SMOOTH",
"372 258 OFFCURVE",
"302 286 OFFCURVE",
"216 319 CURVE SMOOTH",
"147 345 OFFCURVE",
"116 358 OFFCURVE",
"116 408 CURVE SMOOTH",
"116 443 OFFCURVE",
"131 458 OFFCURVE",
"155 458 CURVE SMOOTH",
"203 458 OFFCURVE",
"238 395 OFFCURVE",
"300 395 CURVE SMOOTH",
"339 395 OFFCURVE",
"372 420 OFFCURVE",
"372 493 CURVE SMOOTH",
"372 516 LINE",
"302 516 LINE",
"302 495 LINE SMOOTH",
"302 474 OFFCURVE",
"296 463 OFFCURVE",
"282 463 CURVE SMOOTH",
"246 463 OFFCURVE",
"217 526 OFFCURVE",
"140 526 CURVE SMOOTH",
"83 526 OFFCURVE",
"36 492 OFFCURVE",
"36 406 CURVE SMOOTH",
"36 311 OFFCURVE",
"93 284 OFFCURVE",
"172 252 CURVE SMOOTH",
"251 220 OFFCURVE",
"292 208 OFFCURVE",
"292 144 CURVE SMOOTH",
"292 87 OFFCURVE",
"259 56 OFFCURVE",
"201 56 CURVE SMOOTH",
"145 56 OFFCURVE",
"113 84 OFFCURVE",
"113 141 CURVE SMOOTH",
"113 161 OFFCURVE",
"117 173 OFFCURVE",
"123 185 CURVE",
"63 216 LINE",
"41 192 OFFCURVE",
"36 163 OFFCURVE",
"36 140 CURVE SMOOTH",
"36 62 OFFCURVE",
"91 -10 OFFCURVE",
"201 -10 CURVE SMOOTH"
);
}
);
width = 410;
},
{
anchors = (
{
name = bottom;
position = "{429, 0}";
},
{
name = top;
position = "{429, 505}";
},
{
name = top2;
position = "{242, 505}";
}
);
layerId = "A6C8CBD9-95C8-4E45-A197-88A1149E2980";
paths = (
{
closed = 1;
nodes = (
"388 -10 OFFCURVE",
"454 55 OFFCURVE",
"454 163 CURVE SMOOTH",
"454 262 OFFCURVE",
"398 288 OFFCURVE",
"287 328 CURVE SMOOTH",
"233 347 OFFCURVE",
"190 363 OFFCURVE",
"190 389 CURVE SMOOTH",
"190 400 OFFCURVE",
"198 406 OFFCURVE",
"211 406 CURVE SMOOTH",
"248 406 OFFCURVE",
"287 362 OFFCURVE",
"355 362 CURVE SMOOTH",
"420 362 OFFCURVE",
"454 402 OFFCURVE",
"454 491 CURVE SMOOTH",
"454 520 LINE",
"322 520 LINE",
"322 505 LINE SMOOTH",
"322 492 OFFCURVE",
"312 485 OFFCURVE",
"302 485 CURVE SMOOTH",
"275 485 OFFCURVE",
"226 530 OFFCURVE",
"160 530 CURVE SMOOTH",
"96 530 OFFCURVE",
"30 487 OFFCURVE",
"30 389 CURVE SMOOTH",
"30 308 OFFCURVE",
"75 270 OFFCURVE",
"170 233 CURVE SMOOTH",
"243 205 OFFCURVE",
"295 195 OFFCURVE",
"295 151 CURVE SMOOTH",
"295 123 OFFCURVE",
"273 106 OFFCURVE",
"238 106 CURVE SMOOTH",
"201 106 OFFCURVE",
"179 124 OFFCURVE",
"179 154 CURVE SMOOTH",
"179 167 OFFCURVE",
"183 178 OFFCURVE",
"189 185 CURVE",
"77 243 LINE",
"53 226 OFFCURVE",
"30 191 OFFCURVE",
"30 141 CURVE SMOOTH",
"30 58 OFFCURVE",
"95 -10 OFFCURVE",
"243 -10 CURVE SMOOTH"
);
}
);
width = 483;
}
);
note = uni0EAE;
unicode = 0EAE;
},
{
glyphname = "khmuGo-lao";
lastChange = "2017-06-02 13:33:53 +0000";
layers = (
{
anchors = (
{
name = bottom;
position = "{540, 0}";
},
{
name = top;
position = "{525, 504}";
},
{
name = top2;
position = "{335, 504}";
}
);
layerId = "64BC062E-13E4-450B-B24E-D8A474022433";
paths = (
{
closed = 1;
nodes = (
"158 -9 OFFCURVE",
"186 18 OFFCURVE",
"186 84 CURVE SMOOTH",
"186 338 LINE SMOOTH",
"186 401 OFFCURVE",
"258 498 OFFCURVE",
"385 498 CURVE SMOOTH",
"494 498 OFFCURVE",
"514 426 OFFCURVE",
"514 344 CURVE SMOOTH",
"514 0 LINE",
"540 0 LINE",
"540 343 LINE SMOOTH",
"540 464 OFFCURVE",
"493 523 OFFCURVE",
"384 523 CURVE SMOOTH",
"275 523 OFFCURVE",
"214 465 OFFCURVE",
"182 403 CURVE",
"181 403 LINE",
"171 452 OFFCURVE",
"157 489 OFFCURVE",
"132 523 CURVE",
"112 510 LINE",
"138 474 OFFCURVE",
"160 422 OFFCURVE",
"160 367 CURVE SMOOTH",
"160 80 LINE SMOOTH",
"160 29 OFFCURVE",
"142 15 OFFCURVE",
"109 15 CURVE SMOOTH",
"93 15 OFFCURVE",
"83 18 OFFCURVE",
"70 22 CURVE",
"65 -2 LINE",
"78 -6 OFFCURVE",
"94 -9 OFFCURVE",
"110 -9 CURVE SMOOTH"
);
},
{
closed = 1;
nodes = (
"607 224 LINE",
"607 248 LINE",
"386 248 LINE SMOOTH",
"355 248 OFFCURVE",
"344 259 OFFCURVE",
"344 278 CURVE SMOOTH",
"344 289 OFFCURVE",
"348 302 OFFCURVE",
"352 310 CURVE",
"328 314 LINE",
"323 304 OFFCURVE",
"319 287 OFFCURVE",
"319 274 CURVE SMOOTH",
"319 246 OFFCURVE",
"338 224 OFFCURVE",
"383 224 CURVE SMOOTH"
);
}
);
width = 627;
},
{
anchors = (
{
name = bottom;
position = "{527, 0}";
},
{
name = top;
position = "{517, 504}";
},
{
name = top2;
position = "{335, 504}";
}
);
layerId = "6449CA81-A7C3-4005-93E5-765657812F1B";
paths = (
{
closed = 1;
nodes = (
"156 -10 OFFCURVE",
"194 31 OFFCURVE",
"194 101 CURVE SMOOTH",
"194 337 LINE SMOOTH",
"194 430 OFFCURVE",
"262 454 OFFCURVE",
"322 454 CURVE SMOOTH",
"406 454 OFFCURVE",
"438 407 OFFCURVE",
"438 328 CURVE SMOOTH",
"438 0 LINE",
"526 0 LINE",
"526 334 LINE SMOOTH",
"526 461 OFFCURVE",
"459 526 OFFCURVE",
"340 526 CURVE SMOOTH",
"275 526 OFFCURVE",
"216 507 OFFCURVE",
"171 450 CURVE",
"168 450 LINE",
"156 479 OFFCURVE",
"133 511 OFFCURVE",
"115 526 CURVE",
"51 477 LINE",
"79 451 OFFCURVE",
"106 411 OFFCURVE",
"106 343 CURVE SMOOTH",
"106 98 LINE SMOOTH",
"106 70 OFFCURVE",
"89 60 OFFCURVE",
"67 60 CURVE SMOOTH",
"57 60 OFFCURVE",
"45 62 OFFCURVE",
"33 65 CURVE",
"20 4 LINE",
"44 -5 OFFCURVE",
"70 -10 OFFCURVE",
"92 -10 CURVE SMOOTH"
);
},
{
closed = 1;
nodes = (
"581 195 LINE",
"581 261 LINE",
"374 261 LINE SMOOTH",
"349 261 OFFCURVE",
"339 274 OFFCURVE",
"339 292 CURVE SMOOTH",
"339 301 OFFCURVE",
"341 315 OFFCURVE",
"344 321 CURVE",
"277 332 LINE",
"268 318 OFFCURVE",
"262 294 OFFCURVE",
"262 275 CURVE SMOOTH",
"262 233 OFFCURVE",
"293 195 OFFCURVE",
"368 195 CURVE SMOOTH"
);
}
);
width = 611;
},
{
anchors = (
{
name = bottom;
position = "{596, 0}";
},
{
name = top;
position = "{586, 505}";
},
{
name = top2;
position = "{355, 505}";
}
);
layerId = "E5D3352E-10FF-4C03-AD9F-F95B1FD01257";
paths = (
{
closed = 1;
nodes = (
"248 -10 OFFCURVE",
"304 41 OFFCURVE",
"304 134 CURVE SMOOTH",
"304 330 LINE SMOOTH",
"304 369 OFFCURVE",
"324 387 OFFCURVE",
"356 387 CURVE SMOOTH",
"390 387 OFFCURVE",
"403 368 OFFCURVE",
"403 329 CURVE SMOOTH",
"403 0 LINE",
"595 0 LINE",
"595 351 LINE SMOOTH",
"595 450 OFFCURVE",
"542 531 OFFCURVE",
"412 531 CURVE SMOOTH",
"333 531 OFFCURVE",
"277 501 OFFCURVE",
"240 461 CURVE",
"237 461 LINE",
"227 486 OFFCURVE",
"207 508 OFFCURVE",
"182 531 CURVE",
"43 427 LINE",
"96 382 OFFCURVE",
"112 350 OFFCURVE",
"112 285 CURVE SMOOTH",
"112 157 LINE SMOOTH",
"112 141 OFFCURVE",
"105 134 OFFCURVE",
"87 134 CURVE SMOOTH",
"74 134 OFFCURVE",
"62 138 OFFCURVE",
"52 142 CURVE",
"25 20 LINE",
"63 0 OFFCURVE",
"120 -10 OFFCURVE",
"159 -10 CURVE SMOOTH"
);
},
{
closed = 1;
nodes = (
"652 145 LINE",
"652 250 LINE",
"424 250 LINE SMOOTH",
"403 250 OFFCURVE",
"390 260 OFFCURVE",
"390 283 CURVE SMOOTH",
"390 294 OFFCURVE",
"393 307 OFFCURVE",
"398 318 CURVE",
"317 318 LINE",
"304 293 OFFCURVE",
"297 276 OFFCURVE",
"297 248 CURVE SMOOTH",
"297 179 OFFCURVE",
"338 145 OFFCURVE",
"406 145 CURVE SMOOTH"
);
}
);
width = 644;
},
{
anchors = (
{
name = bottom;
position = "{377, 0}";
},
{
name = top;
position = "{367, 504}";
},
{
name = top2;
position = "{235, 504}";
}
);
layerId = "DDDB2E70-9881-4210-B3C5-A030831183E9";
paths = (
{
closed = 1;
nodes = (
"111 -9 OFFCURVE",
"131 18 OFFCURVE",
"131 84 CURVE SMOOTH",
"131 338 LINE SMOOTH",
"131 400 OFFCURVE",
"180 498 OFFCURVE",
"263 498 CURVE SMOOTH",
"335 498 OFFCURVE",
"350 425 OFFCURVE",
"350 344 CURVE SMOOTH",
"350 0 LINE",
"376 0 LINE",
"376 343 LINE SMOOTH",
"376 462 OFFCURVE",
"341 523 OFFCURVE",
"265 523 CURVE SMOOTH",
"196 523 OFFCURVE",
"153 472 OFFCURVE",
"126 403 CURVE",
"125 403 LINE",
"118 452 OFFCURVE",
"107 489 OFFCURVE",
"90 523 CURVE",
"71 510 LINE",
"89 474 OFFCURVE",
"105 422 OFFCURVE",
"105 367 CURVE SMOOTH",
"105 80 LINE SMOOTH",
"105 29 OFFCURVE",
"93 15 OFFCURVE",
"71 15 CURVE SMOOTH",
"61 15 OFFCURVE",
"53 18 OFFCURVE",
"45 22 CURVE",
"40 -2 LINE",
"50 -6 OFFCURVE",
"63 -9 OFFCURVE",
"75 -9 CURVE SMOOTH"
);
},
{
closed = 1;
nodes = (
"422 224 LINE",
"422 248 LINE",
"269 248 LINE SMOOTH",
"248 248 OFFCURVE",
"240 259 OFFCURVE",
"240 278 CURVE SMOOTH",
"240 289 OFFCURVE",
"243 302 OFFCURVE",
"246 310 CURVE",
"223 314 LINE",
"219 304 OFFCURVE",
"216 287 OFFCURVE",
"216 274 CURVE SMOOTH",
"216 246 OFFCURVE",
"231 224 OFFCURVE",
"266 224 CURVE SMOOTH"
);
}
);
width = 437;
},
{
anchors = (
{
name = bottom;
position = "{388, 0}";
},
{
name = top;
position = "{381, 504}";
},
{
name = top2;
position = "{240, 504}";
}
);
layerId = "3A4E24C5-56F7-4F8A-8FFD-B2AF7CE4A726";
paths = (
{
closed = 1;
nodes = (
"134 -10 OFFCURVE",
"163 31 OFFCURVE",
"163 99 CURVE SMOOTH",
"163 337 LINE SMOOTH",
"163 427 OFFCURVE",
"200 458 OFFCURVE",
"240 458 CURVE SMOOTH",
"289 458 OFFCURVE",
"305 411 OFFCURVE",
"305 330 CURVE SMOOTH",
"305 0 LINE",
"387 0 LINE",
"387 335 LINE SMOOTH",
"387 462 OFFCURVE",
"346 526 OFFCURVE",
"260 526 CURVE SMOOTH",
"208 526 OFFCURVE",
"167 503 OFFCURVE",
"139 445 CURVE",
"137 445 LINE",
"129 476 OFFCURVE",
"115 509 OFFCURVE",
"100 526 CURVE",
"40 480 LINE",
"66 453 OFFCURVE",
"81 412 OFFCURVE",
"81 345 CURVE SMOOTH",
"81 96 LINE SMOOTH",
"81 66 OFFCURVE",
"72 56 OFFCURVE",
"56 56 CURVE SMOOTH",
"48 56 OFFCURVE",
"40 58 OFFCURVE",
"32 61 CURVE",
"20 3 LINE",
"39 -5 OFFCURVE",
"65 -10 OFFCURVE",
"83 -10 CURVE SMOOTH"
);
},
{
closed = 1;
nodes = (
"428 198 LINE",
"428 260 LINE",
"276 260 LINE SMOOTH",
"259 260 OFFCURVE",
"251 273 OFFCURVE",
"251 291 CURVE SMOOTH",
"251 300 OFFCURVE",
"253 314 OFFCURVE",
"256 320 CURVE",
"209 330 LINE",
"202 317 OFFCURVE",
"198 293 OFFCURVE",
"198 275 CURVE SMOOTH",
"198 234 OFFCURVE",
"221 198 OFFCURVE",
"269 198 CURVE SMOOTH"
);
}
);
width = 438;
},
{
anchors = (
{
name = bottom;
position = "{495, 0}";
},
{
name = top;
position = "{487, 505}";
},
{
name = top2;
position = "{298, 505}";
}
);
layerId = "A6C8CBD9-95C8-4E45-A197-88A1149E2980";
paths = (
{
closed = 1;
nodes = (
"218 -10 OFFCURVE",
"265 38 OFFCURVE",
"265 124 CURVE SMOOTH",
"265 332 LINE SMOOTH",
"265 388 OFFCURVE",
"283 406 OFFCURVE",
"303 406 CURVE SMOOTH",
"329 406 OFFCURVE",
"342 378 OFFCURVE",
"342 329 CURVE SMOOTH",
"342 0 LINE",
"504 0 LINE",
"504 346 LINE SMOOTH",
"504 453 OFFCURVE",
"458 530 OFFCURVE",
"352 530 CURVE SMOOTH",
"289 530 OFFCURVE",
"239 503 OFFCURVE",
"210 458 CURVE",
"208 458 LINE",
"200 484 OFFCURVE",
"184 509 OFFCURVE",
"164 530 CURVE",
"46 441 LINE",
"91 402 OFFCURVE",
"103 368 OFFCURVE",
"103 302 CURVE SMOOTH",
"103 140 LINE SMOOTH",
"103 120 OFFCURVE",
"98 113 OFFCURVE",
"83 113 CURVE SMOOTH",
"73 113 OFFCURVE",
"64 116 OFFCURVE",
"56 120 CURVE",
"33 15 LINE",
"65 -1 OFFCURVE",
"113 -10 OFFCURVE",
"145 -10 CURVE SMOOTH"
);
},
{
closed = 1;
nodes = (
"544 159 LINE",
"544 253 LINE",
"360 253 LINE SMOOTH",
"343 253 OFFCURVE",
"333 264 OFFCURVE",
"333 286 CURVE SMOOTH",
"333 296 OFFCURVE",
"335 310 OFFCURVE",
"339 320 CURVE",
"273 322 LINE",
"263 300 OFFCURVE",
"257 281 OFFCURVE",
"257 256 CURVE SMOOTH",
"257 195 OFFCURVE",
"291 159 OFFCURVE",
"344 159 CURVE SMOOTH"
);
}
);
width = 554;
}
);
unicode = 0EDE;
},
{
glyphname = "khmuNyo-lao";
lastChange = "2017-06-02 13:33:53 +0000";
layers = (
{
anchors = (
{
name = bottom;
position = "{461, 0}";
},
{
name = top;
position = "{471, 504}";
},
{
name = top2;
position = "{306, 504}";
}
);
layerId = "64BC062E-13E4-450B-B24E-D8A474022433";
paths = (
{
closed = 1;
nodes = (
"386 -10 OFFCURVE",
"471 42 OFFCURVE",
"471 165 CURVE SMOOTH",
"471 515 LINE",
"445 515 LINE",
"445 159 LINE SMOOTH",
"445 50 OFFCURVE",
"359 14 OFFCURVE",
"269 14 CURVE SMOOTH",
"178 14 OFFCURVE",
"95 50 OFFCURVE",
"95 144 CURVE SMOOTH",
"95 221 OFFCURVE",
"151 262 OFFCURVE",
"216 262 CURVE SMOOTH",
"243 262 LINE",
"243 284 LINE",
"216 284 LINE SMOOTH",
"171 284 OFFCURVE",
"92 312 OFFCURVE",
"92 398 CURVE SMOOTH",
"92 465 OFFCURVE",
"139 498 OFFCURVE",
"208 498 CURVE SMOOTH",
"233 498 OFFCURVE",
"263 494 OFFCURVE",
"276 489 CURVE",
"281 512 LINE",
"262 518 OFFCURVE",
"231 523 OFFCURVE",
"204 523 CURVE SMOOTH",
"122 523 OFFCURVE",
"65 477 OFFCURVE",
"65 397 CURVE SMOOTH",
"65 318 OFFCURVE",
"119 287 OFFCURVE",
"155 274 CURVE",
"155 270 LINE",
"121 257 OFFCURVE",
"68 229 OFFCURVE",
"68 146 CURVE SMOOTH",
"68 46 OFFCURVE",
"144 -10 OFFCURVE",
"267 -10 CURVE SMOOTH"
);
},
{
closed = 1;
nodes = (
"544 225 LINE",
"544 249 LINE",
"372 249 LINE SMOOTH",
"342 249 OFFCURVE",
"331 260 OFFCURVE",
"331 279 CURVE SMOOTH",
"331 290 OFFCURVE",
"335 303 OFFCURVE",
"339 311 CURVE",
"315 315 LINE",
"310 305 OFFCURVE",
"306 288 OFFCURVE",
"306 275 CURVE SMOOTH",
"306 247 OFFCURVE",
"325 225 OFFCURVE",
"369 225 CURVE SMOOTH"
);
}
);
width = 564;
},
{
anchors = (
{
name = bottom;
position = "{517, 0}";
},
{
name = top;
position = "{527, 504}";
},
{
name = top2;
position = "{344, 504}";
}
);
layerId = "6449CA81-A7C3-4005-93E5-765657812F1B";
paths = (
{
closed = 1;
nodes = (
"448 -10 OFFCURVE",
"527 47 OFFCURVE",
"527 179 CURVE SMOOTH",
"527 516 LINE",
"439 516 LINE",
"439 169 LINE SMOOTH",
"439 94 OFFCURVE",
"397 62 OFFCURVE",
"300 62 CURVE SMOOTH",
"198 62 OFFCURVE",
"156 98 OFFCURVE",
"156 159 CURVE SMOOTH",
"156 218 OFFCURVE",
"195 246 OFFCURVE",
"243 246 CURVE SMOOTH",
"263 246 LINE",
"263 309 LINE",
"243 309 LINE SMOOTH",
"215 309 OFFCURVE",
"156 325 OFFCURVE",
"156 386 CURVE SMOOTH",
"156 428 OFFCURVE",
"184 454 OFFCURVE",
"239 454 CURVE SMOOTH",
"264 454 OFFCURVE",
"289 449 OFFCURVE",
"303 444 CURVE",
"318 511 LINE",
"299 520 OFFCURVE",
"262 526 OFFCURVE",
"227 526 CURVE SMOOTH",
"112 526 OFFCURVE",
"68 461 OFFCURVE",
"68 395 CURVE SMOOTH",
"68 324 OFFCURVE",
"120 290 OFFCURVE",
"161 278 CURVE",
"161 274 LINE",
"115 267 OFFCURVE",
"68 232 OFFCURVE",
"68 153 CURVE SMOOTH",
"68 51 OFFCURVE",
"146 -10 OFFCURVE",
"300 -10 CURVE SMOOTH"
);
},
{
closed = 1;
nodes = (
"602 224 LINE",
"602 290 LINE",
"409 290 LINE SMOOTH",
"384 290 OFFCURVE",
"374 303 OFFCURVE",
"374 321 CURVE SMOOTH",
"374 330 OFFCURVE",
"376 344 OFFCURVE",
"379 350 CURVE",
"312 361 LINE",
"303 347 OFFCURVE",
"297 323 OFFCURVE",
"297 304 CURVE SMOOTH",
"297 262 OFFCURVE",
"328 224 OFFCURVE",
"403 224 CURVE SMOOTH"
);
}
);
width = 612;
},
{
anchors = (
{
name = bottom;
position = "{540, 0}";
},
{
name = top;
position = "{550, 505}";
},
{
name = top2;
position = "{320, 505}";
}
);
layerId = "E5D3352E-10FF-4C03-AD9F-F95B1FD01257";
paths = (
{
closed = 1;
nodes = (
"456 -10 OFFCURVE",
"550 50 OFFCURVE",
"550 196 CURVE SMOOTH",
"550 521 LINE",
"358 521 LINE",
"358 185 LINE SMOOTH",
"358 156 OFFCURVE",
"329 134 OFFCURVE",
"281 134 CURVE SMOOTH",
"247 134 OFFCURVE",
"213 145 OFFCURVE",
"213 172 CURVE SMOOTH",
"213 189 OFFCURVE",
"226 208 OFFCURVE",
"259 208 CURVE SMOOTH",
"312 208 LINE",
"312 317 LINE",
"259 317 LINE SMOOTH",
"231 317 OFFCURVE",
"213 330 OFFCURVE",
"213 355 CURVE SMOOTH",
"213 376 OFFCURVE",
"225 387 OFFCURVE",
"251 387 CURVE SMOOTH",
"263 387 OFFCURVE",
"281 385 OFFCURVE",
"293 381 CURVE",
"324 512 LINE",
"290 524 OFFCURVE",
"247 531 OFFCURVE",
"206 531 CURVE SMOOTH",
"76 531 OFFCURVE",
"25 460 OFFCURVE",
"25 388 CURVE SMOOTH",
"25 340 OFFCURVE",
"48 289 OFFCURVE",
"111 262 CURVE",
"111 260 LINE",
"57 240 OFFCURVE",
"25 200 OFFCURVE",
"25 146 CURVE SMOOTH",
"25 54 OFFCURVE",
"116 -10 OFFCURVE",
"289 -10 CURVE SMOOTH"
);
},
{
closed = 1;
nodes = (
"606 189 LINE",
"606 294 LINE",
"381 294 LINE SMOOTH",
"360 294 OFFCURVE",
"347 304 OFFCURVE",
"347 327 CURVE SMOOTH",
"347 338 OFFCURVE",
"350 351 OFFCURVE",
"355 362 CURVE",
"274 362 LINE",
"261 337 OFFCURVE",
"254 320 OFFCURVE",
"254 292 CURVE SMOOTH",
"254 225 OFFCURVE",
"295 189 OFFCURVE",
"363 189 CURVE SMOOTH"
);
}
);
width = 598;
},
{
anchors = (
{
name = bottom;
position = "{330, 0}";
},
{
name = top;
position = "{337, 504}";
},
{
name = top2;
position = "{219, 504}";
}
);
layerId = "DDDB2E70-9881-4210-B3C5-A030831183E9";
paths = (
{
closed = 1;
nodes = (
"278 -10 OFFCURVE",
"337 42 OFFCURVE",
"337 165 CURVE SMOOTH",
"337 515 LINE",
"311 515 LINE",
"311 159 LINE SMOOTH",
"311 50 OFFCURVE",
"256 14 OFFCURVE",
"192 14 CURVE SMOOTH",
"127 14 OFFCURVE",
"74 50 OFFCURVE",
"74 143 CURVE SMOOTH",
"74 221 OFFCURVE",
"111 262 OFFCURVE",
"155 262 CURVE SMOOTH",
"173 262 LINE",
"173 284 LINE",
"155 284 LINE SMOOTH",
"125 284 OFFCURVE",
"73 312 OFFCURVE",
"73 399 CURVE SMOOTH",
"73 465 OFFCURVE",
"103 498 OFFCURVE",
"150 498 CURVE SMOOTH",
"167 498 OFFCURVE",
"187 494 OFFCURVE",
"197 489 CURVE",
"201 512 LINE",
"188 518 OFFCURVE",
"166 523 OFFCURVE",
"146 523 CURVE SMOOTH",
"84 523 OFFCURVE",
"46 477 OFFCURVE",
"46 397 CURVE SMOOTH",
"46 318 OFFCURVE",
"84 287 OFFCURVE",
"109 274 CURVE",
"109 270 LINE",
"84 257 OFFCURVE",
"48 229 OFFCURVE",
"48 146 CURVE SMOOTH",
"48 46 OFFCURVE",
"101 -10 OFFCURVE",
"191 -10 CURVE SMOOTH"
);
},
{
closed = 1;
nodes = (
"388 225 LINE",
"388 249 LINE",
"265 249 LINE SMOOTH",
"245 249 OFFCURVE",
"237 260 OFFCURVE",
"237 279 CURVE SMOOTH",
"237 290 OFFCURVE",
"240 303 OFFCURVE",
"242 311 CURVE",
"220 315 LINE",
"216 305 OFFCURVE",
"213 288 OFFCURVE",
"213 275 CURVE SMOOTH",
"213 247 OFFCURVE",
"228 225 OFFCURVE",
"263 225 CURVE SMOOTH"
);
}
);
width = 401;
},
{
anchors = (
{
name = bottom;
position = "{362, 0}";
},
{
name = top;
position = "{369, 504}";
},
{
name = top2;
position = "{231, 504}";
}
);
layerId = "3A4E24C5-56F7-4F8A-8FFD-B2AF7CE4A726";
paths = (
{
closed = 1;
nodes = (
"309 -10 OFFCURVE",
"369 47 OFFCURVE",
"369 178 CURVE SMOOTH",
"369 516 LINE",
"287 516 LINE",
"287 168 LINE SMOOTH",
"287 91 OFFCURVE",
"257 57 OFFCURVE",
"203 57 CURVE SMOOTH",
"149 57 OFFCURVE",
"117 91 OFFCURVE",
"117 159 CURVE SMOOTH",
"117 217 OFFCURVE",
"140 248 OFFCURVE",
"171 248 CURVE SMOOTH",
"194 248 LINE",
"194 307 LINE",
"171 307 LINE SMOOTH",
"150 307 OFFCURVE",
"117 324 OFFCURVE",
"117 387 CURVE SMOOTH",
"117 432 OFFCURVE",
"134 458 OFFCURVE",
"167 458 CURVE SMOOTH",
"181 458 OFFCURVE",
"197 453 OFFCURVE",
"207 448 CURVE",
"220 511 LINE",
"203 520 OFFCURVE",
"176 526 OFFCURVE",
"151 526 CURVE SMOOTH",
"70 526 OFFCURVE",
"36 464 OFFCURVE",
"36 392 CURVE SMOOTH",
"36 324 OFFCURVE",
"66 289 OFFCURVE",
"99 278 CURVE",
"99 274 LINE",
"64 266 OFFCURVE",
"36 227 OFFCURVE",
"36 154 CURVE SMOOTH",
"36 50 OFFCURVE",
"94 -10 OFFCURVE",
"203 -10 CURVE SMOOTH"
);
},
{
closed = 1;
nodes = (
"416 224 LINE",
"416 286 LINE",
"275 286 LINE SMOOTH",
"258 286 OFFCURVE",
"250 299 OFFCURVE",
"250 317 CURVE SMOOTH",
"250 326 OFFCURVE",
"252 340 OFFCURVE",
"255 346 CURVE",
"209 357 LINE",
"202 343 OFFCURVE",
"197 320 OFFCURVE",
"197 301 CURVE SMOOTH",
"197 261 OFFCURVE",
"221 224 OFFCURVE",
"268 224 CURVE SMOOTH"
);
}
);
width = 419;
},
{
anchors = (
{
name = bottom;
position = "{447, 0}";
},
{
name = top;
position = "{455, 505}";
},
{
name = top2;
position = "{268, 505}";
}
);
layerId = "A6C8CBD9-95C8-4E45-A197-88A1149E2980";
paths = (
{
closed = 1;
nodes = (
"389 -10 OFFCURVE",
"465 49 OFFCURVE",
"465 191 CURVE SMOOTH",
"465 520 LINE",
"303 520 LINE",
"303 180 LINE SMOOTH",
"303 138 OFFCURVE",
"275 113 OFFCURVE",
"244 113 CURVE SMOOTH",
"220 113 OFFCURVE",
"188 128 OFFCURVE",
"188 172 CURVE SMOOTH",
"188 195 OFFCURVE",
"197 219 OFFCURVE",
"222 219 CURVE SMOOTH",
"267 219 LINE",
"267 315 LINE",
"222 315 LINE SMOOTH",
"200 315 OFFCURVE",
"188 330 OFFCURVE",
"188 363 CURVE SMOOTH",
"188 392 OFFCURVE",
"197 406 OFFCURVE",
"215 406 CURVE SMOOTH",
"224 406 OFFCURVE",
"238 403 OFFCURVE",
"247 399 CURVE",
"273 512 LINE",
"245 523 OFFCURVE",
"210 530 OFFCURVE",
"177 530 CURVE SMOOTH",
"71 530 OFFCURVE",
"30 462 OFFCURVE",
"30 385 CURVE SMOOTH",
"30 339 OFFCURVE",
"45 289 OFFCURVE",
"98 267 CURVE",
"98 264 LINE",
"50 247 OFFCURVE",
"30 201 OFFCURVE",
"30 151 CURVE SMOOTH",
"30 51 OFFCURVE",
"109 -10 OFFCURVE",
"250 -10 CURVE SMOOTH"
);
},
{
closed = 1;
nodes = (
"499 199 LINE",
"499 293 LINE",
"316 293 LINE SMOOTH",
"300 293 OFFCURVE",
"289 304 OFFCURVE",
"289 326 CURVE SMOOTH",
"289 336 OFFCURVE",
"291 350 OFFCURVE",
"296 359 CURVE",
"230 362 LINE",
"219 340 OFFCURVE",
"213 321 OFFCURVE",
"213 296 CURVE SMOOTH",
"213 236 OFFCURVE",
"247 199 OFFCURVE",
"301 199 CURVE SMOOTH"
);
}
);
width = 514;
}
);
unicode = 0EDF;
},
